<?xml version="1.0" encoding="UTF-8" standalone="no"?>
<!-- Generator: Adobe Illustrator 20.1.0, SVG Export Plug-In . SVG Version: 6.00 Build 0)  -->

<svg
   xmlns:dc="http://purl.org/dc/elements/1.1/"
   xmlns:cc="http://creativecommons.org/ns#"
   xmlns:rdf="http://www.w3.org/1999/02/22-rdf-syntax-ns#"
   xmlns:svg="http://www.w3.org/2000/svg"
   xmlns="http://www.w3.org/2000/svg"
   xmlns:sodipodi="http://sodipodi.sourceforge.net/DTD/sodipodi-0.dtd"
   xmlns:inkscape="http://www.inkscape.org/namespaces/inkscape"
   version="1.1"
   id="icon"
   x="0px"
   y="0px"
   viewBox="0 0 48 48"
   style="enable-background:new 0 0 48 48;"
   xml:space="preserve"
   sodipodi:docname="add-row-hover.svg"
   inkscape:version="0.92.1 r15371"><metadata
     id="metadata15"><rdf:RDF><cc:Work
         rdf:about=""><dc:format>image/svg+xml</dc:format><dc:type
           rdf:resource="http://purl.org/dc/dcmitype/StillImage" /></cc:Work></rdf:RDF></metadata><defs
     id="defs13" /><sodipodi:namedview
     pagecolor="#ffffff"
     bordercolor="#666666"
     borderopacity="1"
     objecttolerance="10"
     gridtolerance="10"
     guidetolerance="10"
     inkscape:pageopacity="0"
     inkscape:pageshadow="2"
     inkscape:window-width="1674"
     inkscape:window-height="916"
     id="namedview11"
     showgrid="false"
     inkscape:zoom="4.9166667"
     inkscape:cx="16.881356"
     inkscape:cy="24"
     inkscape:window-x="0"
     inkscape:window-y="0"
     inkscape:window-maximized="0"
     inkscape:current-layer="icon" /><style
     type="text/css"
     id="style2">
	.st0{fill:#0099CD;}
</style><path
     class="st0"
     d="M24,48C10.8,48,0,37.2,0,24S10.8,0,24,0c13.2,0,24,10.8,24,24S37.2,48,24,48z M24,2C11.9,2,2,11.9,2,24  s9.9,22,22,22c12.1,0,22-9.9,22-22S36.1,2,24,2z"
     id="path4" /><rect
     x="11"
     y="23"
     class="st0"
     width="26"
     height="2"
     id="rect6" /><rect
     x="11"
     y="23"
     transform="matrix(-1.836970e-16 1 -1 -1.836970e-16 48 3.552714e-15)"
     class="st0"
     width="26"
     height="2"
     id="rect8" /><path
     style="fill:#ffff00;fill-opacity:1;stroke-width:0.99999994"
     d="m 23.044068,30.935593 v -6 h -6 -6 v -0.915254 -0.915254 h 6 6 v -6 -6 h 0.915254 0.915254 v 6 6 h 6 6 v 0.915254 0.915254 h -6 -6 v 6 6 h -0.915254 -0.915254 z"
     id="path3687"
     inkscape:connector-curvature="0" /><path
     style="fill:#ffff00;fill-opacity:1;stroke-width:0.99999994"
     d="M 20.849168,47.700864 C 15.774761,47.041806 10.946866,44.617975 7.1542757,40.825385 -1.3736591,32.297451 -2.2627307,19.039795 5.0520866,9.4779661 6.2812867,7.8711726 9.0824483,5.2512826 10.738983,4.1590853 25.258481,-5.414003 44.583508,2.9366191 47.570099,20.074339 c 0.48999,2.81167 0.308618,7.120193 -0.414407,9.844305 -1.034129,3.896248 -3.320296,7.926281 -6.098325,10.750078 -5.313412,5.400948 -12.775189,7.997532 -20.208199,7.032142 z m 6.572388,-1.91201 c 7.07187,-1.147026 13.062964,-5.531899 16.26469,-11.904108 1.795829,-3.574131 2.46801,-6.80254 2.282679,-10.96341 C 45.720014,17.333081 43.541489,12.42502 39.543081,8.444364 34.955813,3.8774626 29.373875,1.7118319 22.960527,2.0108119 12.888184,2.4803687 4.6619343,9.4771851 2.3526708,19.538773 c -0.512084,2.231178 -0.4538268,7.032349 0.1132139,9.330361 0.8758552,3.549529 2.3444325,6.507482 4.5388273,9.141936 5.063917,6.079422 12.775553,9.017164 20.416844,7.777784 z"
     id="path3689"
     inkscape:connector-curvature="0" /><path
     style="fill:#00ffff;fill-opacity:1;stroke-width:0.99999994"
     d="m 23.145763,30.935593 v -6 h -6 -6 v -0.915254 -0.915254 h 6 6 v -6 -6 h 0.813559 0.81356 v 6 6 h 6 6 v 0.915254 0.915254 h -6 -6 v 6 6 h -0.81356 -0.813559 z"
     id="path3682"
     inkscape:connector-curvature="0" /><path
     style="fill:#00ffff;fill-opacity:1;stroke-width:0.99999994"
     d="M 19.281356,47.316392 C 7.326312,44.756113 -1.0251034,33.359778 0.35490467,21.489372 1.0942251,15.129966 3.9171705,9.9400857 8.9287885,5.7266073 12.019025,3.1285148 15.739965,1.3857729 19.848853,0.61207822 22.49723,0.11339479 27.472107,0.30656705 29.959322,1.0046632 c 9.099905,2.554104 15.118749,8.9237317 17.423923,18.4394048 0.351561,1.451227 0.34908,7.39333 -0.0038,9.050847 -1.541431,7.2407 -6.320852,13.485073 -12.843873,16.780672 -1.807425,0.913159 -4.439406,1.782077 -6.484269,2.14071 -2.366717,0.415078 -6.58993,0.366969 -8.769968,-0.0999 z M 29.654237,45.385295 C 40.191903,42.462917 47.064187,32.60594 45.968516,21.985584 45.664009,19.033982 45.112967,16.973667 43.999241,14.622569 41.202004,8.717544 35.867907,4.2680492 29.486528,2.5166356 28.183011,2.1588761 27.321344,2.085379 24.264407,2.0712082 21.853975,2.0600343 20.221267,2.1468241 19.484746,2.3252801 11.802254,4.1867175 6.4087082,8.7273954 3.4576293,15.81807 2.34768,18.484989 1.9962537,20.385229 1.9946455,23.728747 c -0.0021,4.355435 0.5873717,6.940875 2.3712311,10.40038 1.2098652,2.346337 2.4760275,3.98244 4.6954832,6.067383 2.9644662,2.784801 6.4501202,4.614592 10.4233862,5.471745 2.812601,0.606765 7.423934,0.478457 10.169491,-0.28296 z"
     id="path3684"
     inkscape:connector-curvature="0" /></svg>