<?xml version="1.0" encoding="UTF-8" standalone="no"?>
<svg
   xmlns:dc="http://purl.org/dc/elements/1.1/"
   xmlns:cc="http://creativecommons.org/ns#"
   xmlns:rdf="http://www.w3.org/1999/02/22-rdf-syntax-ns#"
   xmlns:svg="http://www.w3.org/2000/svg"
   xmlns="http://www.w3.org/2000/svg"
   xmlns:sodipodi="http://sodipodi.sourceforge.net/DTD/sodipodi-0.dtd"
   xmlns:inkscape="http://www.inkscape.org/namespaces/inkscape"
   height="16px"
   style="enable-background:new 0 0 16 16;"
   version="1.1"
   viewBox="0 0 16 16"
   width="16px"
   xml:space="preserve"
   id="svg6"
   sodipodi:docname="backarrow.svg"
   inkscape:version="0.92.1 r15371"><metadata
     id="metadata12"><rdf:RDF><cc:Work
         rdf:about=""><dc:format>image/svg+xml</dc:format><dc:type
           rdf:resource="http://purl.org/dc/dcmitype/StillImage" /><dc:title></dc:title></cc:Work></rdf:RDF></metadata><defs
     id="defs10" /><sodipodi:namedview
     pagecolor="#ffff21"
     bordercolor="#666666"
     borderopacity="1"
     objecttolerance="10"
     gridtolerance="10"
     guidetolerance="10"
     inkscape:pageopacity="0"
     inkscape:pageshadow="2"
     inkscape:window-width="1111"
     inkscape:window-height="713"
     id="namedview8"
     showgrid="false"
     inkscape:zoom="14.75"
     inkscape:cx="6.8135593"
     inkscape:cy="8"
     inkscape:window-x="0"
     inkscape:window-y="0"
     inkscape:window-maximized="0"
     inkscape:current-layer="svg6" /><g
     id="_x37_6-interface_-_login_enter"
     style="enable-background:new    ;"><path
       d="M9.143,12.165c-0.191,0.191-0.191,0.501,0,0.691c0.191,0.19,0.5,0.19,0.691,0c0,0,4.027-4.017,4.033-4.023   c0.074-0.083,0.121-0.189,0.127-0.309c0-0.007,0.004-0.012,0.004-0.018C13.998,8.504,14,8.502,14,8.499s-0.002-0.005-0.002-0.007   c0-0.01-0.006-0.017-0.006-0.025c-0.008-0.101-0.049-0.186-0.107-0.259c-0.016-0.021-4.051-4.066-4.051-4.066   c-0.191-0.19-0.5-0.19-0.691,0c-0.191,0.19-0.191,0.5,0,0.69l3.168,3.167H0.5c-0.276,0-0.5,0.224-0.5,0.5s0.224,0.5,0.5,0.5h11.809   L9.143,12.165z M15,0.999H3c-0.552,0-1,0.447-1,1v3h1v-2.5c0-0.276,0.224-0.5,0.5-0.5h11c0.275,0,0.5,0.224,0.5,0.5v12   c0,0.275-0.225,0.5-0.5,0.5h-11c-0.276,0-0.5-0.225-0.5-0.5v-2.5H2v3c0,0.553,0.448,1,1,1h12c0.553,0,1-0.447,1-1v-13   C16,1.446,15.553,0.999,15,0.999z"
       id="path2" /></g><g
     id="Layer_1" /><path
     style="fill:#ffffff;fill-opacity:1;stroke-width:1"
     d="M 2.7718419,15.933795 C 2.6482193,15.904054 2.4688637,15.807631 2.3732738,15.719521 2.042052,15.414219 2.0135593,15.243284 2.0135593,13.5615 V 12 h 0.4745763 0.4745763 v 1.284946 c 0,1.368272 0.036436,1.563365 0.3157508,1.690629 0.2334425,0.106363 11.2028793,0.106351 11.4363223,-1.3e-5 0.09088,-0.04141 0.199744,-0.140559 0.241923,-0.220339 0.05583,-0.105602 0.07169,-1.829253 0.0583,-6.3374928 l -0.0184,-6.19244 -0.160053,-0.1295943 C 14.681815,1.9704019 14.487681,1.9661017 8.9860176,1.9661017 H 3.2955316 L 3.1291217,2.1325115 C 2.9637917,2.2978416 2.9627119,2.3075197 2.9627119,3.6240369 V 4.9491525 H 2.4881356 2.0135593 v -1.537917 c 0,-1.4143106 0.011226,-1.5611057 0.1396684,-1.8264333 0.1014038,-0.2094723 0.2187124,-0.3267809 0.4281847,-0.4281847 0.2849832,-0.137958 0.3640119,-0.1396317 6.4535517,-0.136672 6.0041529,0.00292 6.1716509,0.00649 6.4185259,0.1368295 0.155549,0.082124 0.306543,0.2378238 0.390799,0.4029808 0.135524,0.2656481 0.137076,0.3568006 0.119391,7.0107595 -0.01778,6.6892497 -0.019,6.7430657 -0.1577,6.9288167 -0.07688,0.102963 -0.224018,0.250107 -0.326973,0.326987 -0.185583,0.138582 -0.240007,0.139876 -6.3347941,0.150666 -3.3811814,0.006 -6.2487485,-0.01345 -6.372371,-0.04319 z"
     id="path3684"
     inkscape:connector-curvature="0" /><path
     style="fill:#ffffff;fill-opacity:1;stroke-width:1"
     d="m 9.1766095,12.82517 c -0.061712,-0.06819 -0.1122027,-0.213344 -0.1122027,-0.322563 0,-0.168893 0.243259,-0.441682 1.6271182,-1.824641 0.894916,-0.8943324 1.627119,-1.6491788 1.627119,-1.6774363 0,-0.028257 -2.6999999,-0.051377 -5.9999999,-0.051377 -5.90960455,0 -6.00204287,-0.00204 -6.13559325,-0.1355932 C 0.00574976,8.6362582 0.00912373,8.3268991 0.19014551,8.16305 0.32758388,8.0386498 0.55333297,8.0326512 6.3262907,8 L 12.319748,7.9661017 10.692077,6.3395127 C 9.2842292,4.9326001 9.0645471,4.6853839 9.0654447,4.5090043 9.0659871,4.3968485 9.089518,4.2688578 9.1176719,4.2245804 9.1979254,4.0983673 9.4913783,4.011929 9.640678,4.070526 c 0.074576,0.02927 1.073729,0.9951568 2.220339,2.146416 1.788691,1.7959436 2.084746,2.1215524 2.084746,2.2928594 0,0.1715619 -0.298332,0.4979932 -2.119846,2.3195056 -1.8627739,1.862774 -2.1451448,2.119846 -2.328475,2.119846 -0.1160162,0 -0.2584386,-0.05504 -0.3208325,-0.123983 z"
     id="path3686"
     inkscape:connector-curvature="0" /></svg>