<?xml version="1.0" encoding="UTF-8" standalone="no"?>
<svg
   xmlns:dc="http://purl.org/dc/elements/1.1/"
   xmlns:cc="http://creativecommons.org/ns#"
   xmlns:rdf="http://www.w3.org/1999/02/22-rdf-syntax-ns#"
   xmlns:svg="http://www.w3.org/2000/svg"
   xmlns="http://www.w3.org/2000/svg"
   xmlns:sodipodi="http://sodipodi.sourceforge.net/DTD/sodipodi-0.dtd"
   xmlns:inkscape="http://www.inkscape.org/namespaces/inkscape"
   enable-background="new 0 0 128 128"
   height="128px"
   id="Layer_1"
   version="1.1"
   viewBox="0 0 128 128"
   width="128px"
   xml:space="preserve"
   sodipodi:docname="chart.svg"
   inkscape:version="0.92.1 r15371"><metadata
     id="metadata19"><rdf:RDF><cc:Work
         rdf:about=""><dc:format>image/svg+xml</dc:format><dc:type
           rdf:resource="http://purl.org/dc/dcmitype/StillImage" /><dc:title></dc:title></cc:Work></rdf:RDF></metadata><defs
     id="defs17" /><sodipodi:namedview
     pagecolor="#ffff23"
     bordercolor="#666666"
     borderopacity="1"
     objecttolerance="10"
     gridtolerance="10"
     guidetolerance="10"
     inkscape:pageopacity="0"
     inkscape:pageshadow="2"
     inkscape:window-width="1259"
     inkscape:window-height="804"
     id="namedview15"
     showgrid="false"
     inkscape:zoom="6.424816"
     inkscape:cx="64.7"
     inkscape:cy="65.35"
     inkscape:window-x="0"
     inkscape:window-y="0"
     inkscape:window-maximized="0"
     inkscape:current-layer="Layer_1" /><path
     d="M18.2,72.6c0.6,0,1.2,0.1,1.8,0.2V24.9c0-3.3,2.7-5.9,6-5.9h77c3.3,0,6,2.6,6,5.9v8.9  c0.7-0.2,1.4-0.2,2.2-0.2c0.6,0,1.2,0.1,1.8,0.2v-8.8c0-5.5-5.5-9.9-11-9.9H26c-5.5,0-10,4.4-10,9.9v47.9  C16.7,72.7,17.4,72.6,18.2,72.6z"
     fill="#2C3E50"
     id="path2" /><path
     d="M111.2,54.4c-0.8,0-1.5-0.1-2.2-0.2v45.8c0,3.3-2.7,6.1-6,6.1H26c-3.3,0-6-2.8-6-6.1v-6.7  c-0.6,0.1-1.2,0.2-1.8,0.2c-0.8,0-1.5-0.1-2.2-0.2v6.8c0,5.5,4.5,10.1,10,10.1h77c5.5,0,10-4.6,10-10.1V54.2  C112.4,54.3,111.8,54.4,111.2,54.4z"
     fill="#2C3E50"
     id="path4" /><path
     d="M95,58h1v11H85v-4.4l-2,1.3V69h-1.5c0,0.3,0.1,0.7,0.1,1s0,0.7-0.1,1H83v11H72v-1.6c-0.3,0-0.5,0-0.8,0  c-0.4,0-0.8,0-1.2-0.1V82H59V71h1.8c0-0.3-0.1-0.7-0.1-1c0-0.3,0-0.6,0-1c0,0,0,0,0,0H59v-1.7l-2-1V69H46v-1.6c-0.3,0-0.5,0-0.8,0  c-0.4,0-0.8,0-1.2-0.1V69h-6.9L35,71h9v11H33v-9.1l-2,1.9V82h-2.5c0,0.3,0.1,0.7,0.1,1s0,0.7-0.1,1H31v11h-9v2h9v7h2v-7h11v7h2v-7  h11v7h2v-7h11v7h2v-7h11v7h2v-7h11v7h2v-7h9v-2h-9V84h9v-2h-9V71h9v-2h-9V58h9v-2h-8.9L95,58z M44,95H33V84h11V95z M57,95H46V84h11  V95z M57,82H46V71h11V82z M70,95H59V84h11V95z M83,95H72V84h11V95z M96,95H85V84h11V95z M96,82H85V71h11V82z"
     fill="#2C3E50"
     id="path6" /><path
     d="M31,66.5l2-1.9V58h1.8c0-0.3-0.1-0.7-0.1-1s0-0.7,0.1-1H33V45h11v1.7c0.4,0,0.8-0.1,1.2-0.1  c0.3,0,0.5,0,0.8,0V45h11v11h-1.5c0,0.3,0.1,0.7,0.1,1c0,0.3,0,0.6,0,1c0,0,0,0,0,0H57v1.6l2,1V58h11v1.7c0.4,0,1-0.1,1.4-0.1  c0.1,0-0.4,0,0.6,0V58h11v0.7l4.1-2.7H85V45h11v5.2l2-1.3V45h2.8c0-0.3-0.1-0.7-0.1-1s0-0.7,0.1-1H98V32h9v-2h-9v-9h-2v9H85.5H85v-9  h-2v9H72v-9h-2v9H59v-9h-2v9v0H46v-9h-2v9H33v-9h-2v9h-9v2h9v11h-9v2h9v11h-9v2h9V66.5z M85,32h11v11H85V32z M72,32h11v11H72V32z   M72,45h11v11H72V45z M59,32h11v11H59V32z M59,45h11v11H59V45z M46,32h11v11H46V32z M33,32h11v11H33V32z"
     fill="#2C3E50"
     id="path8" /><polygon
     fill="#2C3E50"
     points="28.4,69 22,69 22,71 26.3,71 "
     id="polygon10" /><path
     d="M111.2,35.6c-4.6,0-8.4,3.8-8.4,8.4c0,1.3,0.3,2.5,0.8,3.6l-26,17c-1.5-1.8-3.9-3-6.4-3  c-2.9,0-5.5,1.5-7,3.8l-11.1-5.5c0.3-0.9,0.5-1.8,0.5-2.8c0-4.6-3.8-8.4-8.4-8.4s-8.4,3.8-8.4,8.4c0,1.9,0.6,3.7,1.7,5.1l-15,14.4  c-1.4-1.2-3.3-1.9-5.3-1.9c-4.6,0-8.4,3.8-8.4,8.4c0,4.6,3.8,8.4,8.4,8.4s8.4-3.8,8.4-8.4c0-1.9-0.6-3.7-1.7-5.1l15-14.4  c1.4,1.2,3.3,1.9,5.3,1.9c2.9,0,5.5-1.5,7-3.8l11.1,5.5C63,68.1,62.8,69,62.8,70c0,4.6,3.8,8.4,8.4,8.4s8.4-3.8,8.4-8.4  c0-1.3-0.3-2.6-0.9-3.7l26-17c1.5,1.9,3.9,3.1,6.5,3.1c4.6,0,8.4-3.8,8.4-8.4C119.6,39.4,115.8,35.6,111.2,35.6z M18.2,87.4  c-2.4,0-4.4-2-4.4-4.4s2-4.4,4.4-4.4s4.4,2,4.4,4.4S20.6,87.4,18.2,87.4z M45.2,61.4c-2.4,0-4.4-2-4.4-4.4s2-4.4,4.4-4.4  s4.4,2,4.4,4.4S47.6,61.4,45.2,61.4z M71.2,74.4c-2.4,0-4.4-2-4.4-4.4s2-4.4,4.4-4.4s4.4,2,4.4,4.4S73.6,74.4,71.2,74.4z   M111.2,48.4c-2.4,0-4.4-2-4.4-4.4s2-4.4,4.4-4.4s4.4,2,4.4,4.4S113.6,48.4,111.2,48.4z"
     fill="#3B97D3"
     id="path12" /><path
     style="fill:#ffffff;fill-opacity:1;stroke-width:1"
     d="m 31.012877,62.105919 -0.04147,-4.172007 -4.474837,-0.0413 -4.474836,-0.0413 V 57.00003 56.148748 l 4.474836,-0.0413 4.474837,-0.0413 0.04088,-5.564362 0.04088,-5.564362 h -4.515714 -4.515714 v -0.933878 -0.933879 h 4.513748 4.513748 V 37.466393 31.86312 h -4.513748 -4.513748 v -0.933879 -0.933879 h 4.513748 4.513748 v -4.435924 -4.435925 h 0.933879 0.933879 v 4.435925 4.435924 h 5.603273 5.603273 v -4.435924 -4.435925 h 0.933879 0.933879 v 4.435925 4.435924 h 5.52545 5.52545 v -4.435924 -4.435925 h 0.933879 0.933879 v 4.435925 4.435924 h 5.603273 5.603274 v -4.435924 -4.435925 h 0.933878 0.933879 v 4.435925 4.435924 h 5.52545 5.52545 v -4.435924 -4.435925 h 0.933879 0.933879 v 4.435925 4.435924 h 5.603274 5.603273 v -4.435924 -4.435925 h 0.933879 0.933879 v 4.435925 4.435924 h 4.513748 4.51374 v 0.933879 0.933879 h -4.51374 -4.513748 v 5.603273 5.603274 h 1.322995 1.322993 v 0.687679 c 0,0.378224 0.0425,0.798469 0.0945,0.933878 0.0819,0.213396 -0.0944,0.2462 -1.322987,0.2462 h -1.417471 v 1.939782 1.939782 l -0.933879,0.634184 -0.933879,0.634185 v -2.57396 -2.573967 h -5.605239 -5.605239 l 0.04088,5.564362 0.04088,5.564362 0.856056,0.07782 0.856056,0.07782 -1.748667,1.128437 c -0.961766,0.620641 -1.776578,1.128437 -1.810693,1.128437 -0.03411,0 -0.0989,-0.140997 -0.143962,-0.313325 -0.0804,-0.307443 -0.183779,-0.312557 -5.504693,-0.272382 l -5.422754,0.04095 -0.04705,0.817144 -0.04705,0.817144 h -0.917611 -0.91761 l -0.04705,-0.817144 -0.04705,-0.817144 h -5.52545 -5.52545 l -0.04519,1.283154 -0.04519,1.283154 -0.919399,-0.464111 -0.919399,-0.464112 -0.04711,-0.819042 -0.04711,-0.819043 -0.661498,-0.04786 -0.661497,-0.04786 v -0.838156 -0.838157 l 0.661497,-0.04786 0.661498,-0.04786 0.04088,-5.564362 0.04088,-5.564362 h -5.527416 -5.527416 v 0.778233 c 0,0.753419 -0.01427,0.778232 -0.447484,0.778232 -0.246116,0 -0.666361,0.04378 -0.933879,0.09728 l -0.486395,0.09728 V 45.812942 44.93743 h -5.605239 -5.60524 l 0.04088,5.564362 0.04088,5.564362 0.803182,0.04656 0.803183,0.04656 0.05287,0.842034 0.05287,0.842033 -0.856056,0.04528 -0.856055,0.04528 -0.04189,3.364558 -0.04189,3.364559 -0.928343,0.807449 -0.928343,0.807448 z M 70.079552,50.501792 70.120429,44.93743 H 64.51519 58.909951 v 5.499509 c 0,3.024731 0.04758,5.547085 0.105724,5.605234 0.05815,0.05815 2.562111,0.08733 5.564362,0.06485 l 5.458637,-0.04087 z m 12.918658,0 0.04088,-5.564362 h -5.527416 -5.527416 v 5.499509 c 0,3.024731 0.04759,5.547097 0.10575,5.605259 0.05816,0.05816 2.527104,0.08735 5.486538,0.06485 l 5.380789,-0.0409 z M 44.086589,37.505311 44.045712,31.940949 h -5.52545 -5.52545 l -0.04088,5.564362 -0.04088,5.564362 h 5.607206 5.607205 z m 12.955604,-0.03891 v -5.603273 h -5.52545 -5.52545 v 5.603273 5.603274 h 5.52545 5.52545 z m 13.037359,0.03891 -0.04088,-5.564362 h -5.52545 -5.52545 l -0.04088,5.564362 -0.04088,5.564362 h 5.607205 5.607205 z m 12.955603,-0.03891 v -5.603273 h -5.52545 -5.52545 v 5.603273 5.603274 h 5.52545 5.52545 z m 13.037359,0.03891 -0.04088,-5.564362 h -5.52545 -5.525451 l -0.04088,5.564362 -0.04088,5.564362 h 5.607205 5.607205 z"
     id="path3691"
     inkscape:connector-curvature="0" /><path
     style="fill:#ffffff;fill-opacity:1;stroke-width:1"
     d="m 31.049231,100.4254 v -3.502045 h -4.513748 -4.513748 v -0.933879 -0.933879 h 4.513748 4.513748 v -5.52545 -5.52545 l -1.20626,-3.11e-4 -1.206261,-3.11e-4 -0.01721,-0.933531 -0.01721,-0.933605 h 1.223465 1.223466 v -3.623652 -3.623654 l 0.93144,-0.92172 0.93144,-0.921721 0.04135,4.506462 0.04135,4.506462 h 5.52545 5.52545 l 0.04088,-5.564361 0.04088,-5.564362 -4.476802,-0.0054 -4.476802,-0.0054 0.976932,-0.928459 0.976933,-0.928458 h 3.497903 3.497904 l -3.11e-4,-0.817144 -3.11e-4,-0.817144 0.934162,0.05274 0.934162,0.05274 v 0.764407 0.764408 h 5.52545 5.52545 v -1.325236 -1.325235 l 0.933879,0.47142 0.933879,0.471421 v 0.853815 0.853815 H 59.765945 60.622 v 0.687679 c 0,0.378224 0.04251,0.798469 0.09448,0.933879 0.07986,0.207973 -0.05336,0.2462 -0.857965,0.2462 h -0.952498 l 0.04088,5.564362 0.04088,5.564361 h 5.52545 5.52545 l 0.04705,-0.817144 0.04705,-0.817144 h 0.925745 0.925744 v 0.856056 0.856055 h 5.52545 5.52545 v -5.603273 -5.603273 h -0.700409 -0.700409 v -0.933879 -0.933879 h 0.700409 0.700409 v -1.551682 -1.551682 l 0.859079,-0.549545 c 0.472493,-0.30225 0.892738,-0.549546 0.933879,-0.549546 0.04114,0 0.0748,0.945552 0.0748,2.101228 v 2.101227 h 5.603274 5.603273 v -5.530466 c 0,-5.40667 -0.007,-5.533069 -0.314423,-5.646778 -0.267228,-0.09885 -0.125731,-0.23828 0.942648,-0.928863 l 1.257072,-0.812551 h 4.504982 4.50497 v 0.853669 0.853669 l -4.47483,0.0413 -4.474838,0.0413 -0.04088,5.564361 -0.04088,5.564362 h 4.515718 4.51571 v 0.933879 0.933879 h -4.51374 -4.513756 v 5.603273 5.603273 h 4.513756 4.51374 v 0.933879 0.933879 h -4.51374 -4.513756 v 5.52545 5.52545 h 4.513756 4.51374 v 0.933879 0.933879 h -4.51374 -4.513756 v 3.502044 3.50205 H 97.043339 96.10946 v -3.50205 -3.502044 h -5.603273 -5.603274 v 3.502044 3.50205 h -0.933879 -0.933879 v -3.50205 -3.502044 h -5.52545 -5.52545 v 3.502044 3.50205 h -0.933879 -0.933878 v -3.50205 -3.502044 h -5.603274 -5.603273 v 3.502044 3.50205 h -0.933879 -0.933879 v -3.50205 -3.502044 h -5.52545 -5.52545 v 3.502044 3.50205 h -0.933879 -0.933879 v -3.50205 -3.502044 h -5.603273 -5.603273 v 3.502044 3.50205 H 31.98311 31.049231 Z M 44.123535,89.530147 v -5.52545 h -5.603273 -5.603273 v 5.52545 5.52545 h 5.603273 5.603273 z m 12.918658,0 v -5.52545 h -5.52545 -5.52545 v 5.52545 5.52545 h 5.52545 5.52545 z m 13.074305,0 v -5.52545 h -5.603274 -5.603273 v 5.52545 5.52545 h 5.603273 5.603274 z m 12.918657,0 v -5.52545 h -5.52545 -5.52545 v 5.52545 5.52545 h 5.52545 5.52545 z m 13.074305,0 v -5.52545 h -5.603273 -5.603274 v 5.52545 5.52545 h 5.603274 5.603273 z M 57.042193,76.533666 v -5.603273 h -5.52545 -5.52545 v 5.603273 5.603273 h 5.52545 5.52545 z m 39.030321,-0.03891 0.04088,-5.564362 h -5.60524 -5.605239 v 5.499508 c 0,3.024731 0.04758,5.547085 0.105725,5.605235 0.05815,0.05815 2.56211,0.08733 5.564361,0.06485 l 5.458638,-0.04087 z"
     id="path3693"
     inkscape:connector-curvature="0" /><path
     style="fill:#ffffff;fill-opacity:1;stroke-width:1"
     d="m 22.021735,69.996514 v -0.933879 h 3.069146 3.069145 l -0.924134,0.933879 -0.924134,0.933879 h -2.145012 -2.145011 z"
     id="path3695"
     inkscape:connector-curvature="0" /><path
     style="fill:#ffffff;fill-opacity:1;stroke-width:1"
     d="m 16.109469,48.255407 c 0.0026,-27.426652 -0.07522,-25.501919 1.123786,-27.806556 1.251409,-2.405367 3.592179,-4.24447 6.275865,-4.930842 1.189832,-0.304307 1.812739,-0.309056 40.537165,-0.309056 38.921245,0 39.341525,0.0033 40.559925,0.313767 4.03202,1.027584 7.13381,3.92492 8.07226,7.540169 0.19221,0.740436 0.24083,1.90277 0.24089,5.75892 l 8e-5,4.831252 h -1.93791 -1.9379 l -0.0467,-5.140146 -0.0467,-5.140146 -0.5096,-1.034614 c -0.63132,-1.281716 -1.8616,-2.450668 -3.1097,-2.954671 l -0.89444,-0.361193 H 64.435401 24.434255 l -0.895457,0.41968 c -1.173309,0.549902 -2.441389,1.766218 -3.008168,2.885372 l -0.454476,0.897403 -0.04079,24.690838 -0.04079,24.69084 -1.593497,-0.01356 c -0.876423,-0.0075 -1.751089,0.0404 -1.943702,0.106352 l -0.350204,0.119915 z"
     id="path3697"
     inkscape:connector-curvature="0" /><path
     style="fill:#ffffff;fill-opacity:1;stroke-width:1"
     d="m 23.981119,109.89821 c -3.655582,-0.78674 -6.634323,-3.664 -7.566479,-7.3087 -0.266868,-1.04344 -0.307471,-1.72818 -0.307471,-5.185201 v -3.983 h 1.936568 1.936567 l 0.04792,4.124632 0.04792,4.124629 0.435073,0.88597 c 0.645031,1.31352 1.66707,2.36475 2.879287,2.96153 l 1.037196,0.5106 h 40.082241 40.082239 l 0.87492,-0.42966 c 1.36577,-0.67072 2.22789,-1.52803 2.89603,-2.87987 l 0.58715,-1.18798 0.0408,-23.588559 0.0408,-23.588558 h 1.94598 1.94597 l -0.0412,23.813911 -0.0412,23.813916 -0.47627,1.32987 c -1.09722,3.06375 -3.45861,5.37928 -6.52783,6.40104 l -1.08952,0.3627 -39.8455,0.0271 c -34.75298,0.0237 -39.982983,-0.002 -40.921221,-0.20439 z"
     id="path3699"
     inkscape:connector-curvature="0" /></svg>