<?xml version="1.0" encoding="UTF-8" standalone="no"?>
<!-- Generator: Adobe Illustrator 16.0.0, SVG Export Plug-In . SVG Version: 6.00 Build 0)  -->

<svg
   xmlns:dc="http://purl.org/dc/elements/1.1/"
   xmlns:cc="http://creativecommons.org/ns#"
   xmlns:rdf="http://www.w3.org/1999/02/22-rdf-syntax-ns#"
   xmlns:svg="http://www.w3.org/2000/svg"
   xmlns="http://www.w3.org/2000/svg"
   xmlns:sodipodi="http://sodipodi.sourceforge.net/DTD/sodipodi-0.dtd"
   xmlns:inkscape="http://www.inkscape.org/namespaces/inkscape"
   version="1.1"
   id="Capa_1"
   x="0px"
   y="0px"
   width="357px"
   height="357px"
   viewBox="0 0 357 357"
   style="enable-background:new 0 0 357 357;"
   xml:space="preserve"
   sodipodi:docname="clear.svg"
   inkscape:version="0.92.1 r15371"><metadata
     id="metadata42"><rdf:RDF><cc:Work
         rdf:about=""><dc:format>image/svg+xml</dc:format><dc:type
           rdf:resource="http://purl.org/dc/dcmitype/StillImage" /><dc:title></dc:title></cc:Work></rdf:RDF></metadata><defs
     id="defs40" /><sodipodi:namedview
     pagecolor="#ffff21"
     bordercolor="#666666"
     borderopacity="1"
     objecttolerance="10"
     gridtolerance="10"
     guidetolerance="10"
     inkscape:pageopacity="0"
     inkscape:pageshadow="2"
     inkscape:window-width="1610"
     inkscape:window-height="1107"
     id="namedview38"
     showgrid="false"
     inkscape:zoom="0.66106443"
     inkscape:cx="152.02754"
     inkscape:cy="178.5"
     inkscape:window-x="0"
     inkscape:window-y="0"
     inkscape:window-maximized="0"
     inkscape:current-layer="Capa_1" /><g
     id="g5"><g
       id="clear"><polygon
         points="357,35.7 321.3,0 178.5,142.8 35.7,0 0,35.7 142.8,178.5 0,321.3 35.7,357 178.5,214.2 321.3,357 357,321.3     214.2,178.5   "
         id="polygon2" /></g></g><g
     id="g7" /><g
     id="g9" /><g
     id="g11" /><g
     id="g13" /><g
     id="g15" /><g
     id="g17" /><g
     id="g19" /><g
     id="g21" /><g
     id="g23" /><g
     id="g25" /><g
     id="g27" /><g
     id="g29" /><g
     id="g31" /><g
     id="g33" /><g
     id="g35" /><path
     style="fill:#ffffff;fill-opacity:1;stroke-width:1"
     d="M 17.764713,338.17389 0.75386177,321.16304 72.224773,249.68025 143.69568,178.19746 72.216625,106.70651 0.73756503,35.215574 18.152514,17.850029 35.567461,0.48448537 107.03769,71.942831 178.50791,143.40118 249.96824,71.940849 321.42857,0.48052211 338.84551,17.848047 l 17.41692,17.367527 -71.47905,71.490936 -71.47907,71.49095 71.47907,71.49094 71.47905,71.49095 -17.41491,17.3655 -17.41492,17.36551 -70.71592,-70.70391 C 211.82292,246.31931 179.32,214.50254 178.48793,214.50254 c -0.83207,0 -33.16085,31.6535 -71.84174,70.3411 -38.680899,38.68761 -70.675793,70.34111 -71.099765,70.34111 -0.423974,0 -8.425743,-7.65489 -17.781712,-17.01086 z"
     id="path3714"
     inkscape:connector-curvature="0" /></svg>