<?xml version="1.0" encoding="UTF-8" standalone="no"?>
<svg
   xmlns:dc="http://purl.org/dc/elements/1.1/"
   xmlns:cc="http://creativecommons.org/ns#"
   xmlns:rdf="http://www.w3.org/1999/02/22-rdf-syntax-ns#"
   xmlns:svg="http://www.w3.org/2000/svg"
   xmlns="http://www.w3.org/2000/svg"
   xmlns:sodipodi="http://sodipodi.sourceforge.net/DTD/sodipodi-0.dtd"
   xmlns:inkscape="http://www.inkscape.org/namespaces/inkscape"
   height="60px"
   id="Capa_1"
   style="enable-background:new 0 0 100 60;"
   version="1.1"
   viewBox="0 0 100 60"
   width="100px"
   xml:space="preserve"
   sodipodi:docname="code.svg"
   inkscape:version="0.92.1 r15371"><metadata
     id="metadata39"><rdf:RDF><cc:Work
         rdf:about=""><dc:format>image/svg+xml</dc:format><dc:type
           rdf:resource="http://purl.org/dc/dcmitype/StillImage" /><dc:title></dc:title></cc:Work></rdf:RDF></metadata><defs
     id="defs37" /><sodipodi:namedview
     pagecolor="#ffff12"
     bordercolor="#666666"
     borderopacity="1"
     objecttolerance="10"
     gridtolerance="10"
     guidetolerance="10"
     inkscape:pageopacity="0"
     inkscape:pageshadow="2"
     inkscape:window-width="1116"
     inkscape:window-height="841"
     id="namedview35"
     showgrid="false"
     inkscape:zoom="9.21"
     inkscape:cx="50"
     inkscape:cy="30.000625"
     inkscape:window-x="333"
     inkscape:window-y="5"
     inkscape:window-maximized="0"
     inkscape:current-layer="Capa_1" /><path
     d="M38.061,1.295c-1.836-1.728-4.316-1.728-6.154,0L0,30l31.906,28.703c1.838,1.729,4.318,1.729,6.154,0  c1.838-1.73,1.838-4.534,0-6.263L13.289,30L38.061,7.559C39.898,5.831,39.898,3.027,38.061,1.295z M68.094,1.295  c-1.838-1.728-4.316-1.728-6.154,0c-1.838,1.731-1.738,4.535,0.1,6.264L86.711,30l-24.672,22.44c-1.838,1.729-1.938,4.532-0.1,6.263  c1.838,1.729,4.316,1.729,6.154,0L100,30L68.094,1.295z"
     id="path2" /><g
     id="g4" /><g
     id="g6" /><g
     id="g8" /><g
     id="g10" /><g
     id="g12" /><g
     id="g14" /><g
     id="g16" /><g
     id="g18" /><g
     id="g20" /><g
     id="g22" /><g
     id="g24" /><g
     id="g26" /><g
     id="g28" /><g
     id="g30" /><g
     id="g32" /><path
     style="fill:#ffffff;fill-opacity:1;stroke-width:1"
     d="M 33.680782,59.733996 C 33.382193,59.626804 32.918024,59.386983 32.649294,59.20106 32.171458,58.870466 0.18581074,30.148257 0.14896526,30.016681 0.1386956,29.980008 7.4104235,23.401367 16.30836,15.397479 29.835611,3.2294223 32.601694,0.7881336 33.189899,0.49816951 c 0.649687,-0.32027208 0.786835,-0.34678582 1.793814,-0.34678582 1.014788,0 1.140935,0.0249066 1.820449,0.35943007 0.97078,0.47791361 1.737592,1.24051264 2.174201,2.16225664 0.316877,0.6689741 0.348278,0.8291216 0.346494,1.7671298 -0.0017,0.8847192 -0.04278,1.1191645 -0.288861,1.6476814 -0.157794,0.3389068 -0.492562,0.8393121 -0.743928,1.112012 -0.251366,0.2726999 -5.997175,5.5148374 -12.768466,11.6491944 -11.59801,10.507057 -12.300378,11.163779 -12.120561,11.332871 0.104983,0.09872 5.687621,5.149464 12.405862,11.223871 6.718241,6.074407 12.380342,11.247826 12.582447,11.496485 0.202104,0.24866 0.49476,0.720839 0.650345,1.049286 0.243034,0.513053 0.282884,0.742481 0.282884,1.628664 0,0.893049 -0.03933,1.115735 -0.293014,1.659199 -0.409586,0.87744 -1.337645,1.815707 -2.233532,2.258099 -0.618557,0.305445 -0.867872,0.365158 -1.651453,0.395543 -0.68588,0.0266 -1.06234,-0.01427 -1.465798,-0.15911 z"
     id="path3711"
     inkscape:connector-curvature="0" /><path
     style="fill:#ffffff;fill-opacity:1;stroke-width:1"
     d="m 63.787696,59.750754 c -0.281589,-0.08662 -0.819048,-0.367366 -1.194354,-0.62388 -1.868868,-1.27733 -2.428788,-3.402513 -1.420344,-5.390928 L 61.585233,52.923113 74.12595,41.515841 c 6.897394,-6.274 12.540717,-11.456047 12.540717,-11.515659 0,-0.05961 -5.447883,-5.057493 -12.106406,-11.106402 C 67.901737,12.844871 62.21356,7.6435065 61.919867,7.3351917 61.626174,7.0268768 61.235295,6.4570297 61.051246,6.0688647 60.749348,5.4321499 60.716911,5.2622057 60.719665,4.3316226 c 0.0027,-0.9131646 0.03923,-1.1062178 0.318454,-1.6829534 0.407743,-0.8421993 1.341007,-1.7731498 2.175779,-2.17038441 1.252434,-0.59598334 2.946419,-0.48519752 4.071661,0.26628469 C 67.804934,1.0914293 99.838699,29.847907 99.85138,29.97867 c 0.0063,0.06507 -6.003884,5.49005 -28.965506,26.145117 -1.692466,1.522453 -3.272998,2.900745 -3.512293,3.062874 -1.040249,0.704789 -2.421933,0.922141 -3.585885,0.564093 z"
     id="path3713"
     inkscape:connector-curvature="0" /></svg>