<?xml version="1.0" ?><!DOCTYPE svg  PUBLIC '-//W3C//DTD SVG 1.1//EN'  'http://www.w3.org/Graphics/SVG/1.1/DTD/svg11.dtd'><svg height="128px" id="Layer_1" style="enable-background:new 0 0 128 128;" version="1.1" viewBox="0 0 128 128" width="128px" xml:space="preserve" xmlns="http://www.w3.org/2000/svg" xmlns:xlink="http://www.w3.org/1999/xlink"><path d="M120,70.087V24H96v-8h32v61.428  C125.718,74.597,123.023,72.118,120,70.087z M64,100.125c0,11.222,5.099,21.249,13.1,27.875H40v-16v-8V24v-8V0h48v16v8v42.064  C74.019,71.024,64,84.397,64,100.125z M32,104v8H0V16h32v8H8v80H32z M100,72.125c15.464,0,28,12.536,28,28c0,15.464-12.536,28-28,28  c-15.464,0-28-12.536-28-28C72,84.661,84.536,72.125,100,72.125z M84,104h32v-8H84V104z" style="fill-rule:evenodd;clip-rule:evenodd;fill:#010202;"/></svg>