<?xml version="1.0" ?><!DOCTYPE svg  PUBLIC '-//W3C//DTD SVG 1.1//EN'  'http://www.w3.org/Graphics/SVG/1.1/DTD/svg11.dtd'><svg height="128px" id="Layer_1" style="enable-background:new 0 0 128 128;" version="1.1" viewBox="0 0 128 128" width="128px" xml:space="preserve" xmlns="http://www.w3.org/2000/svg" xmlns:xlink="http://www.w3.org/1999/xlink"><path d="  M120,69.769V24H96v-8h32v60.977C125.71,74.195,123.011,71.766,120,69.769z M63.75,100c0,11.277,5.151,21.351,13.227,28H40V0h48  v65.793C73.879,70.746,63.75,84.187,63.75,100z M32,104v8H0V16h32v8H8v80H32z M100,72c15.464,0,28,12.536,28,28  c0,15.464-12.536,28-28,28c-15.464,0-28-12.536-28-28C72,84.536,84.536,72,100,72z M84,104h12v12h8v-12h12v-8h-12V84h-8v12H84V104z" id="Column_x2C__Table_x2C__New_x2C__Plus_x2C__Add_x2C__Create_x2C__Insert" style="fill-rule:evenodd;clip-rule:evenodd;"/></svg>