<svg xmlns="http://www.w3.org/2000/svg" viewBox="2251 -2132 48 48"><defs><style>.a{fill:none;}.b{fill:rgba(0,0,0,0.87);}</style></defs><g transform="translate(1361 -2417)"><path class="a" d="M0,0H48V48H0Z" transform="translate(890 285)"/><path d="M-1336,2480.3h-12.02a6.524,6.524,0,0,0-6.481-6,6.549,6.549,0,0,0-1.292.128l1.15-3.449-2.33-6.991v-2.33h14.8l1.689-4.66,2.739.99-1.34,3.67H-1336v2.33l-2.331,6.991,2.331,6.991v2.329Zm-11.651-8.156v3.495h2.33v-3.495h3.5v-2.331h-3.5v-3.495h-2.33v3.495h-3.5v2.331Z" transform="translate(2271 -2168.303)"/><path class="b" d="M25.21,19.284a4.642,4.642,0,1,0-4.642-4.642A4.656,4.656,0,0,0,25.21,19.284Zm-12.379,0a4.642,4.642,0,1,0-4.642-4.642A4.656,4.656,0,0,0,12.831,19.284Zm0,3.095C9.2,22.379,2,24.158,2,27.794v3.868H23.662V27.794C23.662,24.158,16.467,22.379,12.831,22.379Zm12.379,0a9.865,9.865,0,0,0-1.47.077,6.515,6.515,0,0,1,3.017,5.338v3.868h9.284V27.794C36.041,24.158,28.846,22.379,25.21,22.379Z" transform="translate(890.959 298)"/></g></svg>