<svg xmlns="http://www.w3.org/2000/svg" viewBox="1537 -2132 48 48"><defs><style>.a{fill:none;}.b{fill:rgba(0,0,0,0.87);}</style></defs><g transform="translate(1361 -2417)"><path class="a" d="M0,0H48V48H0Z" transform="translate(176 285)"/><path class="b" d="M32,22a6,6,0,1,0-6-6A6.018,6.018,0,0,0,32,22ZM16,22a6,6,0,1,0-6-6A6.018,6.018,0,0,0,16,22Zm0,4c-4.7,0-14,2.3-14,7v5H30V33C30,28.3,20.7,26,16,26Zm16,0a12.751,12.751,0,0,0-1.9.1C32.4,27.8,34,30,34,33v5H46V33C46,28.3,36.7,26,32,26Z" transform="translate(176 285)"/></g></svg>