<?xml version="1.0" encoding="UTF-8" standalone="no"?>
<!-- Generator: Adobe Illustrator 21.1.0, SVG Export Plug-In . SVG Version: 6.00 Build 0)  -->

<svg
   xmlns:dc="http://purl.org/dc/elements/1.1/"
   xmlns:cc="http://creativecommons.org/ns#"
   xmlns:rdf="http://www.w3.org/1999/02/22-rdf-syntax-ns#"
   xmlns:svg="http://www.w3.org/2000/svg"
   xmlns="http://www.w3.org/2000/svg"
   xmlns:sodipodi="http://sodipodi.sourceforge.net/DTD/sodipodi-0.dtd"
   xmlns:inkscape="http://www.inkscape.org/namespaces/inkscape"
   version="1.1"
   id="Capa_1"
   x="0px"
   y="0px"
   viewBox="0 0 427.5 427.5"
   style="enable-background:new 0 0 427.5 427.5;"
   xml:space="preserve"
   sodipodi:docname="down-black.svg"
   inkscape:version="0.92.1 r15371"><metadata
     id="metadata11"><rdf:RDF><cc:Work
         rdf:about=""><dc:format>image/svg+xml</dc:format><dc:type
           rdf:resource="http://purl.org/dc/dcmitype/StillImage" /></cc:Work></rdf:RDF></metadata><defs
     id="defs9" /><sodipodi:namedview
     pagecolor="#ffffff"
     bordercolor="#666666"
     borderopacity="1"
     objecttolerance="10"
     gridtolerance="10"
     guidetolerance="10"
     inkscape:pageopacity="0"
     inkscape:pageshadow="2"
     inkscape:window-width="1385"
     inkscape:window-height="1015"
     id="namedview7"
     showgrid="true"
     inkscape:zoom="1.2405924"
     inkscape:cx="297.7564"
     inkscape:cy="206.05"
     inkscape:window-x="2983"
     inkscape:window-y="87"
     inkscape:window-maximized="0"
     inkscape:current-layer="Capa_1"><inkscape:grid
       type="xygrid"
       id="grid3683" /></sodipodi:namedview><g
     id="g4"
     transform="translate(-82.8)"><path
       d="m 405.9,290.3 -103.8,135 c -1,1.4 -2.7,2.1 -4.4,2.1 -1.7,0 -3.3,-0.8 -4.4,-2.1 l -103.8,-135 c -0.8,-1 -1.1,-2.2 -1.1,-3.4 0,-1.2 0.4,-2.3 1.1,-3.3 1.5,-2 4.1,-2.7 6.4,-1.8 L 264.7,309 V 21 c 0,-3 2.5,-5.5 5.5,-5.5 h 55.1 c 3,0 5.5,2.5 5.5,5.5 v 287.9 l 68.8,-27.2 c 2.3,-0.9 4.9,-0.2 6.4,1.8 1.5,2.1 1.5,4.8 -0.1,6.8 z"
       id="path2"
       inkscape:connector-curvature="0" /></g></svg>