<?xml version="1.0" encoding="UTF-8" standalone="no"?>
<!-- Generator: Adobe Illustrator 21.1.0, SVG Export Plug-In . SVG Version: 6.00 Build 0)  -->

<svg
   xmlns:dc="http://purl.org/dc/elements/1.1/"
   xmlns:cc="http://creativecommons.org/ns#"
   xmlns:rdf="http://www.w3.org/1999/02/22-rdf-syntax-ns#"
   xmlns:svg="http://www.w3.org/2000/svg"
   xmlns="http://www.w3.org/2000/svg"
   xmlns:sodipodi="http://sodipodi.sourceforge.net/DTD/sodipodi-0.dtd"
   xmlns:inkscape="http://www.inkscape.org/namespaces/inkscape"
   version="1.1"
   id="Capa_1"
   x="0px"
   y="0px"
   viewBox="0 0 427.5 427.5"
   style="enable-background:new 0 0 427.5 427.5;"
   xml:space="preserve"
   sodipodi:docname="down-gray.svg"
   inkscape:version="0.92.1 r15371"><metadata
     id="metadata11"><rdf:RDF><cc:Work
         rdf:about=""><dc:format>image/svg+xml</dc:format><dc:type
           rdf:resource="http://purl.org/dc/dcmitype/StillImage" /><dc:title></dc:title></cc:Work></rdf:RDF></metadata><defs
     id="defs9" /><sodipodi:namedview
     pagecolor="#ffffff"
     bordercolor="#666666"
     borderopacity="1"
     objecttolerance="10"
     gridtolerance="10"
     guidetolerance="10"
     inkscape:pageopacity="0"
     inkscape:pageshadow="2"
     inkscape:window-width="1385"
     inkscape:window-height="1015"
     id="namedview7"
     showgrid="true"
     inkscape:zoom="1.2405924"
     inkscape:cx="283.65024"
     inkscape:cy="206.05"
     inkscape:window-x="189"
     inkscape:window-y="7"
     inkscape:window-maximized="0"
     inkscape:current-layer="Capa_1"><inkscape:grid
       type="xygrid"
       id="grid3683" /></sodipodi:namedview><g
     id="g4"
     transform="translate(-82.8)"><path
       d="m 405.9,290.3 -103.8,135 c -1,1.4 -2.7,2.1 -4.4,2.1 -1.7,0 -3.3,-0.8 -4.4,-2.1 l -103.8,-135 c -0.8,-1 -1.1,-2.2 -1.1,-3.4 0,-1.2 0.4,-2.3 1.1,-3.3 1.5,-2 4.1,-2.7 6.4,-1.8 L 264.7,309 V 21 c 0,-3 2.5,-5.5 5.5,-5.5 h 55.1 c 3,0 5.5,2.5 5.5,5.5 v 287.9 l 68.8,-27.2 c 2.3,-0.9 4.9,-0.2 6.4,1.8 1.5,2.1 1.5,4.8 -0.1,6.8 z"
       id="path2"
       inkscape:connector-curvature="0" /></g><path
     style="fill:#b3b3b3;fill-opacity:1;stroke-width:0.99999994"
     d="m 213.29758,426.75925 c -0.78869,-0.20522 -25.18228,-31.25831 -54.20798,-69.00687 -38.49865,-50.06834 -52.774,-69.19704 -52.774,-70.71619 0,-2.49594 1.42466,-4.48902 3.6273,-5.07453 0.98849,-0.26277 15.1763,4.94135 36.67603,13.45283 l 35.06389,13.88139 0.40303,-145.29737 c 0.35846,-129.226394 0.53996,-145.434287 1.64093,-146.53521 1.06836,-1.068325 5.30946,-1.237836 30.97008,-1.237836 26.53496,0 29.89072,0.143454 31.2063,1.33403 1.41766,1.282966 1.47408,6.883056 1.47408,146.301076 0,112.68332 0.21667,144.96704 0.97294,144.96704 0.53512,0 16.6944,-6.22394 35.90953,-13.83097 l 34.93659,-13.83098 2.17712,1.63871 c 1.48357,1.11667 2.17584,2.37711 2.17312,3.95665 -0.003,1.82756 -11.0407,16.67276 -52.17038,70.16765 -46.544,60.53698 -54.6293,70.6469 -56.21942,70.29722 -0.23386,-0.0514 -1.07048,-0.26142 -1.85916,-0.46664 z"
     id="path3679"
     inkscape:connector-curvature="0" /></svg>