<?xml version="1.0" encoding="UTF-8" standalone="no"?>
<!-- Generator: Adobe Illustrator 17.0.0, SVG Export Plug-In . SVG Version: 6.00 Build 0)  -->

<svg
   xmlns:dc="http://purl.org/dc/elements/1.1/"
   xmlns:cc="http://creativecommons.org/ns#"
   xmlns:rdf="http://www.w3.org/1999/02/22-rdf-syntax-ns#"
   xmlns:svg="http://www.w3.org/2000/svg"
   xmlns="http://www.w3.org/2000/svg"
   xmlns:sodipodi="http://sodipodi.sourceforge.net/DTD/sodipodi-0.dtd"
   xmlns:inkscape="http://www.inkscape.org/namespaces/inkscape"
   version="1.1"
   id="Слой_1"
   x="0px"
   y="0px"
   width="1000px"
   height="1000px"
   viewBox="0 0 1000 1000"
   enable-background="new 0 0 1000 1000"
   xml:space="preserve"
   sodipodi:docname="edit.svg"
   inkscape:version="0.92.1 r15371"><metadata
     id="metadata9"><rdf:RDF><cc:Work
         rdf:about=""><dc:format>image/svg+xml</dc:format><dc:type
           rdf:resource="http://purl.org/dc/dcmitype/StillImage" /><dc:title /></cc:Work></rdf:RDF></metadata><defs
     id="defs7" /><sodipodi:namedview
     pagecolor="#ffff21"
     bordercolor="#666666"
     borderopacity="1"
     objecttolerance="10"
     gridtolerance="10"
     guidetolerance="10"
     inkscape:pageopacity="0"
     inkscape:pageshadow="2"
     inkscape:window-width="1984"
     inkscape:window-height="1069"
     id="namedview5"
     showgrid="false"
     inkscape:zoom="0.87996744"
     inkscape:cx="457.96605"
     inkscape:cy="497.74569"
     inkscape:window-x="0"
     inkscape:window-y="0"
     inkscape:window-maximized="0"
     inkscape:current-layer="Слой_1" /><path
     d="M968.161,31.839c36.456,36.456,36.396,95.547,0,132.003l-43.991,43.991L792.138,75.83l43.991-43.991  C872.583-4.586,931.704-4.617,968.161,31.839z M308.238,559.79l-43.96,175.963l175.963-43.991l439.938-439.938L748.147,119.821  L308.238,559.79z M746.627,473.387v402.175H124.438V253.373h402.204l124.407-124.438H0V1000h871.064V348.918L746.627,473.387z"
     id="path2" /><path
     style="fill:#ffffff;fill-opacity:1;stroke-width:1"
     d="M 0.90368874,564.4157 V 129.74053 H 325.05947 649.21524 l -61.35802,61.36591 -61.35802,61.3659 H 325.06735 123.6355 V 564.4157 876.35906 H 435.57886 747.52222 V 674.92721 473.49536 l 61.36591,-61.35802 61.3659,-61.35802 V 674.9351 999.09088 H 435.57886 0.90368874 Z"
     id="path3681"
     inkscape:connector-curvature="0" /><path
     style="fill:#ffffff;fill-opacity:1;stroke-width:1"
     d="m 265.71923,732.88784 c 0.0182,-0.78127 9.6934,-39.98836 21.50054,-87.12687 l 21.46752,-85.70635 219.6992,-219.7014 219.69919,-219.70139 65.63146,65.62413 65.63145,65.62413 -219.70335,219.70335 -219.70334,219.70334 -85.70734,21.46778 c -47.13903,11.80726 -86.34656,21.48262 -87.12784,21.50078 -0.78128,0.0182 -1.40565,-0.60622 -1.38749,-1.3875 z"
     id="path3683"
     inkscape:connector-curvature="0" /><path
     style="fill:#ffffff;fill-opacity:1;stroke-width:1"
     d="M 858.58036,141.38159 792.92742,75.702938 818.80616,50.095165 C 833.03947,36.010889 847.62899,22.57047 851.22732,20.227569 880.50293,1.1659545 917.514,0.16168362 948.66603,17.583634 c 11.50656,6.435108 27.30979,22.238344 33.7449,33.744904 13.47565,24.095692 16.05237,51.361672 7.26991,76.927742 -5.74863,16.73448 -11.57067,24.47987 -39.78526,52.92866 l -25.66228,25.87528 z"
     id="path3685"
     inkscape:connector-curvature="0" /><path
     style="fill:#000000;fill-opacity:1;stroke-width:1"
     d="M 1.4718881,564.4157 V 129.74053 H 325.05946 648.64704 l -61.35802,61.3659 -61.35802,61.36591 H 324.49915 123.0673 V 564.4157 876.35906 H 435.57886 748.09042 V 674.92718 473.49528 l 60.79771,-60.78974 60.7977,-60.78974 V 675.50333 999.09087 H 435.57886 1.4718881 Z"
     id="path3680"
     inkscape:connector-curvature="0" /><path
     style="fill:#000000;fill-opacity:1;stroke-width:1"
     d="m 266.79743,730.61503 c 0.32247,-1.4063 10.00319,-40.35376 21.5127,-86.5499 l 20.92638,-83.993 219.42529,-219.42529 219.42528,-219.42528 65.34631,65.33889 65.34629,65.33888 -219.57351,219.57572 -219.57351,219.57571 -84.86278,21.06059 c -46.67452,11.58332 -85.69437,21.06059 -86.71077,21.06059 -1.33256,0 -1.68447,-0.71316 -1.26168,-2.55691 z"
     id="path3682"
     inkscape:connector-curvature="0" /><path
     style="fill:#000000;fill-opacity:1;stroke-width:1"
     d="M 858.50433,140.71896 793.35096,75.558201 817.59743,52.157667 c 29.78624,-28.747039 33.28849,-31.660335 44.70176,-37.184588 11.83929,-5.7304471 20.23354,-7.903912 33.76494,-8.7425136 12.67219,-0.785353 24.42623,0.7768948 36.34473,4.8306366 13.86761,4.716681 22.16157,10.129371 34.53703,22.539123 9.86462,9.891932 12.20149,12.996219 16.77324,22.281434 7.50348,15.239581 10.05566,25.909382 10.05566,42.039409 0,22.394072 -6.92977,41.550052 -20.97493,57.981032 -8.3134,9.72559 -47.30158,49.97751 -48.40841,49.97751 -0.40358,0 -30.05277,-29.32234 -65.88712,-65.16075 z"
     id="path3684"
     inkscape:connector-curvature="0" /><path
     style="fill:#ffffff;fill-opacity:1;stroke-width:1"
     d="M 2.0400904,564.4157 V 129.74053 H 325.05946 648.07883 l -61.35802,61.3659 -61.35802,61.36591 H 323.93094 122.49909 V 564.4157 876.35906 H 435.57886 748.65862 V 674.92713 473.4952 l 60.22951,-60.22146 60.2295,-60.22145 V 676.07158 999.09087 H 435.57886 2.0400904 Z"
     id="path3686"
     inkscape:connector-curvature="0" /><path
     style="fill:#ffffff;fill-opacity:1;stroke-width:1"
     d="m 274.28114,702.77309 c 3.92621,-16.09434 13.53035,-54.79093 21.34252,-85.99242 l 14.20394,-56.72996 219.12902,-219.13122 219.12903,-219.13123 65.06292,65.05554 65.0629,65.05553 -219.3865,219.38871 -219.3865,219.3887 -84.31922,20.71691 c -46.37557,11.3943 -85.14215,20.70004 -86.14795,20.6794 -1.54673,-0.0317 -0.7279,-4.55004 5.30984,-29.29996 z"
     id="path3688"
     inkscape:connector-curvature="0" /><path
     style="fill:#ffffff;fill-opacity:1;stroke-width:1"
     d="M 858.77349,140.34282 793.85692,75.761257 810.74787,59.475875 c 31.9106,-30.766559 41.1215,-38.622631 50.95265,-43.458043 14.80213,-7.2803686 25.40592,-9.3940745 43.72548,-8.716016 27.08956,1.002661 40.27503,6.890906 60.32805,26.940763 11.33913,11.337332 13.74021,14.413705 17.77023,22.767984 6.88623,14.275263 8.46567,20.469693 9.14632,35.871465 0.96055,21.735202 -3.13372,37.725092 -13.74774,53.690852 -4.95366,7.45136 -50.99125,56.96793 -53.82478,57.89221 -0.77441,0.25261 -30.62048,-28.60241 -66.32459,-64.12227 z"
     id="path3690"
     inkscape:connector-curvature="0" /></svg>