<?xml version="1.0" encoding="UTF-8" standalone="no"?>
<!-- Generator: Adobe Illustrator 18.1.1, SVG Export Plug-In . SVG Version: 6.00 Build 0)  -->

<svg
   xmlns:dc="http://purl.org/dc/elements/1.1/"
   xmlns:cc="http://creativecommons.org/ns#"
   xmlns:rdf="http://www.w3.org/1999/02/22-rdf-syntax-ns#"
   xmlns:svg="http://www.w3.org/2000/svg"
   xmlns="http://www.w3.org/2000/svg"
   xmlns:sodipodi="http://sodipodi.sourceforge.net/DTD/sodipodi-0.dtd"
   xmlns:inkscape="http://www.inkscape.org/namespaces/inkscape"
   version="1.1"
   id="Capa_1"
   x="0px"
   y="0px"
   viewBox="0 0 450.546 450.546"
   style="enable-background:new 0 0 450.546 450.546;"
   xml:space="preserve"
   sodipodi:docname="exit.svg"
   inkscape:version="0.92.1 r15371"><metadata
     id="metadata47"><rdf:RDF><cc:Work
         rdf:about=""><dc:format>image/svg+xml</dc:format><dc:type
           rdf:resource="http://purl.org/dc/dcmitype/StillImage" /><dc:title></dc:title></cc:Work></rdf:RDF></metadata><defs
     id="defs45" /><sodipodi:namedview
     pagecolor="#ffff28"
     bordercolor="#666666"
     borderopacity="1"
     objecttolerance="10"
     gridtolerance="10"
     guidetolerance="10"
     inkscape:pageopacity="0"
     inkscape:pageshadow="2"
     inkscape:window-width="2400"
     inkscape:window-height="1321"
     id="namedview43"
     showgrid="false"
     inkscape:zoom="3.4674831"
     inkscape:cx="225.273"
     inkscape:cy="225.27299"
     inkscape:window-x="-9"
     inkscape:window-y="-9"
     inkscape:window-maximized="1"
     inkscape:current-layer="Capa_1" /><g
     id="g10"><g
       id="g4"><path
         style="fill:#010002;"
         d="M88.93,317.828c-6.396,0-12.393-2.488-16.892-6.999L6.993,245.76    c-2.166-2.112-3.974-4.821-5.185-7.781C0.609,235.044,0,231.983,0,228.886c0-3.055,0.591-6.068,1.742-8.956    c1.331-3.186,3.085-5.812,5.4-8.079l64.914-64.92c9.028-9.004,24.679-9.01,33.731-0.042c9.308,9.344,9.32,24.494,0.06,33.796    l-24.333,24.327h222.266c13.169,0,23.879,10.711,23.879,23.879c0,13.163-10.711,23.867-23.879,23.867H81.513l24.303,24.297    c9.261,9.326,9.267,24.47,0.03,33.749C101.294,315.346,95.297,317.828,88.93,317.828z"
         id="path2" /></g><g
       id="g8"><polygon
         style="fill:#010002;"
         points="450.546,387.927 125.239,387.927 125.239,258.726 137.172,258.726 137.172,375.993     438.613,375.993 438.613,74.553 137.172,74.553 137.172,199.046 125.239,199.046 125.239,62.619 450.546,62.619   "
         id="polygon6" /></g></g><g
     id="g12" /><g
     id="g14" /><g
     id="g16" /><g
     id="g18" /><g
     id="g20" /><g
     id="g22" /><g
     id="g24" /><g
     id="g26" /><g
     id="g28" /><g
     id="g30" /><g
     id="g32" /><g
     id="g34" /><g
     id="g36" /><g
     id="g38" /><g
     id="g40" /><path
     style="fill:#ffffff;fill-opacity:1;stroke-width:1"
     d="M 125.48881,323.35567 V 258.8997 h 5.76787 5.76787 v 58.5439 58.5439 H 287.85441 438.68428 V 225.15764 74.327781 H 287.85441 137.02455 v 62.293019 62.29302 h -5.76787 -5.76787 V 130.85293 62.792036 h 162.5098 162.5098 v 162.509804 162.5098 h -162.5098 -162.5098 z"
     id="path3719"
     inkscape:connector-curvature="0" /><path
     style="fill:#ffffff;fill-opacity:1;stroke-width:1"
     d="m 84.681112,317.31839 c -3.728445,-0.74131 -6.568214,-1.95557 -9.51699,-4.06939 -2.650827,-1.90023 -69.9327181,-69.4027 -71.2360534,-71.4696 -2.4997618,-3.96425 -3.69501163,-8.13503 -3.68900029,-12.87264 0.00646,-5.09145 1.20226159,-9.10285 3.92601489,-13.17009 0.9459017,-1.41247 11.1052728,-11.74153 35.8709518,-36.47008 36.497856,-36.44315 35.45933,-35.47373 39.900967,-37.24599 4.529839,-1.80746 11.174964,-2.15244 15.703067,-0.81522 7.778381,2.29708 13.544491,7.96792 16.011751,15.74717 0.97385,3.07056 1.12747,8.94547 0.32208,12.31708 -0.7363,3.08235 -1.91447,5.73385 -3.66971,8.25875 -0.80361,1.15599 -6.42395,6.98337 -14.136774,14.65756 -7.041557,7.00628 -12.802831,12.81283 -12.802831,12.90346 0,0.0906 51.099745,0.19819 113.554985,0.23903 l 113.55499,0.0743 2.01875,0.68199 c 8.59765,2.90452 14.46972,9.22061 16.44346,17.68682 0.69693,2.98954 0.64104,7.78654 -0.1254,10.75895 -1.25338,4.86089 -4.2166,9.54451 -8.05068,12.72481 -2.05892,1.70783 -6.0267,3.78454 -8.84416,4.62898 -1.651,0.49483 -6.93454,0.52221 -115.20096,0.59687 l -113.470596,0.0783 12.99482,13.04765 c 8.013306,8.04588 13.465996,13.75108 14.223926,14.88264 2.78152,4.15265 4.04334,8.34998 4.04334,13.44987 0,9.3689 -5.03665,17.39467 -13.415978,21.37801 -1.432886,0.68116 -3.444432,1.44176 -4.470101,1.69023 -2.672887,0.64749 -7.488636,0.79799 -9.939869,0.31063 z"
     id="path3721"
     inkscape:connector-curvature="0" /></svg>