<svg xmlns="http://www.w3.org/2000/svg" viewBox="0 0 14 14"><defs><style>.cls-1{fill:none;}</style></defs><title>Asset 3</title><g id="Layer_2" data-name="Layer 2"><g id="Layer_1-2" data-name="Layer 1"><rect class="cls-1" width="14" height="14"/><path d="M6.56,4.73C7.07,2.4,8.27,1,9.79,1c.87,0,1.52.51,1.52,1.2a.79.79,0,0,1-.83.84.67.67,0,0,1-.73-.69A.7.7,0,0,1,10,1.84c.08-.08.12-.12.12-.18s-.14-.21-.35-.21A.89.89,0,0,0,9.06,2a8.88,8.88,0,0,0-.68,2.76H10l-.12.61H8.29L7.91,7.46C7.26,11.18,6.06,13,4.21,13c-.91,0-1.52-.48-1.52-1.2a.78.78,0,0,1,.79-.83.7.7,0,0,1,.73.69.83.83,0,0,1-.25.53c-.11.11-.14.17-.14.23s.11.18.35.18a.62.62,0,0,0,.53-.21,4.63,4.63,0,0,0,.76-2l1-5H5l.11-.61Z"/></g></g></svg>