<?xml version="1.0" encoding="UTF-8" standalone="no"?>
<!-- Generator: Adobe Illustrator 16.0.0, SVG Export Plug-In . SVG Version: 6.00 Build 0)  -->

<svg
   xmlns:dc="http://purl.org/dc/elements/1.1/"
   xmlns:cc="http://creativecommons.org/ns#"
   xmlns:rdf="http://www.w3.org/1999/02/22-rdf-syntax-ns#"
   xmlns:svg="http://www.w3.org/2000/svg"
   xmlns="http://www.w3.org/2000/svg"
   xmlns:sodipodi="http://sodipodi.sourceforge.net/DTD/sodipodi-0.dtd"
   xmlns:inkscape="http://www.inkscape.org/namespaces/inkscape"
   version="1.1"
   id="Capa_1"
   x="0px"
   y="0px"
   width="394.206px"
   height="394.206px"
   viewBox="0 0 394.206 394.206"
   style="enable-background:new 0 0 394.206 394.206;"
   xml:space="preserve"
   sodipodi:docname="filter.svg"
   inkscape:version="0.92.1 r15371"><metadata
     id="metadata43"><rdf:RDF><cc:Work
         rdf:about=""><dc:format>image/svg+xml</dc:format><dc:type
           rdf:resource="http://purl.org/dc/dcmitype/StillImage" /><dc:title></dc:title></cc:Work></rdf:RDF></metadata><defs
     id="defs41" /><sodipodi:namedview
     pagecolor="#ffff79"
     bordercolor="#666666"
     borderopacity="1"
     objecttolerance="10"
     gridtolerance="10"
     guidetolerance="10"
     inkscape:pageopacity="0"
     inkscape:pageshadow="2"
     inkscape:window-width="1288"
     inkscape:window-height="875"
     id="namedview39"
     showgrid="false"
     inkscape:zoom="1.7300599"
     inkscape:cx="197.103"
     inkscape:cy="197.10299"
     inkscape:window-x="0"
     inkscape:window-y="0"
     inkscape:window-maximized="0"
     inkscape:current-layer="Capa_1" /><g
     id="g6"><g
       id="g4"><path
         style="fill:#030303;"
         d="M167.827,394.206V161.611L38.537,0h317.132l-129.29,161.611v152.085L167.827,394.206z     M62.907,11.71L179.537,157.5v200.694l35.132-48.307V157.5L331.299,11.71H62.907z"
         id="path2" /></g></g><g
     id="g8" /><g
     id="g10" /><g
     id="g12" /><g
     id="g14" /><g
     id="g16" /><g
     id="g18" /><g
     id="g20" /><g
     id="g22" /><g
     id="g24" /><g
     id="g26" /><g
     id="g28" /><g
     id="g30" /><g
     id="g32" /><g
     id="g34" /><g
     id="g36" /><path
     style="fill:#ffffff;fill-opacity:1;stroke-width:0.99999994"
     d="M 167.97106,277.41289 V 161.35193 L 103.52116,80.791566 39.071256,0.23120587 H 196.87053 c 86.78959,0 157.79927,0.13076801 157.79927,0.2905956 0,0.15982764 -28.87184,36.37947553 -64.15963,80.48810953 l -64.15963,80.197509 v 76.04599 76.04599 l -28.96761,39.84638 c -15.93218,21.91551 -29.06756,39.95477 -29.18974,40.08723 -0.12217,0.13246 -0.22213,-51.98659 -0.22213,-115.82012 z m 29.42979,56.68913 17.3894,-23.92027 V 233.9605 157.73925 l 58.37948,-72.972134 c 32.10871,-40.134669 58.37948,-73.102966 58.37948,-73.262879 0,-0.159914 -60.47478,-0.290753 -134.38841,-0.290753 -73.91362,0 -134.388408,0.162219 -134.388408,0.360487 0,0.198268 26.270767,33.19964 58.379478,73.336383 l 58.37948,72.975896 v 100.06802 c 0,55.0374 0.10803,100.06801 0.24005,100.06801 0.13203,0 8.06529,-10.76412 17.62945,-23.92026 z"
     id="path3715"
     inkscape:connector-curvature="0" /></svg>