<?xml version="1.0" encoding="UTF-8" standalone="no"?>
<!-- Generator: Adobe Illustrator 16.0.0, SVG Export Plug-In . SVG Version: 6.00 Build 0)  -->

<svg
   xmlns:dc="http://purl.org/dc/elements/1.1/"
   xmlns:cc="http://creativecommons.org/ns#"
   xmlns:rdf="http://www.w3.org/1999/02/22-rdf-syntax-ns#"
   xmlns:svg="http://www.w3.org/2000/svg"
   xmlns="http://www.w3.org/2000/svg"
   xmlns:sodipodi="http://sodipodi.sourceforge.net/DTD/sodipodi-0.dtd"
   xmlns:inkscape="http://www.inkscape.org/namespaces/inkscape"
   version="1.1"
   id="Capa_1"
   x="0px"
   y="0px"
   width="95.177px"
   height="95.177px"
   viewBox="0 0 95.177 95.177"
   style="enable-background:new 0 0 95.177 95.177;"
   xml:space="preserve"
   sodipodi:docname="formula.svg"
   inkscape:version="0.92.1 r15371"><metadata
     id="metadata41"><rdf:RDF><cc:Work
         rdf:about=""><dc:format>image/svg+xml</dc:format><dc:type
           rdf:resource="http://purl.org/dc/dcmitype/StillImage" /><dc:title></dc:title></cc:Work></rdf:RDF></metadata><defs
     id="defs39" /><sodipodi:namedview
     pagecolor="#ffff11"
     bordercolor="#666666"
     borderopacity="1"
     objecttolerance="10"
     gridtolerance="10"
     guidetolerance="10"
     inkscape:pageopacity="0"
     inkscape:pageshadow="2"
     inkscape:window-width="1653"
     inkscape:window-height="918"
     id="namedview37"
     showgrid="false"
     inkscape:zoom="2.4795906"
     inkscape:cx="40.530884"
     inkscape:cy="47.588501"
     inkscape:window-x="0"
     inkscape:window-y="0"
     inkscape:window-maximized="0"
     inkscape:current-layer="Capa_1" /><g
     id="g4"><path
       d="M93.779,63.676c-0.981-1.082-2.24-1.653-3.639-1.653c-1.145,0-3.953,0.396-5.318,4.062   c-0.344,0.922-0.443,1.413-0.907,1.363c-0.786-0.078-3.845-3.346-4.845-8.145l-2.482-11.6c1.961-3.177,3.977-5.629,5.988-7.292   c1.08-0.882,2.314-1.349,3.808-1.43c3.815-0.26,5.203-0.74,6.14-1.399c1.547-1.115,2.397-2.728,2.397-4.542   c0-1.596-0.604-3.019-1.75-4.115c-1.106-1.059-2.581-1.618-4.26-1.618c-2.468,0-5.239,1.142-8.474,3.49   c-1.91,1.388-3.935,3.406-6.121,6.111c-0.711-2.653-1.319-3.889-1.771-4.628c-1.396-2.303-3.664-2.303-4.41-2.303l-0.813,0.013   l-23.045,0.544l1.297-5.506c0.828-3.593,1.915-6.436,3.226-8.45c0.638-0.98,1.614-2.148,2.638-2.148   c0.387,0,1.152,0.063,2.582,0.36c3.978,0.86,5.465,0.959,6.239,0.959c1.708,0,3.21-0.571,4.347-1.651   c1.176-1.119,1.797-2.583,1.797-4.233c0-1.29-0.424-3.156-2.445-4.722c-1.396-1.081-3.311-1.629-5.691-1.629   c-3.568,0-7.349,1.141-11.241,3.39c-3.862,2.232-7.038,5.317-9.438,9.171c-2.105,3.379-3.929,8.124-5.555,14.459H21.877   l-2.238,8.831h10.186l-7.74,31.116c-1.603,6.443-2.777,8.028-3.098,8.361c-0.875,0.904-2.68,1.094-4.04,1.094   c-1.683,0-3.477-0.121-5.349-0.361c-1.286-0.157-2.265-0.234-2.991-0.234c-1.878,0-3.423,0.488-4.59,1.448   C0.716,81.858,0,83.403,0,85.14c0,1.357,0.44,3.309,2.539,4.895c1.434,1.08,3.389,1.628,5.813,1.628   c6.069,0,11.725-2.411,16.813-7.165c4.947-4.624,8.571-11.413,10.773-20.195l6.119-24.935l20.87,0.354l2.244,9.64l-4.573,6.748   c-0.824,1.209-2.051,2.701-3.658,4.441c-0.84,0.92-1.398,1.426-1.721,1.689c-1.316-1.608-2.809-2.424-4.432-2.424   c-1.525,0-2.91,0.625-4.002,1.804c-1.036,1.116-1.583,2.514-1.583,4.038c0,1.83,0.783,3.459,2.264,4.709   c1.357,1.146,3.034,1.728,4.981,1.728c2.414,0,4.884-0.921,7.344-2.737c2.053-1.519,4.697-4.526,8.074-9.189   c2.17,6.24,5.248,10.252,6.714,11.927c2.313,2.644,6.049,4.22,9.993,4.22c3.348,0,5.244-1.402,6.916-2.641l0.148-0.109   c2.926-2.164,3.54-4.545,3.54-6.166C95.174,65.965,94.691,64.679,93.779,63.676z"
       id="path2" /></g><g
     id="g6" /><g
     id="g8" /><g
     id="g10" /><g
     id="g12" /><g
     id="g14" /><g
     id="g16" /><g
     id="g18" /><g
     id="g20" /><g
     id="g22" /><g
     id="g24" /><g
     id="g26" /><g
     id="g28" /><g
     id="g30" /><g
     id="g32" /><g
     id="g34" /><path
     style="fill:#ffffff;fill-opacity:1;stroke-width:1"
     d="M 4.8207672,90.94048 C 1.0700298,89.733434 -0.68168455,86.238305 0.79311851,82.90427 2.0169361,80.137628 3.3387693,79.610783 8.5094692,79.828755 18.281447,80.240698 18.842473,80.099368 20.23864,76.874021 c 0.783595,-1.810222 9.61194,-35.938344 9.636059,-37.250545 0.0069,-0.376616 -1.252145,-0.504115 -4.97819,-0.504115 h -4.987456 l 1.040383,-4.23457 1.040383,-4.23457 h 5.094788 5.094789 l 0.902114,-3.125516 c 2.167006,-7.507934 4.973537,-12.678607 8.953163,-16.495055 7.921679,-7.5968624 19.442431,-9.69791 23.162001,-4.2240697 1.787609,2.6307024 0.938574,6.4981727 -1.720784,7.8384147 -2.067999,1.042212 -3.238111,1.086034 -7.799864,0.292113 -3.196814,-0.556368 -4.753503,-0.669464 -5.286736,-0.384086 -1.766122,0.945198 -4.235477,6.740059 -5.714786,13.410935 l -0.611424,2.757183 12.978691,-0.291658 12.978695,-0.291658 1.245686,1.048175 c 1.037671,0.873144 1.95744,2.649669 2.789351,5.387604 0.07987,0.262864 1.561915,-0.935029 3.293435,-2.661986 6.092264,-6.076202 11.91827,-7.983933 15.409846,-5.045966 2.408333,2.026477 2.603462,5.611535 0.42405,7.790946 -1.197173,1.197174 -2.913013,1.73032 -7.312026,2.271994 -1.226738,0.151056 -2.406373,0.646035 -3.37596,1.416566 -1.451244,1.153303 -5.078137,5.405496 -5.772175,6.767338 -0.45501,0.892817 2.397077,13.900726 3.538338,16.137781 0.984611,1.929996 3.216971,4.586696 3.712541,4.418245 0.187777,-0.06382 0.752777,-0.922092 1.255554,-1.907254 1.23334,-2.416649 2.734858,-3.451594 5.007633,-3.451594 1.592537,0 1.991845,0.191628 3.242087,1.555882 1.34717,1.470013 1.41667,1.682907 1.259366,3.857649 -0.208369,2.880673 -1.163092,4.284477 -4.3705,6.426302 -3.87301,2.586298 -8.057955,2.631834 -12.645434,0.137592 -2.942248,-1.599716 -7.107246,-7.327081 -8.930071,-12.279894 -0.387762,-1.053602 -0.816482,-1.90834 -0.952706,-1.899423 -0.136224,0.0089 -1.042523,1.081892 -2.013998,2.384386 -4.687947,6.285291 -9.023836,9.300265 -13.357144,9.287924 -4.123326,-0.01174 -7.010936,-2.629035 -6.955374,-6.304262 0.06799,-4.497819 5.07268,-7.01265 8.30602,-4.173742 l 1.378712,1.210527 2.381679,-2.546025 c 1.309926,-1.400312 3.603825,-4.352675 5.097559,-6.560805 l 2.71588,-4.01478 -1.146637,-4.83285 L 63.099541,39.7243 52.694372,39.403028 C 46.971528,39.226329 42.19726,39.173698 42.084891,39.28607 c -0.112374,0.112373 -1.794478,6.608801 -3.738008,14.436504 -1.974858,7.953878 -4.17041,15.809203 -4.977057,17.807089 -4.764264,11.800032 -13.6929,19.227904 -23.8521258,19.842953 -1.839398,0.111361 -3.4759746,-0.0392 -4.696933,-0.432136 z"
     id="path3713"
     inkscape:connector-curvature="0" /></svg>