<svg xmlns="http://www.w3.org/2000/svg" viewBox="1468.225 7924.25 15.275 18.15">
  <defs>
    <style>
      .cls-1 {
        fill: rgba(0,0,0,0.87);
      }
    </style>
  </defs>
  <g id="Group_4091" data-name="Group 4091" transform="translate(1468.225 7924.25)">
    <g id="Group_4090" data-name="Group 4090" transform="translate(1.725 8)">
      <path id="Path_3090" data-name="Path 3090" class="cls-1" d="M20.2,28.05c0,.05,0,.15-.15.15s-.65-.05-1.4-.05c-.9,0-1.2.05-1.4.05-.15,0-.15-.05-.15-.15V27.7c0-.1,0-.15.15-.15h.45c.4,0,.6-.05.75-.2.35-.3,2.05-2.55,2.35-2.9-.7-1.05-1.75-2.55-2.15-3A.768.768,0,0,0,18,21.2H12.05a.133.133,0,0,1-.15-.15V20.7c0-.15,0-.15.15-.15s6.1.05,6.95.05,1.55-.05,1.7-.05c.1,0,.1.05.1.15v.35c0,.1-.05.15-.1.15h-.15c-.3,0-.3.3-.05.6l1.15,1.8,1.4-1.8c.15-.2.1-.6-.2-.6h-.2c-.1,0-.1-.05-.1-.15v-.4c0-.1,0-.15.1-.15.2,0,.55.05,1.55.05.75,0,.9-.05,1.05-.05s.15.05.15.2v.35c0,.1,0,.15-.15.15h-.3a.9.9,0,0,0-.7.2c-.3.25-1.85,2.15-2.25,2.65.75,1.05,1.45,2.2,2.25,3.15a.972.972,0,0,0,.8.4h.3c.05,0,.1.05.1.15v.35c0,.05,0,.15-.15.15s-.5-.05-1.4-.05c-1.05,0-1.6.05-1.8.05-.15,0-.15-.05-.15-.15v-.3c0-.15,0-.2.15-.2h.25c.2,0,.3-.25.1-.6l-1.3-2.1c-.25.35-1.45,2-1.6,2.25-.1.2,0,.4.2.4h.4c.05,0,.1.05.1.15v.35Z" transform="translate(-11.9 -20.5)"/>
    </g>
    <path id="Path_3091" data-name="Path 3091" class="cls-1" d="M16.875,4.5c-4.25,0-4.2,6.7-4.2,9.25h0c0,1.6-.05,8.05-1.95,8.2-1.2.1-1-1.4-2-.9-.85.45.45,1.6,1.45,1.6,4.25,0,4.25-6.7,4.25-9.2h0c0-1.6.05-8.05,1.95-8.2,1.2-.1,1,1.4,2,.9C19.175,5.7,17.925,4.5,16.875,4.5Z" transform="translate(-8.45 -4.5)"/>
  </g>
</svg>
