<?xml version="1.0" encoding="UTF-8" standalone="no"?>
<svg
   xmlns:dc="http://purl.org/dc/elements/1.1/"
   xmlns:cc="http://creativecommons.org/ns#"
   xmlns:rdf="http://www.w3.org/1999/02/22-rdf-syntax-ns#"
   xmlns:svg="http://www.w3.org/2000/svg"
   xmlns="http://www.w3.org/2000/svg"
   xmlns:sodipodi="http://sodipodi.sourceforge.net/DTD/sodipodi-0.dtd"
   xmlns:inkscape="http://www.inkscape.org/namespaces/inkscape"
   enable-background="new 0 0 32 32"
   height="32px"
   overflow="visible"
   version="1.1"
   viewBox="0 0 32 32"
   width="32px"
   xml:space="preserve"
   id="svg5"
   sodipodi:docname="gear.svg"
   inkscape:version="0.92.1 r15371"><metadata
     id="metadata9"><rdf:RDF><cc:Work
         rdf:about=""><dc:format>image/svg+xml</dc:format><dc:type
           rdf:resource="http://purl.org/dc/dcmitype/StillImage" /><dc:title></dc:title></cc:Work></rdf:RDF></metadata><sodipodi:namedview
     pagecolor="#ffff11"
     bordercolor="#666666"
     borderopacity="1"
     objecttolerance="10"
     gridtolerance="10"
     guidetolerance="10"
     inkscape:pageopacity="0"
     inkscape:pageshadow="2"
     inkscape:window-width="931"
     inkscape:window-height="748"
     id="namedview7"
     showgrid="false"
     inkscape:zoom="17.34375"
     inkscape:cx="16.0005"
     inkscape:cy="16"
     inkscape:window-x="274"
     inkscape:window-y="52"
     inkscape:window-maximized="0"
     inkscape:current-layer="svg5" /><defs
     id="defs2" /><path
     d="M30.83,13.67l-3.17-0.529c-0.23-0.942-0.566-1.842-1.004-2.682l2.029-2.516  c0.432-0.532,0.412-1.297-0.043-1.81l-1.26-1.419c-0.457-0.513-1.215-0.621-1.793-0.256l-2.711,1.704  c-1.193-0.833-2.543-1.448-4-1.805L18.348,1.17C18.236,0.495,17.652,0,16.967,0h-1.9c-0.684,0-1.27,0.495-1.379,1.17l-0.533,3.188  c-1.205,0.295-2.334,0.771-3.365,1.398l-2.578-1.84C6.656,3.519,5.893,3.581,5.408,4.065L4.066,5.408  C3.582,5.893,3.52,6.656,3.918,7.212l1.844,2.583c-0.621,1.023-1.092,2.146-1.387,3.34L1.17,13.67C0.496,13.781,0,14.365,0,15.051  v1.898c0,0.686,0.496,1.27,1.17,1.381l3.205,0.535c0.242,0.982,0.594,1.921,1.061,2.791l-2.02,2.502  c-0.43,0.531-0.412,1.297,0.043,1.81l1.26,1.419c0.457,0.513,1.215,0.62,1.793,0.256l2.75-1.728c1.164,0.796,2.48,1.381,3.893,1.727  l0.533,3.188c0.109,0.675,0.695,1.17,1.379,1.17h1.9c0.686,0,1.27-0.495,1.381-1.17l0.531-3.188  c1.189-0.291,2.305-0.758,3.326-1.374l2.686,1.917c0.555,0.399,1.318,0.336,1.803-0.149l1.342-1.342  c0.484-0.484,0.549-1.247,0.148-1.804l-1.912-2.68c0.623-1.027,1.096-2.152,1.389-3.351l3.17-0.529  c0.676-0.111,1.17-0.695,1.17-1.381v-1.898C32,14.365,31.506,13.781,30.83,13.67z M16.051,22c-3.313,0-6-2.687-6-6s2.687-6,6-6  s6,2.687,6,6S19.364,22,16.051,22z"
     id="settings_1_" /><path
     style="fill:#ffffff;fill-opacity:1;stroke-width:1"
     d="M 14.621621,31.891626 C 14.304024,31.778129 14.0673,31.585942 13.905931,31.310587 13.787123,31.107856 13.706099,30.74582 13.473277,29.377384 13.315718,28.451318 13.186676,27.676615 13.186516,27.655822 13.186343,27.63503 12.960893,27.555764 12.685486,27.479677 11.690708,27.204848 10.293145,26.578543 9.5804063,26.088166 9.44367,25.994089 9.3034991,25.917117 9.2689154,25.917117 c -0.034584,0 -0.6655844,0.380075 -1.4022238,0.844612 C 7.1300521,27.226265 6.4133767,27.657223 6.2740792,27.719415 5.9591537,27.860019 5.470291,27.837884 5.1405288,27.66809 4.8606599,27.523987 3.4119286,25.929072 3.2619905,25.6 3.1231487,25.29528 3.1205416,24.739391 3.2567016,24.472321 3.3129819,24.36193 3.8320861,23.685714 4.4102663,22.96962 L 5.4615034,21.667628 5.2032514,21.122453 C 4.9494526,20.586678 4.4250398,19.115416 4.4235845,18.935064 4.4229737,18.859385 4.1242119,18.793961 2.7363559,18.56559 1.7162193,18.397728 0.95242643,18.243318 0.80324785,18.174787 0.5032629,18.03698 0.19812647,17.693511 0.1077754,17.391946 c -0.08989154,-0.300032 -0.08989154,-2.48386 0,-2.783892 0.0903511,-0.301565 0.3954875,-0.645034 0.69547245,-0.782841 0.14917858,-0.06853 0.91297145,-0.222941 1.93310805,-0.390803 1.387856,-0.228371 1.6866178,-0.293795 1.6872286,-0.369474 4.093e-4,-0.05058 0.1145007,-0.42926 0.2535392,-0.841513 0.2544378,-0.754414 0.6280691,-1.597811 0.9459566,-2.135307 L 5.7947481,9.7978551 4.8026441,8.4077699 C 3.62748,6.7611901 3.5515718,6.5795396 3.7691532,5.9345955 3.8482271,5.7002083 4.0115428,5.5015688 4.7017764,4.8002538 5.2433071,4.250029 5.6306502,3.9054669 5.7996052,3.8236772 6.1319998,3.6627677 6.670271,3.6531353 6.9570867,3.8029641 7.0665964,3.8601707 7.7489587,4.3296375 8.4734473,4.8462236 L 9.7906994,5.7854714 10.196131,5.5517226 c 0.222987,-0.1285617 0.6563,-0.3438947 0.962918,-0.4785177 0.563643,-0.2474717 1.778983,-0.6623941 1.940205,-0.6623941 0.04815,0 0.08755,-0.023499 0.08755,-0.052219 0,-0.02872 0.129359,-0.8125387 0.287465,-1.7418186 0.326517,-1.91914166 0.382935,-2.07008234 0.891314,-2.38461836 l 0.282036,-0.17449718 1.282244,-0.01832569 c 1.214293,-0.01735451 1.297829,-0.01162143 1.576319,0.10818165 0.303075,0.13037913 0.598898,0.41367839 0.710599,0.68051325 0.03503,0.0836843 0.195455,0.91591333 0.356498,1.84939763 l 0.292805,1.6972444 0.605405,0.1808998 c 1.070716,0.3199384 2.067685,0.7734889 2.926658,1.3314223 l 0.476208,0.3093143 1.3313,-0.8368291 C 25.89136,4.299876 25.900116,4.2954955 26.33237,4.2954955 c 0.562705,0 0.779656,0.1468712 1.614795,1.0931842 0.924867,1.047986 1.0043,1.1803034 1.002627,1.6701559 -8.71e-4,0.254125 -0.03621,0.44547 -0.107255,0.5807325 -0.05828,0.1109513 -0.581367,0.7898021 -1.16242,1.5085573 l -1.05646,1.3068276 0.259241,0.547262 c 0.245833,0.518959 0.718321,1.85206 0.718321,2.026707 0,0.04476 0.02207,0.09503 0.04905,0.111706 0.02698,0.01668 0.772926,0.14985 1.657658,0.295945 1.761164,0.290821 2.084439,0.393478 2.35463,0.747716 0.283525,0.371721 0.320641,0.581899 0.320641,1.815711 0,1.233812 -0.03712,1.44399 -0.320641,1.815711 -0.270368,0.354471 -0.593091,0.456832 -2.36044,0.748686 -0.887928,0.146629 -1.629603,0.28476 -1.648166,0.306957 -0.01856,0.0222 -0.09185,0.247925 -0.162853,0.501619 -0.187105,0.668502 -0.487563,1.40639 -0.878421,2.157291 -0.188431,0.362005 -0.330993,0.688442 -0.316805,0.725414 0.01419,0.03697 0.46553,0.687813 1.002984,1.446313 0.537452,0.758499 1.006973,1.467286 1.043377,1.575081 0.09943,0.294413 0.07773,0.69551 -0.05325,0.984256 -0.156388,0.344762 -1.597697,1.805927 -1.968735,1.995857 -0.364588,0.186628 -0.847796,0.190366 -1.202955,0.0093 -0.140149,-0.07145 -0.848409,-0.555103 -1.57391,-1.074788 l -1.319094,-0.94488 -0.612438,0.319105 c -0.724192,0.377333 -1.509701,0.696916 -2.226852,0.905992 l -0.518919,0.151285 -0.292805,1.698308 c -0.161043,0.934069 -0.320653,1.764635 -0.354689,1.845702 -0.110863,0.264052 -0.379679,0.529375 -0.676276,0.667489 -0.27646,0.128737 -0.349735,0.135246 -1.501456,0.133374 -0.839019,-0.0014 -1.27481,-0.02484 -1.419239,-0.07645 z m 2.947167,-10.067014 c 2.071235,-0.526983 3.721065,-2.173077 4.306438,-4.296684 0.142339,-0.516373 0.159095,-0.672902 0.160482,-1.499099 0.002,-1.215292 -0.174049,-1.949624 -0.698213,-2.911712 C 19.63421,9.9907886 15.564805,9.0273614 12.624602,11.05435 11.442289,11.869442 10.588049,13.101686 10.206434,14.542567 10.076467,15.033289 10.057128,15.22206 10.057128,16 c 0,0.77794 0.01934,0.966711 0.149306,1.457433 0.565529,2.135293 2.110364,3.721222 4.225755,4.338161 0.913487,0.266412 2.158292,0.277928 3.136599,0.02902 z"
     id="path3681"
     inkscape:connector-curvature="0" /></svg>