<?xml version="1.0" encoding="UTF-8" standalone="no"?>
<svg
   xmlns:dc="http://purl.org/dc/elements/1.1/"
   xmlns:cc="http://creativecommons.org/ns#"
   xmlns:rdf="http://www.w3.org/1999/02/22-rdf-syntax-ns#"
   xmlns:svg="http://www.w3.org/2000/svg"
   xmlns="http://www.w3.org/2000/svg"
   xmlns:sodipodi="http://sodipodi.sourceforge.net/DTD/sodipodi-0.dtd"
   xmlns:inkscape="http://www.inkscape.org/namespaces/inkscape"
   enable-background="new 0 0 512 512"
   height="512px"
   id="Layer_1"
   version="1.1"
   viewBox="0 0 512 512"
   width="512px"
   xml:space="preserve"
   sodipodi:docname="graph.svg"
   inkscape:version="0.92.1 r15371"><metadata
     id="metadata11"><rdf:RDF><cc:Work
         rdf:about=""><dc:format>image/svg+xml</dc:format><dc:type
           rdf:resource="http://purl.org/dc/dcmitype/StillImage" /><dc:title></dc:title></cc:Work></rdf:RDF></metadata><defs
     id="defs9" /><sodipodi:namedview
     pagecolor="#ffff18"
     bordercolor="#666666"
     borderopacity="1"
     objecttolerance="10"
     gridtolerance="10"
     guidetolerance="10"
     inkscape:pageopacity="0"
     inkscape:pageshadow="2"
     inkscape:window-width="1181"
     inkscape:window-height="882"
     id="namedview7"
     showgrid="false"
     inkscape:zoom="1.656242"
     inkscape:cx="248"
     inkscape:cy="239.999"
     inkscape:window-x="0"
     inkscape:window-y="0"
     inkscape:window-maximized="0"
     inkscape:current-layer="Layer_1" /><g
     id="g4"><path
       d="M448,238.773v221.883c0,10.688-8.656,19.344-19.336,19.344h-73.328c-10.68,0-19.336-8.656-19.336-19.344   V276.125l58.273-63.219l15.047,15.039c7.78,7.781,18.125,12.07,29.133,12.07C441.703,240.016,444.883,239.516,448,238.773z    M90.359,384.563l-1.156,0.017c-10.844,0-21.086-4.181-28.828-11.759L48,360.703v99.953C48,471.344,56.656,480,67.336,480h73.328   c10.68,0,19.336-8.656,19.336-19.344V326.711l-40.32,44.375C112.203,379.328,101.516,384.25,90.359,384.563z M249.906,351.617   c-0.047,0-0.094,0-0.141,0c-11.938,0-21.836-3.898-29.453-10.953L192,314.313v146.345c0,10.688,8.656,19.344,19.336,19.344h73.328   c10.68,0,19.336-8.656,19.336-19.344V310.844l-25.375,27.531C271.25,346.375,260.781,351.203,249.906,351.617z M249.734,319.641   c2.445-0.094,4.758-1.156,6.414-2.953l137.734-149.43l38.063,38.063c2.633,2.633,6.586,3.422,10.03,1.992   c3.438-1.422,5.681-4.781,5.681-8.5V73.203c0-5.086-4.117-9.203-9.203-9.203H312.836c-3.719,0-7.078,2.242-8.5,5.68   c-1.422,3.445-0.641,7.398,1.992,10.031l42.391,42.391L244.477,238.391l-65.258-59.32c-3.75-3.414-9.547-3.148-12.977,0.586   L50.938,305.297c-3.359,3.656-3.203,9.32,0.344,12.797l32.523,31.852c1.789,1.75,4.211,2.695,6.711,2.625   c2.5-0.069,4.859-1.155,6.539-3.008l82.859-91.188l63.195,58.813C244.906,318.852,247.289,319.734,249.734,319.641z"
       fill="#4D4D4D"
       id="path2" /></g><path
     style="fill:#ffffff;fill-opacity:1;stroke-width:1"
     d="m 85.898881,351.00777 c -2.639112,-1.60919 -35.113645,-33.71205 -36.171286,-35.75731 -1.186568,-2.29456 -1.060854,-5.8975 0.280857,-8.04929 2.049767,-3.28735 117.542058,-128.59035 119.231918,-129.3603 1.95143,-0.88914 5.15665,-0.97715 7.20625,-0.1979 0.80379,0.3056 16.46111,14.19063 34.79405,30.85564 18.33294,16.665 33.40995,30.20371 33.50447,30.08602 0.84173,-1.04806 100.66592,-112.46553 102.30788,-114.18962 l 2.16853,-2.27699 -22.18371,-22.189791 c -23.97448,-23.981046 -24.1021,-24.143206 -22.80129,-28.974002 0.69117,-2.566845 3.08237,-5.15714 5.65966,-6.130906 1.16278,-0.439331 22.04701,-0.639051 66.11352,-0.632256 l 64.41384,0.0099 2.35225,1.348565 c 1.29374,0.741711 2.85899,2.299513 3.47834,3.461783 1.0819,2.03028 1.11991,4.684284 0.96852,67.622967 l -0.15757,65.50975 -1.36613,1.91525 c -1.774,2.48708 -5.91313,4.11426 -9.02297,3.54714 -2.00098,-0.3649 -4.84595,-2.9664 -22.52699,-20.59907 l -20.23678,-20.18141 -61.57493,66.82037 c -84.3217,91.50489 -77.76856,84.56769 -80.60804,85.33228 -1.65519,0.4457 -3.10424,0.45596 -4.66512,0.033 -2.38185,-0.64536 -1.27221,0.3521 -46.17162,-41.50375 l -20.96396,-19.54288 -41.95776,46.1762 c -23.07677,25.39691 -42.769262,46.59584 -43.761093,47.10874 -2.458148,1.27116 -5.998069,1.16799 -8.310836,-0.24221 z"
     id="path3683"
     inkscape:connector-curvature="0" /><path
     style="fill:#ffffff;fill-opacity:1;stroke-width:1"
     d="m 62.157597,479.01475 c -5.249529,-1.60263 -9.935673,-5.7318 -12.294502,-10.83324 -1.282186,-2.77299 -1.291522,-3.12406 -1.454592,-54.69595 l -0.164123,-51.90505 2.277341,2.09332 c 1.252537,1.15132 4.858485,4.55865 8.013217,7.57183 3.154732,3.01319 7.368681,6.45743 9.364331,7.65387 14.15985,8.48916 32.647011,7.55387 46.048021,-2.32966 2.48711,-1.8343 23.53009,-24.42101 44.0442,-47.27535 l 1.94666,-2.16873 -0.13533,68.84362 -0.13532,68.84363 -1.99234,4.0466 c -2.29086,4.65293 -5.67964,7.77978 -10.35805,9.55744 -2.91349,1.10704 -4.97396,1.15981 -43.35447,1.11038 -22.16258,-0.0285 -40.97485,-0.25927 -41.805043,-0.51271 z"
     id="path3685"
     inkscape:connector-curvature="0" /><path
     style="fill:#ffffff;fill-opacity:1;stroke-width:1"
     d="m 204.21548,478.31385 c -4.05229,-1.5686 -8.26586,-5.67931 -10.32527,-10.07321 l -1.61878,-3.45381 -0.16903,-75.10537 -0.16903,-75.10538 3.81278,3.55786 c 29.56039,27.58396 30.94477,28.68931 39.35644,31.42392 6.45795,2.09947 16.90331,2.63736 22.69416,1.16864 4.99424,-1.26667 12.08328,-4.61298 15.83731,-7.47583 2.30742,-1.75967 23.8975,-24.55423 28.93404,-30.54823 1.02667,-1.22185 1.06552,1.93749 0.9347,76.00856 l -0.1365,77.28339 -1.42251,2.71699 c -1.93815,3.70186 -5.22351,7.03039 -8.84169,8.95787 l -3.01888,1.60822 -41.35869,0.12792 c -40.21253,0.12438 -41.44599,0.0941 -44.50905,-1.09154 z"
     id="path3687"
     inkscape:connector-curvature="0" /><path
     style="fill:#ffffff;fill-opacity:1;stroke-width:1"
     d="m 350.15898,479.01475 c -5.24953,-1.60263 -9.93567,-5.7318 -12.2945,-10.83324 l -1.29047,-2.7909 -0.15832,-94.58493 -0.15833,-94.58493 29.05566,-31.49997 29.05567,-31.49996 10.04624,9.91728 c 9.05991,8.94361 10.55012,10.16309 15.17835,12.42089 2.82265,1.37698 6.89814,2.94666 9.05665,3.48816 4.32919,1.08608 12.00362,1.38193 16.46221,0.63463 l 2.87725,-0.48225 -0.16026,112.80652 -0.16025,112.80651 -1.99233,4.04684 c -2.29085,4.65319 -5.67945,7.77995 -10.35805,9.55768 -2.9135,1.10704 -4.97396,1.15981 -43.35447,1.11038 -22.16259,-0.0285 -40.97486,-0.25927 -41.80505,-0.51271 z"
     id="path3689"
     inkscape:connector-curvature="0" /></svg>