<svg xmlns="http://www.w3.org/2000/svg" viewBox="1677.025 -188 48 48"><defs><style>.a{fill:none;}.b{fill:#fff;}</style></defs><g transform="translate(1361 -417)"><path class="a" d="M0,0H48V48H0Z" transform="translate(316.025 229)"/><path class="b" d="M24.5,26.7c0-3,4.3-4.7,7.6-5.1a3.244,3.244,0,0,0-1.5-1.3,13.31,13.31,0,0,0-6.2-1.6,13.31,13.31,0,0,0-6.2,1.6,3.924,3.924,0,0,0-1.5,1.3c3.3.5,7.6,2.1,7.6,5.1v.2h.2v-.2Z" transform="translate(316.025 229)"/><circle class="b" cx="4" cy="4" r="4" transform="translate(336.425 237.6)"/><circle class="b" cx="4.3" cy="4.3" r="4.3" transform="translate(326.425 240.6)"/><path class="b" d="M16.3,22.5c-.3,0-.7-.1-1-.1h-.7c-2.9,0-8.6,1.4-8.6,4.3L8.7,39.5H20.6L23,27.8l.2-1v-.2C23.3,24.3,19.3,22.9,16.3,22.5Z" transform="translate(316.025 229)"/><path class="b" d="M41.7,24.8a2.181,2.181,0,0,0-.5-.4,9.65,9.65,0,0,0-2.5-1.2,17.142,17.142,0,0,0-4.7-.8h-.7c-.3,0-.6.1-1,.1-3,.4-6.9,1.8-6.9,4.2v.2l.2,1L28,39.5H40l2.7-12.8A2.576,2.576,0,0,0,41.7,24.8Z" transform="translate(316.025 229)"/><path class="b" d="M32.4,19.9a4.671,4.671,0,0,0,1.7.3,4.3,4.3,0,0,0,0-8.6,4.671,4.671,0,0,0-1.7.3,4.194,4.194,0,0,0-1.4.9,4.335,4.335,0,0,0-1.3,3,3.991,3.991,0,0,0,1.3,3A2.865,2.865,0,0,0,32.4,19.9Z" transform="translate(316.025 229)"/></g></svg>