<svg id="e382bbcc-c8d4-4e76-84a2-9224a96d63a0" data-name="Layer 1" xmlns="http://www.w3.org/2000/svg" viewBox="0 0 248.683 74.955"><title>heRo3_Logo_FINAL</title><path d="M621.544,338.978a2.952,2.952,0,0,0-.106-.831,1.628,1.628,0,0,0-.393-.66,3.093,3.093,0,0,0-.774-.562,9.294,9.294,0,0,0-1.265-.54,9.933,9.933,0,0,1-1.5-.652,4.851,4.851,0,0,1-1.148-.84,3.376,3.376,0,0,1-.734-1.083,3.54,3.54,0,0,1-.258-1.393,3.806,3.806,0,0,1,.272-1.453,3.413,3.413,0,0,1,.775-1.164,3.525,3.525,0,0,1,1.218-.769,4.347,4.347,0,0,1,1.591-.278,4.135,4.135,0,0,1,1.73.342,3.844,3.844,0,0,1,1.264.9,3.756,3.756,0,0,1,.77,1.3,4.563,4.563,0,0,1,.258,1.523h-1.7a3.89,3.89,0,0,0-.134-1.042,2.277,2.277,0,0,0-.42-.831,1.95,1.95,0,0,0-.724-.545,2.6,2.6,0,0,0-1.048-.192,2.551,2.551,0,0,0-.969.164,1.808,1.808,0,0,0-.669.457,1.834,1.834,0,0,0-.388.688,2.875,2.875,0,0,0-.124.867,1.871,1.871,0,0,0,.609,1.421,5.377,5.377,0,0,0,1.882,1.023,9.784,9.784,0,0,1,1.679.716,4.444,4.444,0,0,1,1.148.891,3.164,3.164,0,0,1,.656,1.115,4.417,4.417,0,0,1,.207,1.4,3.819,3.819,0,0,1-.277,1.485,3.177,3.177,0,0,1-.789,1.136,3.564,3.564,0,0,1-1.241.724,4.984,4.984,0,0,1-1.642.252,4.868,4.868,0,0,1-1.564-.258,4.1,4.1,0,0,1-1.375-.769,3.867,3.867,0,0,1-.978-1.277,4,4,0,0,1-.374-1.773h1.7a3.106,3.106,0,0,0,.2,1.186,2.17,2.17,0,0,0,1.383,1.292,3.222,3.222,0,0,0,1.006.152,2.26,2.26,0,0,0,1.679-.57A2.13,2.13,0,0,0,621.544,338.978Z" transform="translate(-388.149 -326)" fill="#808a86"/><path d="M627.643,328.94l3.505,10.961,3.507-10.961h2.177v13.432h-1.689V337.14l.157-5.24-3.515,10.472h-1.291L627,331.937l.157,5.2v5.232h-1.689V328.94Z" transform="translate(-388.149 -326)" fill="#808a86"/><path d="M396.676,353.217a16.775,16.775,0,0,1,5.468-4.649,14.707,14.707,0,0,1,6.961-1.661,15.515,15.515,0,0,1,5.782,1.035,10.673,10.673,0,0,1,4.432,3.324,16.179,16.179,0,0,1,2.818,5.878,33.174,33.174,0,0,1,.988,8.694v34.154h-8.479v-34.25q0-6.117-2.048-8.7a7.371,7.371,0,0,0-6.142-2.577,8.653,8.653,0,0,0-5.709,2.12,15.278,15.278,0,0,0-4.07,5.539v37.864h-8.527V326h8.527Z" transform="translate(-388.149 -326)" fill="#c0504d"/><path d="M447.709,400.955a24.048,24.048,0,0,1-8.43-1.4A16.145,16.145,0,0,1,432.9,395.3a19.174,19.174,0,0,1-4.022-7.25,34.243,34.243,0,0,1-1.4-10.357v-5.877a35.95,35.95,0,0,1,1.637-11.634,22.123,22.123,0,0,1,4.312-7.707,15.6,15.6,0,0,1,6.142-4.264,20.275,20.275,0,0,1,7.178-1.3,19.766,19.766,0,0,1,8.382,1.613,14.188,14.188,0,0,1,5.684,4.746,21.09,21.09,0,0,1,3.228,7.707,49.242,49.242,0,0,1,1.011,10.55v4.962h-29.1v1.2q0,8.382,3.155,12.188t9.081,3.806a16.152,16.152,0,0,0,3.9-.434,13.24,13.24,0,0,0,3.179-1.228,14.144,14.144,0,0,0,2.65-1.879,21.462,21.462,0,0,0,2.264-2.385l4.432,5.4a19.263,19.263,0,0,1-2.553,2.89,16.118,16.118,0,0,1-3.565,2.48,21.61,21.61,0,0,1-4.744,1.759A24.83,24.83,0,0,1,447.709,400.955Zm13.825-64.6H431.956v-6.888h29.579Zm-14.79,17.872a12.059,12.059,0,0,0-4.094.674,7.629,7.629,0,0,0-3.3,2.385,12.961,12.961,0,0,0-2.288,4.6,30.456,30.456,0,0,0-1.06,7.274h20.521v-1.156a37.484,37.484,0,0,0-.65-5.564,13.849,13.849,0,0,0-1.589-4.36,7.622,7.622,0,0,0-2.915-2.842A9.486,9.486,0,0,0,446.745,354.229Z" transform="translate(-388.149 -326)" fill="#9bba58"/><path d="M492.085,329.551q10.063,0,15.736,4.932T513.494,348a21.389,21.389,0,0,1-2.911,11.247q-2.911,4.835-9.323,6.61v.2a12.554,12.554,0,0,1,4.983,1.973,10.852,10.852,0,0,1,3.058,3.3,15.018,15.018,0,0,1,1.677,4.292,45.348,45.348,0,0,1,.838,4.934q.2,2.567.3,5.228a45.116,45.116,0,0,0,.492,5.229,31.966,31.966,0,0,0,1.135,4.883,12.015,12.015,0,0,0,2.219,4.094H505.5a5.874,5.874,0,0,1-1.332-2.96,30.2,30.2,0,0,1-.444-4.193q-.1-2.317-.2-4.982a34.446,34.446,0,0,0-.593-5.229q-.394-2.563-.986-4.883a11.5,11.5,0,0,0-1.875-4.045,9.257,9.257,0,0,0-3.355-2.762A12.436,12.436,0,0,0,491.2,369.9h-9.763v30.09h-9.373V329.551Zm1.973,31.965a13.564,13.564,0,0,0,5.18-1.924,10.522,10.522,0,0,0,3.551-3.848,12.921,12.921,0,0,0,1.332-6.264,12.639,12.639,0,0,0-2.96-8.681q-2.961-3.353-9.57-3.355H481.434V362.01h6.409A37.646,37.646,0,0,0,494.058,361.516Z" transform="translate(-388.149 -326)" fill="#4bacc6"/><path d="M518.86,371.522a33.293,33.293,0,0,1,1.565-10.718,22.3,22.3,0,0,1,4.287-7.683,17.759,17.759,0,0,1,6.383-4.649,19.781,19.781,0,0,1,7.853-1.565,20.25,20.25,0,0,1,7.948,1.565,17.668,17.668,0,0,1,6.432,4.649,22.336,22.336,0,0,1,4.287,7.683,33.322,33.322,0,0,1,1.565,10.718v4.914a33.142,33.142,0,0,1-1.565,10.669,22.331,22.331,0,0,1-4.287,7.684,17.5,17.5,0,0,1-6.383,4.625,21.081,21.081,0,0,1-15.825,0,17.432,17.432,0,0,1-6.407-4.625,22.3,22.3,0,0,1-4.287-7.684,33.113,33.113,0,0,1-1.565-10.669Zm8.527,4.914a28.54,28.54,0,0,0,.891,7.562,16.452,16.452,0,0,0,2.457,5.371,10.464,10.464,0,0,0,3.685,3.228,10.015,10.015,0,0,0,4.625,1.084q11.609,0,11.609-17.245v-4.914a28.389,28.389,0,0,0-.891-7.515,16.79,16.79,0,0,0-2.457-5.395,10.556,10.556,0,0,0-3.709-3.276,9.982,9.982,0,0,0-4.648-1.108,9.739,9.739,0,0,0-4.577,1.108,10.4,10.4,0,0,0-3.66,3.276,17.077,17.077,0,0,0-2.433,5.395,28.344,28.344,0,0,0-.891,7.515Z" transform="translate(-388.149 -326)" fill="#8064a1"/><path d="M578.607,360.587h6.359a18.264,18.264,0,0,0,6.07-.915,12.214,12.214,0,0,0,4.335-2.528,10.335,10.335,0,0,0,2.6-3.806,12.922,12.922,0,0,0,.867-4.794q0-6.021-3.034-9.177t-9.25-3.155a15.193,15.193,0,0,0-5.178.843,11.416,11.416,0,0,0-4,2.409,10.732,10.732,0,0,0-2.577,3.806,13.076,13.076,0,0,0-.914,4.986h-8.912a18.62,18.62,0,0,1,1.541-7.563,18.266,18.266,0,0,1,4.383-6.142,20.926,20.926,0,0,1,6.817-4.143,24.611,24.611,0,0,1,8.84-1.517,27.8,27.8,0,0,1,8.671,1.276,18.45,18.45,0,0,1,6.672,3.758,16.845,16.845,0,0,1,4.311,6.19,22.346,22.346,0,0,1,1.542,8.623,14.405,14.405,0,0,1-.65,4.143,16.867,16.867,0,0,1-1.975,4.239A17.87,17.87,0,0,1,601.705,361a18.381,18.381,0,0,1-4.985,3.01,18.758,18.758,0,0,1,5.8,2.915,15.716,15.716,0,0,1,3.734,4.022,15.3,15.3,0,0,1,1.975,4.673,21.035,21.035,0,0,1,.578,4.817,21.51,21.51,0,0,1-1.687,8.743,18.041,18.041,0,0,1-4.672,6.431,20.731,20.731,0,0,1-7.033,3.974,27.279,27.279,0,0,1-8.816,1.372,28.524,28.524,0,0,1-8.623-1.276,21.056,21.056,0,0,1-7.081-3.758,17.776,17.776,0,0,1-4.793-6.118,18.851,18.851,0,0,1-1.758-8.31h8.959a13.073,13.073,0,0,0,.915,4.986,10.738,10.738,0,0,0,2.65,3.854,11.831,11.831,0,0,0,4.191,2.481,16.577,16.577,0,0,0,5.539.867,17.967,17.967,0,0,0,5.54-.795,10.911,10.911,0,0,0,4.191-2.433,10.633,10.633,0,0,0,2.649-4.1,16.392,16.392,0,0,0,.915-5.732,14.042,14.042,0,0,0-1.06-5.684,10.345,10.345,0,0,0-3.011-3.973,13.032,13.032,0,0,0-4.7-2.337,22.866,22.866,0,0,0-6.166-.77h-6.359Z" transform="translate(-388.149 -326)" fill="#ff931e"/></svg>