<svg xmlns="http://www.w3.org/2000/svg" viewBox="-7886 9182 36 36"><defs><style>.a{opacity:0.7;}.b{fill:none;}.c{fill:#fff;}</style></defs><g class="a" transform="translate(-7951 8475)"><rect class="b" width="36" height="36" transform="translate(65 707)"/><g transform="translate(72.001 715)"><g transform="translate(-0.001)"><path class="c" d="M13.385,3.99C14.3,2.542,16.139,0,18.54,0s3.036,1.13,3.036,2.118a2.436,2.436,0,0,1-2.613,2.789c-1.306,0-1.095-1.377-1.695-1.377s-.847.424-1.624,1.695L13.668,8.58l2.083,5.861c.282.812.565,2.3,1.412,2.3s1.448-.212,2.33-2.9h.989c-.883,3.531-2.4,6.144-5.049,6.144s-3.319-1.871-3.884-3.531l-1.236-3.178L8.8,15.889a6.6,6.6,0,0,1-5.473,4.025C1.2,19.914,0,18.713,0,17.371A2.33,2.33,0,0,1,2.546,14.9c1.977,0,1.306,1.907,2.083,1.907s.883-.636,2.083-2.507l2.577-4.1L7.877,6.355c-.812-2.4-1.73-3.849-3.39-3.849A5.614,5.614,0,0,0,2.3,3.142L1.945,2.118,8.442,0a8.121,8.121,0,0,1,3.743,4.625l.247.812Z" transform="translate(0.001)"/></g></g></g></svg>