<svg xmlns="http://www.w3.org/2000/svg" viewBox="-7803 9722 36 36"><defs><style>.a{fill:none;}.b{fill:#ffff8d;}</style></defs><g transform="translate(-7913 9042)"><path class="a" d="M0,0H36V36H0Z" transform="translate(110 680)"/><path class="b" d="M27.97,18.5c0-.45.15-.9.15-1.5a4.624,4.624,0,0,0-.15-1.5l3.15-2.4c.3-.15.3-.6.15-.9l-3-5.25a.721.721,0,0,0-.9-.3l-3.75,1.5a14.244,14.244,0,0,0-2.55-1.5l-.6-4.05c.15-.3-.3-.6-.6-.6h-6c-.3,0-.75.3-.75.6l-.6,4.05a11.315,11.315,0,0,0-2.55,1.5L6.22,6.65c-.3-.15-.6,0-.9.3l-3,5.25c-.15.15,0,.6.3.9l3.15,2.4c0,.45-.15.9-.15,1.5a4.624,4.624,0,0,0,.15,1.5L2.62,20.9c-.3.15-.3.6-.15.9l3,5.25a.668.668,0,0,0,.9.3l3.75-1.5a14.244,14.244,0,0,0,2.55,1.5l.6,3.9a.686.686,0,0,0,.75.6h6c.3,0,.75-.3.75-.6l.6-3.9a8.781,8.781,0,0,0,2.55-1.5l3.75,1.5a.721.721,0,0,0,.9-.3l3-5.25c.15-.3.15-.75-.15-.9Zm-11.1,3.75A5.25,5.25,0,1,1,22.12,17,5.315,5.315,0,0,1,16.87,22.25Z" transform="translate(111.13 681)"/></g></svg>