<svg xmlns="http://www.w3.org/2000/svg" viewBox="-7380 10666 24 24"><defs><style>.a{fill:none;}.b{fill:#fff;}</style></defs><g transform="translate(-8145.929 10524)"><g transform="translate(-63 -24)"><rect class="a" width="24" height="24" transform="translate(828.929 166)"/><path class="b" d="M0,0V16H18V0ZM17.151,14.873h-4.84V12.958h4.882v1.915ZM6.58,5.859V3.944h4.882V5.859Zm4.882,1.127V8.9H6.58V6.986ZM.849,3.944H5.731V5.859H.849Zm0,3.042H5.731V8.9H.849Zm0,2.986H5.731v1.915H.849Zm5.731,0h4.882v1.915H6.58Zm4.882,3.042V14.93H6.58V13.014Zm5.689-1.127h-4.84V9.972h4.882v1.915Zm0-3.042h-4.84V6.93h4.882V8.845Zm0-2.986h-4.84V3.944h4.882V5.859ZM.849,13.014H5.731V14.93H.849Z" transform="translate(831.929 170)"/></g></g></svg>