<svg xmlns="http://www.w3.org/2000/svg" viewBox="-7886 9242 36 36"><defs><style>.a{opacity:0.7;}.b{fill:#fff;}.c{fill:none;}</style></defs><g class="a" transform="translate(-11905 -3499)"><path class="b" d="M0,0V27.955H31.449V0ZM29.966,25.986H21.51V22.64h8.53v3.347ZM11.5,10.237V6.89h8.53v3.347Zm8.53,1.969v3.347H11.5V12.206ZM1.483,6.89h8.53v3.347H1.483Zm0,5.315h8.53v3.347H1.483Zm0,5.217h8.53v3.347H1.483Zm10.013,0h8.53v3.347H11.5Zm8.53,5.315v3.347H11.5V22.738Zm9.939-1.969H21.51V17.423h8.53v3.347Zm0-5.315H21.51V12.107h8.53v3.347Zm0-5.217H21.51V6.89h8.53v3.347ZM1.483,22.738h8.53v3.347H1.483Z" transform="translate(4021.275 12745.022)"/><rect class="c" width="36" height="36" transform="translate(4019 12741)"/></g></svg>