<?xml version="1.0" encoding="UTF-8" standalone="no"?>
<svg
   xmlns:dc="http://purl.org/dc/elements/1.1/"
   xmlns:cc="http://creativecommons.org/ns#"
   xmlns:rdf="http://www.w3.org/1999/02/22-rdf-syntax-ns#"
   xmlns:svg="http://www.w3.org/2000/svg"
   xmlns="http://www.w3.org/2000/svg"
   xmlns:sodipodi="http://sodipodi.sourceforge.net/DTD/sodipodi-0.dtd"
   xmlns:inkscape="http://www.inkscape.org/namespaces/inkscape"
   height="18px"
   version="1.1"
   viewBox="0 0 14 18"
   width="14px"
   id="svg12"
   sodipodi:docname="importexport.svg"
   inkscape:version="0.92.1 r15371">
  <metadata
     id="metadata16">
    <rdf:RDF>
      <cc:Work
         rdf:about="">
        <dc:format>image/svg+xml</dc:format>
        <dc:type
           rdf:resource="http://purl.org/dc/dcmitype/StillImage" />
        <dc:title></dc:title>
      </cc:Work>
    </rdf:RDF>
  </metadata>
  <sodipodi:namedview
     pagecolor="#ffff1a"
     bordercolor="#666666"
     borderopacity="1"
     objecttolerance="10"
     gridtolerance="10"
     guidetolerance="10"
     inkscape:pageopacity="0"
     inkscape:pageshadow="2"
     inkscape:window-width="1248"
     inkscape:window-height="865"
     id="namedview14"
     showgrid="false"
     inkscape:zoom="37.333333"
     inkscape:cx="7"
     inkscape:cy="9"
     inkscape:window-x="0"
     inkscape:window-y="0"
     inkscape:window-maximized="0"
     inkscape:current-layer="svg12" />
  <desc
     id="desc4" />
  <defs
     id="defs6" />
  <g
     fill="none"
     fill-rule="evenodd"
     id="Page-1"
     stroke="none"
     stroke-width="1">
    <g
       fill="#000000"
       id="Icons-Communication"
       transform="translate(-171.000000, -84.000000)">
      <g
         id="import-export"
         transform="translate(171.000000, 84.000000)">
        <path
           d="M4,0 L0,4 L3,4 L3,11 L5,11 L5,4 L8,4 L4,0 L4,0 Z M11,14 L11,7 L9,7 L9,14 L6,14 L10,18 L14,14 L11,14 L11,14 Z"
           id="Shape" />
      </g>
    </g>
  </g>
  <path
     style="fill:#ffffff;fill-opacity:1;stroke-width:0.99999994"
     d="M 3.0184032,7.490625 3.0116071,3.9883929 1.5316175,3.975 0.05162789,3.9616071 2.0272209,1.9861605 4.0028138,0.01071383 5.9845913,1.9926271 7.9663691,3.9745404 6.4800596,3.9814704 4.99375,3.9884004 4.98695,7.4906325 4.98015,10.992865 H 4.0026786 3.025199 Z"
     id="path3688"
     inkscape:connector-curvature="0" />
  <path
     style="fill:#ffffff;fill-opacity:1;stroke-width:0.99999994"
     d="m 8.0207657,16.002016 -1.9817776,-1.981914 1.4863095,-0.0069 1.4863095,-0.0069 0.0068,-3.502232 0.0068,-3.5022323 h 0.9775789 0.977579 v 3.5087033 3.508704 l 1.486681,0.0069 1.48668,0.0069 -1.975587,1.975446 -1.975588,1.975447 z"
     id="path3690"
     inkscape:connector-curvature="0" />
</svg>
