<?xml version="1.0" ?><!DOCTYPE svg  PUBLIC '-//W3C//DTD SVG 1.1//EN'  'http://www.w3.org/Graphics/SVG/1.1/DTD/svg11.dtd'><svg enable-background="new 0 0 24 24" height="24px" id="Layer_1" version="1.1" viewBox="0 0 24 24" width="24px" xml:space="preserve" xmlns="http://www.w3.org/2000/svg" xmlns:xlink="http://www.w3.org/1999/xlink"><g id="icon"><g><rect fill="#AAB2BD" height="3" width="1" x="16" y="3"/><rect fill="#AAB2BD" height="3" width="1" x="1" y="3"/><path d="M16,14v7H2v-7H1v6.8c0,0.66,0.54,1.2,1.2,1.2h13.6c0.66,0,1.2,-0.54,1.2,-1.2v-6.8H16z" fill="#AAB2BD"/></g><g><path d="M2,6V3h14v3h1V3.1625C17,2.5205,16.4795,2,15.8375,2H2.1625C1.5205,2,1,2.5205,1,3.1625V6H2z" fill="#AAB2BD"/><path d="M16,14v7H2v-7H1v6.8375C1,21.4795,1.5205,22,2.1625,22h13.675c0.642,0,1.1625,-0.5205,1.1625,-1.1625V14H16z" fill="#AAB2BD"/></g><g><rect fill="#F6F7FB" height="3" width="14" x="2" y="3"/><rect fill="#F6F7FB" height="7" width="14" x="2" y="14"/></g><rect fill="#AAB2BD" height="1" width="14" x="2" y="17"/><g><rect fill="#AAB2BD" height="3" width="1" x="11" y="3"/><rect fill="#AAB2BD" height="3" width="1" x="6" y="3"/><rect fill="#AAB2BD" height="7" width="1" x="6" y="14"/><rect fill="#AAB2BD" height="7" width="1" x="11" y="14"/></g><path d="M7.5,7.5v0.8h0.325C8.5832,8.3,9.2,8.9168,9.2,9.675v0.65c0,0.7582,-0.6168,1.375,-1.375,1.375H7.5v0.8h15V7.5H7.5z" fill="#84DCF4"/><path d="M7,7v1.3h0.825c0.0594,0,0.1176,0.0051,0.175,0.0124V8h14v4H8v-0.3124c-0.0574,0.0073,-0.1156,0.0124,-0.175,0.0124H7v1.3h16V7H7z" fill="#3BAEDA"/><g><path d="M9.2004,14l-2.5119,8H15.8c0.66,0,1.2,-0.459,1.2,-1.02V14H9.2004z" fill="#231F20" opacity="0.04"/><path d="M17,6V3.02c0,-0.561,-0.54,-1.02,-1.2,-1.02h-3.7738l-1.2559,4H17z" fill="#231F20" opacity="0.04"/></g><path d="M4.7338,6.8961c-0.0885,0,-0.1715,0.0343,-0.2338,0.0966L1.6967,9.838c-0.0767,0.0766,-0.1109,0.1846,-0.0912,0.2955c0.0122,0.0689,0.0497,0.131,0.0992,0.1805l0.4813,0.4813l2.3489,2.3093c0.0753,0.0753,0.1836,0.1098,0.2946,0.09c0.069,-0.0123,0.1311,-0.0502,0.1807,-0.0998l0.4807,-0.4807c0.0612,-0.0612,0.0995,-0.1386,0.1076,-0.2176c0.0092,-0.0897,-0.0208,-0.1993,-0.0846,-0.263L4.0801,10.7H7.825c0.2071,0,0.375,-0.1679,0.375,-0.375v-0.65c0,-0.2071,-0.1679,-0.375,-0.375,-0.375H4.0769l1.4022,-1.4c0.0648,-0.0648,0.0948,-0.1346,0.0854,-0.2203c-0.0082,-0.0754,-0.0454,-0.1418,-0.1075,-0.2038l-0.4894,-0.4863C4.9054,6.9273,4.8223,6.8961,4.7338,6.8961z" fill="#36BC9B"/></g></svg>