<?xml version="1.0" encoding="UTF-8" standalone="no"?>
<!-- Svg Vector Icons : http://www.onlinewebfonts.com/icon -->

<svg
   xmlns:dc="http://purl.org/dc/elements/1.1/"
   xmlns:cc="http://creativecommons.org/ns#"
   xmlns:rdf="http://www.w3.org/1999/02/22-rdf-syntax-ns#"
   xmlns:svg="http://www.w3.org/2000/svg"
   xmlns="http://www.w3.org/2000/svg"
   xmlns:sodipodi="http://sodipodi.sourceforge.net/DTD/sodipodi-0.dtd"
   xmlns:inkscape="http://www.inkscape.org/namespaces/inkscape"
   version="1.1"
   x="0px"
   y="0px"
   viewBox="0 0 835.90002 837.5"
   enable-background="new 0 0 1000 1000"
   xml:space="preserve"
   id="svg16"
   sodipodi:docname="insert-row.svg"
   width="835.90002"
   height="837.5"
   inkscape:version="0.92.1 r15371"><defs
     id="defs20" /><sodipodi:namedview
     pagecolor="#ffffff"
     bordercolor="#666666"
     borderopacity="1"
     objecttolerance="10"
     gridtolerance="10"
     guidetolerance="10"
     inkscape:pageopacity="0"
     inkscape:pageshadow="2"
     inkscape:window-width="1920"
     inkscape:window-height="1051"
     id="namedview18"
     showgrid="false"
     inkscape:zoom="1.0244776"
     inkscape:cx="417.95"
     inkscape:cy="418.75"
     inkscape:window-x="-9"
     inkscape:window-y="-9"
     inkscape:window-maximized="1"
     inkscape:current-layer="svg16" /><metadata
     id="metadata2"> Svg Vector Icons : http://www.onlinewebfonts.com/icon <rdf:RDF><cc:Work
     rdf:about=""><dc:format>image/svg+xml</dc:format><dc:type
       rdf:resource="http://purl.org/dc/dcmitype/StillImage" /><dc:title /></cc:Work></rdf:RDF></metadata><g
     id="g14"
     transform="translate(-10,-81.2)"><path
       d="m 30.9,290.6 h 460.7 c 11.6,0 21,-9.4 21,-20.9 V 102.1 c 0,-11.5 -9.4,-20.9 -21,-20.9 H 30.9 C 19.3,81.2 10,90.6 10,102.1 v 167.5 c 0,11.6 9.4,21 20.9,21 z M 282.3,123 H 470.8 V 248.7 H 282.3 Z M 51.9,123 H 240.4 V 248.7 H 51.9 Z"
       id="path4"
       inkscape:connector-curvature="0" /><path
       d="M 364.3,604.7 H 825 c 11.5,0 20.9,-9.4 20.9,-20.9 V 416.2 c 0,-11.5 -9.4,-20.9 -20.9,-20.9 H 364.3 c -11.6,0 -20.9,9.4 -20.9,20.9 v 167.5 c -0.1,11.6 9.3,21 20.9,21 z M 615.6,437.2 H 804.1 V 562.9 H 615.6 Z m -230.4,0 H 573.7 V 562.9 H 385.2 Z"
       id="path6"
       inkscape:connector-curvature="0" /><path
       d="M 491.7,709.4 H 30.9 c -11.6,0 -20.9,9.4 -20.9,20.9 v 167.5 c 0,11.6 9.4,20.9 20.9,20.9 h 460.7 c 11.6,0 21,-9.4 21,-20.9 V 730.4 c 0,-11.6 -9.4,-21 -20.9,-21 z M 240.4,877 H 51.9 V 751.3 h 188.5 z m 230.3,0 H 282.3 V 751.3 H 470.8 V 877 Z"
       id="path8"
       inkscape:connector-curvature="0" /><path
       d="m 332.4,500 c 0,-11.6 -9.4,-20.9 -20.9,-20.9 H 236.4 L 289.5,426 c 8.1,-8.1 8.2,-21.4 0,-29.6 -8.2,-8.1 -21.4,-8.1 -29.6,0 L 171,485.2 c -1.9,1.9 -3.4,4.2 -4.5,6.8 -2.1,5.1 -2.1,10.9 0,16 1,2.6 2.6,4.9 4.5,6.8 l 88.8,88.9 c 8.1,8.1 21.4,8.1 29.6,0 8.2,-8.2 8.2,-21.5 0,-29.7 l -53.1,-53.1 h 75.1 c 11.6,0 21,-9.4 21,-20.9 z"
       id="path10"
       inkscape:connector-curvature="0" /></g><path
     style="fill:#ff0000;fill-opacity:1;stroke-width:1"
     d="m 42.141686,732.96956 v -62.8168 h 94.093224 94.09323 v 62.8168 62.81679 H 136.23491 42.141686 Z"
     id="path3702"
     inkscape:connector-curvature="0" /><path
     style="fill:#ff0000;fill-opacity:1;stroke-width:1"
     d="m 272.29398,732.96956 v -62.8168 h 94.22519 94.22519 v 62.8168 62.81679 h -94.22519 -94.22519 z"
     id="path3706"
     inkscape:connector-curvature="0" /><path
     style="fill:#ffffff;fill-opacity:1;stroke-width:1"
     d="m 42.148718,732.66608 v -62.47086 h 93.706292 93.7063 v 62.47086 62.47087 h -93.7063 -93.706292 z"
     id="path3683"
     inkscape:connector-curvature="0" /><path
     style="fill:#ffffff;fill-opacity:1;stroke-width:1"
     d="m 272.51002,732.66608 v -62.47086 h 93.7063 93.70629 v 62.47086 62.47087 h -93.70629 -93.7063 z"
     id="path3685"
     inkscape:connector-curvature="0" /></svg>