<?xml version="1.0" encoding="UTF-8" standalone="no"?>
<!-- Generator: Adobe Illustrator 18.1.1, SVG Export Plug-In . SVG Version: 6.00 Build 0)  -->

<svg
   xmlns:dc="http://purl.org/dc/elements/1.1/"
   xmlns:cc="http://creativecommons.org/ns#"
   xmlns:rdf="http://www.w3.org/1999/02/22-rdf-syntax-ns#"
   xmlns:svg="http://www.w3.org/2000/svg"
   xmlns="http://www.w3.org/2000/svg"
   xmlns:sodipodi="http://sodipodi.sourceforge.net/DTD/sodipodi-0.dtd"
   xmlns:inkscape="http://www.inkscape.org/namespaces/inkscape"
   version="1.1"
   id="Capa_1"
   x="0px"
   y="0px"
   viewBox="0 0 26 26"
   style="enable-background:new 0 0 26 26;"
   xml:space="preserve"
   sodipodi:docname="math-white.svg"
   inkscape:version="0.92.1 r15371"><metadata
     id="metadata49"><rdf:RDF><cc:Work
         rdf:about=""><dc:format>image/svg+xml</dc:format><dc:type
           rdf:resource="http://purl.org/dc/dcmitype/StillImage" /><dc:title></dc:title></cc:Work></rdf:RDF></metadata><defs
     id="defs47" /><sodipodi:namedview
     pagecolor="#ffff1a"
     bordercolor="#666666"
     borderopacity="1"
     objecttolerance="10"
     gridtolerance="10"
     guidetolerance="10"
     inkscape:pageopacity="0"
     inkscape:pageshadow="2"
     inkscape:window-width="1595"
     inkscape:window-height="867"
     id="namedview45"
     showgrid="false"
     inkscape:zoom="9.0769231"
     inkscape:cx="11.072034"
     inkscape:cy="13"
     inkscape:window-x="0"
     inkscape:window-y="0"
     inkscape:window-maximized="0"
     inkscape:current-layer="Capa_1" /><g
     id="g12"><path
       style="fill:#030104"
       d="M 23,2 H 3 C 1.344,2 0,3.343 0,5 v 16 c 0,1.656 1.344,3 3,3 h 20 c 1.656,0 3,-1.344 3,-3 V 5 C 26,3.343 24.656,2 23,2 Z m 1,19 c 0,0.551 -0.449,1 -1,1 H 3 C 2.449,22 2,21.551 2,21 V 7 h 22 z"
       id="path2"
       inkscape:connector-curvature="0" /><path
       style="fill:#030104"
       d="m 19.402,14.215 c 0,1.029 -0.125,1.926 -0.374,2.691 -0.147,0.453 -0.464,1.16 -0.935,2.094 h 1.166 c 0.546,-0.87 0.923,-1.553 1.109,-2.024 0.335,-0.826 0.502,-1.766 0.502,-2.819 0,-0.402 -0.036,-0.82 -0.109,-1.255 C 20.688,12.468 20.566,12.028 20.395,11.584 20.26,11.225 20.134,10.942 20.019,10.737 19.95,10.616 19.795,10.36 19.573,10.001 h -1.206 c 0.276,0.565 0.482,1.035 0.603,1.391 0.288,0.853 0.432,1.795 0.432,2.823 z"
       id="path4"
       inkscape:connector-curvature="0" /><path
       style="fill:#030104"
       d="m 6.563,14.215 c 0,1.029 0.125,1.926 0.374,2.691 C 7.084,17.359 7.4,18.066 7.871,19 H 6.705 C 6.159,18.13 5.782,17.447 5.596,16.976 5.261,16.15 5.094,15.21 5.094,14.157 5.094,13.755 5.13,13.337 5.203,12.902 5.276,12.468 5.398,12.028 5.569,11.584 5.704,11.225 5.83,10.942 5.945,10.737 6.015,10.615 6.169,10.359 6.392,10 h 1.206 c -0.276,0.565 -0.482,1.035 -0.603,1.391 -0.288,0.854 -0.432,1.796 -0.432,2.824 z"
       id="path6"
       inkscape:connector-curvature="0" /><g
       id="g10"><path
         style="fill:#030104"
         d="m 17.03,12.088 c 0,0.378 -0.12,0.679 -0.361,0.902 -0.241,0.223 -0.535,0.335 -0.882,0.335 -0.208,0 -0.413,-0.026 -0.615,-0.078 -0.201,-0.052 -0.376,-0.104 -0.524,-0.156 -0.069,0.048 -0.171,0.152 -0.305,0.313 -0.135,0.161 -0.286,0.356 -0.456,0.586 0.155,0.665 0.281,1.137 0.377,1.417 0.095,0.279 0.186,0.563 0.272,0.85 0.074,0.228 0.183,0.407 0.325,0.536 0.144,0.129 0.369,0.193 0.678,0.193 0.113,0 0.254,-0.021 0.423,-0.065 0.17,-0.043 0.309,-0.087 0.417,-0.13 l -0.144,0.589 c -0.43,0.184 -0.805,0.317 -1.125,0.399 -0.321,0.084 -0.607,0.125 -0.859,0.125 -0.183,0 -0.362,-0.018 -0.541,-0.052 -0.178,-0.035 -0.341,-0.098 -0.487,-0.189 -0.16,-0.096 -0.296,-0.215 -0.407,-0.357 -0.11,-0.144 -0.205,-0.344 -0.283,-0.6 -0.053,-0.16 -0.101,-0.343 -0.144,-0.547 -0.044,-0.204 -0.088,-0.385 -0.132,-0.541 -0.126,0.188 -0.217,0.326 -0.273,0.417 -0.057,0.092 -0.139,0.22 -0.247,0.385 -0.343,0.525 -0.641,0.899 -0.893,1.123 -0.252,0.224 -0.554,0.335 -0.905,0.335 -0.265,0 -0.49,-0.089 -0.677,-0.267 -0.187,-0.178 -0.28,-0.41 -0.28,-0.696 0,-0.387 0.12,-0.691 0.361,-0.916 0.242,-0.223 0.536,-0.335 0.885,-0.335 0.208,0 0.408,0.025 0.6,0.075 0.192,0.05 0.372,0.105 0.541,0.166 0.065,-0.053 0.167,-0.154 0.304,-0.307 0.137,-0.151 0.285,-0.34 0.446,-0.566 -0.145,-0.581 -0.262,-1.02 -0.354,-1.315 -0.093,-0.295 -0.186,-0.588 -0.282,-0.879 -0.078,-0.232 -0.191,-0.412 -0.339,-0.538 -0.147,-0.128 -0.369,-0.191 -0.664,-0.191 -0.131,0 -0.276,0.023 -0.437,0.068 -0.161,0.046 -0.295,0.088 -0.403,0.127 l 0.143,-0.589 c 0.391,-0.175 0.76,-0.307 1.109,-0.394 0.35,-0.088 0.642,-0.131 0.876,-0.131 0.213,0 0.395,0.016 0.547,0.046 0.151,0.03 0.312,0.095 0.48,0.195 0.156,0.095 0.292,0.216 0.407,0.361 0.115,0.145 0.21,0.344 0.283,0.596 0.054,0.174 0.102,0.354 0.146,0.54 0.044,0.188 0.081,0.348 0.112,0.482 0.091,-0.139 0.186,-0.282 0.283,-0.43 0.097,-0.148 0.181,-0.278 0.25,-0.391 0.335,-0.525 0.634,-0.902 0.899,-1.13 0.264,-0.229 0.563,-0.342 0.897,-0.342 0.273,0 0.501,0.09 0.684,0.27 0.183,0.181 0.274,0.415 0.274,0.701 z"
         id="path8"
         inkscape:connector-curvature="0" /></g></g><g
     id="g14" /><g
     id="g16" /><g
     id="g18" /><g
     id="g20" /><g
     id="g22" /><g
     id="g24" /><g
     id="g26" /><g
     id="g28" /><g
     id="g30" /><g
     id="g32" /><g
     id="g34" /><g
     id="g36" /><g
     id="g38" /><g
     id="g40" /><g
     id="g42" /><path
     style="fill:#ffffff;fill-opacity:1;stroke-width:1"
     d="M 2.4013136,23.880911 C 2.1466123,23.829708 1.8323745,23.731169 1.7030072,23.661935 1.2670522,23.428619 0.59165615,22.746135 0.35007274,22.294803 0.11027623,21.84681 0.11015607,21.842766 0.08001283,13.207061 0.04679901,3.6916695 0.02783226,3.9876188 0.72507767,3.1417392 0.91084234,2.9163745 1.2946691,2.5956995 1.5780259,2.4291282 L 2.0932203,2.1262712 H 13 23.90678 l 0.515194,0.302857 c 0.283357,0.1665713 0.667183,0.4872463 0.852949,0.712611 0.697245,0.8458796 0.678278,0.5499303 0.645064,10.0653218 -0.03014,8.635705 -0.03026,8.639749 -0.270059,9.087742 -0.131947,0.246506 -0.447274,0.63554 -0.700727,0.864519 -0.926993,0.837484 -0.06431,0.778542 -11.673777,0.797596 -5.7260596,0.0094 -10.6194092,-0.02481 -10.8741104,-0.07601 z m 21.3065264,-2.134893 0.309109,-0.265847 0.02985,-7.280763 0.02985,-7.2807639 H 13 1.923348 l 0.029851,7.2807639 0.029851,7.280763 0.3091096,0.265847 0.3091095,0.265846 H 13 23.39873 Z"
     id="path3721"
     inkscape:connector-curvature="0" /><path
     style="fill:#ffffff;fill-opacity:1;stroke-width:1"
     d="M 6.2204059,18.080945 C 5.6075354,17.009786 5.352977,16.254183 5.2018599,15.057608 5.0259934,13.665062 5.2724623,12.258381 5.9134336,10.996419 l 0.4763969,-0.937944 0.569991,-0.03301 0.5699909,-0.033008 -0.3293999,0.783995 c -0.4632967,1.102679 -0.6415019,2.066196 -0.6415019,3.468462 0,1.497024 0.1866622,2.40897 0.7553014,3.690056 l 0.4403872,0.992148 H 7.2295742 6.7045493 Z"
     id="path3723"
     inkscape:connector-curvature="0" /><path
     style="fill:#ffffff;fill-opacity:1;stroke-width:1"
     d="m 9.3903621,17.589379 c -0.4557018,-0.409138 -0.4468418,-1.067645 0.020655,-1.535142 0.2607648,-0.260764 0.4166039,-0.322034 0.8190989,-0.322034 0.273386,0 0.636239,0.05291 0.80634,0.117586 0.284298,0.10809 0.342911,0.08153 0.725772,-0.328919 0.472169,-0.506191 0.474244,-0.417997 -0.04883,-2.075759 -0.385466,-1.22164 -0.579934,-1.403609 -1.41434,-1.323433 C 9.88917,12.161063 9.75,12.137291 9.75,12.027893 c 0,-0.223383 0.424627,-0.454353 1.200939,-0.653235 1.423874,-0.36478 2.273181,0.07102 2.550125,1.308541 0.0782,0.349433 0.177852,0.657378 0.221449,0.684323 0.0436,0.02694 0.288101,-0.271542 0.543343,-0.663302 0.672208,-1.031744 1.213923,-1.488966 1.764122,-1.488966 0.765059,0 1.147835,0.623743 0.837935,1.365437 -0.23794,0.569471 -0.799293,0.800049 -1.534565,0.630328 -0.766223,-0.176865 -0.792979,-0.169143 -1.164541,0.336104 -0.379457,0.515981 -0.382465,0.462933 0.115771,2.042118 0.39971,1.266902 0.657586,1.520187 1.442117,1.41644 0.465714,-0.06159 0.523305,-0.04606 0.523305,0.141116 0,0.326215 -1.331976,0.720328 -2.217899,0.656246 -0.60763,-0.04395 -0.715878,-0.08992 -1.037134,-0.440477 -0.242617,-0.26474 -0.403922,-0.593502 -0.498454,-1.015911 -0.07687,-0.34348 -0.173381,-0.645289 -0.214475,-0.670686 -0.04109,-0.0254 -0.302288,0.286885 -0.580431,0.693961 -0.695568,1.017999 -1.068156,1.351233 -1.588902,1.42108 -0.3500906,0.04696 -0.4884923,0.0083 -0.7223429,-0.201631 z"
     id="path3725"
     inkscape:connector-curvature="0" /><path
     style="fill:#ffffff;fill-opacity:1;stroke-width:1"
     d="m 18.269328,18.789407 c 0.03292,-0.07574 0.241142,-0.549489 0.462718,-1.052772 0.466448,-1.059474 0.705182,-2.241572 0.705182,-3.49172 0,-1.452541 -0.239449,-2.489399 -0.949165,-4.110063 -0.04841,-0.110543 0.07305,-0.1361168 0.523236,-0.110169 l 0.586279,0.03379 0.405657,0.797213 c 0.560402,1.101324 0.764036,1.998279 0.762086,3.356784 -0.002,1.37059 -0.195217,2.250409 -0.727113,3.310379 -0.653414,1.302131 -0.750053,1.404268 -1.328683,1.404268 -0.358513,0 -0.483107,-0.03898 -0.440197,-0.137712 z"
     id="path3727"
     inkscape:connector-curvature="0" /></svg>