<?xml version="1.0" encoding="UTF-8" standalone="no"?>
<svg
   xmlns:dc="http://purl.org/dc/elements/1.1/"
   xmlns:cc="http://creativecommons.org/ns#"
   xmlns:rdf="http://www.w3.org/1999/02/22-rdf-syntax-ns#"
   xmlns:svg="http://www.w3.org/2000/svg"
   xmlns="http://www.w3.org/2000/svg"
   xmlns:sodipodi="http://sodipodi.sourceforge.net/DTD/sodipodi-0.dtd"
   xmlns:inkscape="http://www.inkscape.org/namespaces/inkscape"
   enable-background="new 0 0 24 24"
   height="24px"
   id="Layer_1"
   version="1.1"
   viewBox="0 0 24 24"
   width="24px"
   xml:space="preserve"
   sodipodi:docname="needle.svg"
   inkscape:version="0.92.1 r15371"><metadata
     id="metadata9"><rdf:RDF><cc:Work
         rdf:about=""><dc:format>image/svg+xml</dc:format><dc:type
           rdf:resource="http://purl.org/dc/dcmitype/StillImage" /><dc:title></dc:title></cc:Work></rdf:RDF></metadata><defs
     id="defs7" /><sodipodi:namedview
     pagecolor="#ffff39"
     bordercolor="#666666"
     borderopacity="1"
     objecttolerance="10"
     gridtolerance="10"
     guidetolerance="10"
     inkscape:pageopacity="0"
     inkscape:pageshadow="2"
     inkscape:window-width="1156"
     inkscape:window-height="823"
     id="namedview5"
     showgrid="false"
     inkscape:zoom="26.25"
     inkscape:cx="12"
     inkscape:cy="12"
     inkscape:window-x="0"
     inkscape:window-y="0"
     inkscape:window-maximized="0"
     inkscape:current-layer="Layer_1" /><path
     d="M23.7,4.5l-4.2-4.2c-0.4-0.4-1-0.4-1.4,0c-0.4,0.4-0.4,1,0,1.4l1.4,1.4L18,4.5l-1.4-1.4c-0.4-0.4-1-0.4-1.4,0L2.5,15.8  c-0.4,0.4-0.4,1,0,1.4l1.4,1.4L0,24l5.3-3.9l1.4,1.4c0.4,0.4,1,0.4,1.4,0L20.9,8.8c0.4-0.4,0.4-1,0-1.4L19.5,6l1.4-1.4L22.3,6  c0.4,0.4,1,0.4,1.4,0C24.1,5.6,24.1,4.9,23.7,4.5z M16.6,10.2l-1.4-1.4l-0.7,0.7l1.4,1.4l-1.4,1.4l-1.4-1.4l-0.7,0.7l1.4,1.4  l-1.4,1.4L11,13l-0.7,0.7l1.4,1.4l-1.4,1.4l-1.4-1.4l-0.7,0.7l1.4,1.4l-2.1,2.1l-2.8-2.8L15.9,5.2l2.8,2.8L16.6,10.2z"
     id="path2" /><path
     style="fill:#ffffff;fill-opacity:1;stroke-width:1"
     d="m 0.16,23.830243 c 0,-0.01157 0.8201744,-1.15668 1.8226098,-2.544688 C 2.9850452,19.897547 3.8288861,18.723786 3.857812,18.677196 3.908061,18.596266 3.875461,18.557218 3.126245,17.801006 2.4239787,17.092182 2.3350971,16.988202 2.275168,16.805355 2.1971814,16.567414 2.2098946,16.319266 2.3115486,16.095238 2.4072483,15.884333 15.274391,3.0141572 15.493333,2.9103462 c 0.104492,-0.049544 0.236188,-0.072251 0.419048,-0.072251 0.221325,0 0.295815,0.017382 0.438095,0.1022317 0.09429,0.056227 0.496974,0.4290846 0.894862,0.8285715 0.397889,0.3994867 0.737933,0.7263397 0.755654,0.7263397 0.01772,0 0.365457,-0.3112156 0.772748,-0.6915901 L 19.514267,3.1120576 18.75131,2.3408981 C 17.904997,1.4854856 17.838386,1.387683 17.837027,0.99848236 c -0.0024,-0.70160241 0.713147,-1.16923913 1.356486,-0.88645244 0.151518,0.0666012 0.591331,0.48812048 2.398826,2.29904758 1.503732,1.5065869 2.235921,2.2663457 2.283877,2.3698749 0.101798,0.2197619 0.118746,0.6271626 0.03519,0.8459459 -0.08282,0.2168655 -0.286994,0.4476213 -0.491667,0.5556815 C 23.182145,6.3080229 22.78678,6.299677 22.56,6.1644309 22.465714,6.1082015 22.054451,5.726773 21.646081,5.3168122 L 20.90359,4.5714286 20.189694,5.2845836 19.475797,5.9977383 20.271275,6.798869 c 0.759414,0.7648102 0.798438,0.8113241 0.860772,1.0259641 0.0751,0.2585856 0.05799,0.4816046 -0.05373,0.7006031 C 20.970339,8.7370857 8.0970027,21.508717 7.8420354,21.657143 7.5837608,21.807494 7.2410225,21.816075 6.9790476,21.678748 6.8785257,21.626055 6.4924777,21.278113 6.0457143,20.837542 l -0.7619048,-0.751343 -2.4,1.769561 C 0.30433867,23.757648 0.16,23.862279 0.16,23.830243 Z m 8.7529109,-7.324961 -0.6945867,-0.695349 0.3416808,-0.343271 0.3416807,-0.343271 0.6959535,0.695191 0.6959538,0.695191 0.713899,-0.7139 0.7139,-0.713899 -0.69493,-0.695692 -0.694929,-0.695692 0.332957,-0.332957 0.332957,-0.332958 0.695692,0.69493 0.695692,0.694929 0.713899,-0.713899 0.7139,-0.713899 -0.69493,-0.695692 -0.694929,-0.695692 0.332957,-0.332957 0.332957,-0.332958 0.695692,0.69493 0.695692,0.694929 0.713899,-0.713899 0.7139,-0.713899 -0.695191,-0.695954 -0.695191,-0.6959535 0.343271,-0.3416808 0.343271,-0.3416807 0.698976,0.6982099 0.698976,0.6982101 1.043677,-1.0916048 C 18.223679,8.5246617 18.697641,8.0215646 18.702906,8.007051 18.70817,7.9925375 18.081337,7.3496949 17.309942,6.578512 L 15.907407,5.1763608 11.645565,9.4738949 C 9.301552,11.837538 6.7741874,14.384287 6.0292,15.133336 l -1.3545227,1.361907 1.4091059,1.409493 1.4091063,1.409492 1.0573044,-1.056798 1.057304,-1.056799 z"
     id="path3681"
     inkscape:connector-curvature="0" /></svg>