<?xml version="1.0" encoding="UTF-8" standalone="no"?>
<!-- Svg Vector Icons : http://www.onlinewebfonts.com/icon -->

<svg
   xmlns:dc="http://purl.org/dc/elements/1.1/"
   xmlns:cc="http://creativecommons.org/ns#"
   xmlns:rdf="http://www.w3.org/1999/02/22-rdf-syntax-ns#"
   xmlns:svg="http://www.w3.org/2000/svg"
   xmlns="http://www.w3.org/2000/svg"
   xmlns:sodipodi="http://sodipodi.sourceforge.net/DTD/sodipodi-0.dtd"
   xmlns:inkscape="http://www.inkscape.org/namespaces/inkscape"
   version="1.1"
   x="0px"
   y="0px"
   viewBox="0 0 1000 1000"
   enable-background="new 0 0 1000 1000"
   xml:space="preserve"
   id="svg8"
   sodipodi:docname="plus-hover.svg"
   inkscape:version="0.92.1 r15371"><defs
     id="defs12" /><sodipodi:namedview
     pagecolor="#ffffff"
     bordercolor="#666666"
     borderopacity="1"
     objecttolerance="10"
     gridtolerance="10"
     guidetolerance="10"
     inkscape:pageopacity="0"
     inkscape:pageshadow="2"
     inkscape:window-width="1481"
     inkscape:window-height="779"
     id="namedview10"
     showgrid="false"
     inkscape:zoom="0.236"
     inkscape:cx="425.84746"
     inkscape:cy="500"
     inkscape:window-x="0"
     inkscape:window-y="0"
     inkscape:window-maximized="0"
     inkscape:current-layer="svg8" /><metadata
     id="metadata2"> Svg Vector Icons : http://www.onlinewebfonts.com/icon <rdf:RDF><cc:Work
     rdf:about=""><dc:format>image/svg+xml</dc:format><dc:type
       rdf:resource="http://purl.org/dc/dcmitype/StillImage" /></cc:Work></rdf:RDF></metadata><g
     id="g6"><path
       d="M938.9,448.9H551.1V61.4c0-28.2-22.9-51.1-51.1-51.1c-28.2,0-51.1,22.9-51.1,51.1v387.6H61.1C32.9,448.9,10,471.8,10,500c0,28.2,22.9,51.1,51.1,51.1h387.8v387.5c0,28.2,22.9,51.1,51.1,51.1c28.2,0,51.1-22.9,51.1-51.1V551.1h387.8c28.2,0,51.1-22.9,51.1-51.1C990,471.8,967.1,448.9,938.9,448.9z"
       id="path4" /></g><path
     style="fill:#808080;fill-opacity:1;stroke-width:1"
     d="M 476.58958,981.76 C 454.18411,969.15564 454.39076,971.08758 452.11864,752.9661 L 450,549.57627 243.06272,547.45763 36.125447,545.33898 25.931958,533.48534 C 6.5959352,511.00013 7.3504555,487.33665 28.063885,466.62322 c 6.573557,-6.57356 16.4865,-13.04517 22.028763,-14.38136 5.542263,-1.33618 98.229642,-2.38724 205.971942,-2.33563 L 451.9597,450 453.09847,244.14205 454.23729,38.284091 468.50835,25.534795 c 11.94614,-10.672295 17.15542,-12.513688 31.97606,-11.303062 24.04042,1.963748 39.3061,12.906884 44.84843,32.149444 2.99708,10.405649 4.52309,82.909663 4.4125,209.644293 l -0.16907,193.73733 203.08318,1.17792 c 198.82114,1.15322 203.33415,1.36487 215.04237,10.08534 23.98471,17.86419 24.99191,53.84428 2.08038,74.31572 l -13.55995,12.11585 H 753.01674 549.81127 l -1.17682,205.42983 -1.17682,205.42987 -13.10755,13.10466 c -15.78805,15.78462 -40.28483,20.16907 -57.7605,10.33801 z"
     id="path3684"
     inkscape:connector-curvature="0" /></svg>