<?xml version="1.0" encoding="UTF-8" standalone="no"?>
<!-- Generator: Adobe Illustrator 16.0.0, SVG Export Plug-In . SVG Version: 6.00 Build 0)  -->

<svg
   xmlns:dc="http://purl.org/dc/elements/1.1/"
   xmlns:cc="http://creativecommons.org/ns#"
   xmlns:rdf="http://www.w3.org/1999/02/22-rdf-syntax-ns#"
   xmlns:svg="http://www.w3.org/2000/svg"
   xmlns="http://www.w3.org/2000/svg"
   xmlns:sodipodi="http://sodipodi.sourceforge.net/DTD/sodipodi-0.dtd"
   xmlns:inkscape="http://www.inkscape.org/namespaces/inkscape"
   version="1.1"
   id="Capa_1"
   x="0px"
   y="0px"
   width="497.25px"
   height="497.25px"
   viewBox="0 0 497.25 497.25"
   style="enable-background:new 0 0 497.25 497.25;"
   xml:space="preserve"
   sodipodi:docname="refresh.svg"
   inkscape:version="0.92.1 r15371"><metadata
     id="metadata42"><rdf:RDF><cc:Work
         rdf:about=""><dc:format>image/svg+xml</dc:format><dc:type
           rdf:resource="http://purl.org/dc/dcmitype/StillImage" /><dc:title></dc:title></cc:Work></rdf:RDF></metadata><defs
     id="defs40" /><sodipodi:namedview
     pagecolor="#ffff3d"
     bordercolor="#666666"
     borderopacity="1"
     objecttolerance="10"
     gridtolerance="10"
     guidetolerance="10"
     inkscape:pageopacity="0"
     inkscape:pageshadow="2"
     inkscape:window-width="1585"
     inkscape:window-height="848"
     id="namedview38"
     showgrid="false"
     inkscape:zoom="0.47461036"
     inkscape:cx="211.75265"
     inkscape:cy="248.625"
     inkscape:window-x="0"
     inkscape:window-y="0"
     inkscape:window-maximized="0"
     inkscape:current-layer="Capa_1" /><g
     id="g5"><g
       id="undo"><path
         d="M248.625,89.25V0l-127.5,127.5l127.5,127.5V140.25c84.15,0,153,68.85,153,153c0,84.15-68.85,153-153,153    c-84.15,0-153-68.85-153-153h-51c0,112.2,91.8,204,204,204s204-91.8,204-204S360.825,89.25,248.625,89.25z"
         id="path2" /></g></g><g
     id="g7" /><g
     id="g9" /><g
     id="g11" /><g
     id="g13" /><g
     id="g15" /><g
     id="g17" /><g
     id="g19" /><g
     id="g21" /><g
     id="g23" /><g
     id="g25" /><g
     id="g27" /><g
     id="g29" /><g
     id="g31" /><g
     id="g33" /><g
     id="g35" /><path
     style="fill:#ffffff;fill-opacity:1;stroke-width:1"
     d="M 229.66208,494.97932 C 220.39131,494.23978 205.3205,491.5689 196.17137,489.04401 113.55079,466.24307 55.011647,396.02273 46.245394,309.20101 l -1.435993,-14.2222 h 24.250436 c 26.625692,0 26.808277,0.0922 26.808277,13.53072 0,12.30934 8.103176,38.92707 17.231856,56.60412 12.99626,25.16635 40.38416,52.3142 64.94081,64.37163 46.98908,23.07181 94.19748,23.07836 141.10927,0.019 24.6951,-12.13851 52.25445,-39.41338 65.06274,-64.39118 22.03867,-42.97816 23.73035,-92.38399 4.60736,-134.55886 -22.771,-50.21979 -71.47351,-85.16178 -126.21905,-90.55627 l -15.0296,-1.48098 v 56.62088 56.62088 l -62.15636,-62.12958 -62.15636,-62.12958 61.62961,-61.658848 61.62962,-61.6588499 0.56949,43.2093919 0.5695,43.209392 11.01896,0.02769 c 15.17995,0.03814 46.03536,6.686329 63.72109,13.729524 27.42566,10.92204 56.77089,31.00519 75.15877,51.43681 56.33918,62.60095 69.65234,148.50938 34.51071,222.69407 -11.5279,24.3356 -19.08151,35.34025 -37.74115,54.98401 -42.11669,44.33792 -101.55682,66.54056 -164.6633,61.50658 z"
     id="path3714"
     inkscape:connector-curvature="0" /></svg>