<?xml version="1.0" ?><!DOCTYPE svg  PUBLIC '-//W3C//DTD SVG 1.1//EN'  'http://www.w3.org/Graphics/SVG/1.1/DTD/svg11.dtd'><svg enable-background="new 0 0 56.693 56.693" height="56.693px" id="Layer_1" version="1.1" viewBox="0 0 56.693 56.693" width="56.693px" xml:space="preserve" xmlns="http://www.w3.org/2000/svg" xmlns:xlink="http://www.w3.org/1999/xlink"><path d="M50.342,35.308l-6.883-9.475c-0.193-0.267-0.503-0.425-0.833-0.425c-0.329,0-0.64,0.158-0.833,0.425  l-6.883,9.473c-0.229,0.314-0.26,0.729-0.084,1.074c0.175,0.346,0.529,0.562,0.917,0.562h3.813  c-0.832,1.406-1.889,2.686-3.174,3.771c-2.996,2.525-6.797,3.732-10.701,3.4s-7.445-2.164-9.971-5.16s-3.732-6.797-3.4-10.701  c0.332-3.905,2.164-7.446,5.16-9.972s6.794-3.732,10.7-3.4c3.827,0.326,7.321,2.104,9.837,5.004c0.87,1.002,2.388,1.109,3.391,0.241  c1.002-0.87,1.109-2.388,0.24-3.39c-3.342-3.851-7.979-6.211-13.061-6.645c-5.182-0.438-10.227,1.164-14.205,4.516  c-3.977,3.354-6.41,8.055-6.851,13.238C7.081,33.03,8.684,38.073,12.037,42.05c3.354,3.979,8.055,6.41,13.238,6.852  c0.563,0.049,1.125,0.072,1.684,0.072c4.583,0,8.976-1.598,12.52-4.586c2.426-2.045,4.273-4.594,5.449-7.445h4.581  c0.388,0,0.741-0.217,0.917-0.562S50.569,35.62,50.342,35.308z" fill="#474A56"/></svg>