<?xml version="1.0" encoding="utf-8"?>
<!-- Generator: Adobe Illustrator 22.0.1, SVG Export Plug-In . SVG Version: 6.00 Build 0)  -->
<svg version="1.1" id="row-add2" xmlns="http://www.w3.org/2000/svg" xmlns:xlink="http://www.w3.org/1999/xlink" x="0px" y="0px"
	 viewBox="0 0 1920 1080" enable-background="new 0 0 1920 1080" xml:space="preserve">
<path d="M810,492.5h-0.2v-3.9h-20.6v7.7H801v5.2c0,0.7,0.6,1.3,1.3,1.3h7.7c0.7,0,1.3-0.6,1.3-1.3v-7.7
	C811.2,493,810.7,492.5,810,492.5z M790.5,494.9v-5.1h18v2.6h-6.3c-0.7,0-1.3,0.6-1.3,1.3v1.2H790.5z M810,498h-3.3v3.4h-1.1V498
	h-3.3v-1.1h3.3v-3.2h1.1v3.2h3.3V498z"/>
<rect x="788.2" y="483.6" fill="none" width="24" height="24"/>
</svg>
