<?xml version="1.0" ?><!DOCTYPE svg  PUBLIC '-//W3C//DTD SVG 1.1//EN'  'http://www.w3.org/Graphics/SVG/1.1/DTD/svg11.dtd'><svg height="128px" id="Layer_1" style="enable-background:new 0 0 128 128;" version="1.1" viewBox="0 0 128 128" width="128px" xml:space="preserve" xmlns="http://www.w3.org/2000/svg" xmlns:xlink="http://www.w3.org/1999/xlink"><path d="M100,63.75c-15.813,0-29.254,10.129-34.207,24.25H24h-8H0V40h16  h8h80h8h16v36.977C121.351,68.9,111.278,63.75,100,63.75z M104,8H24v24h-8V0h96v32h-8V8z M24,120h45.769  c1.996,3.011,4.426,5.71,7.208,8H16V96h8V120z M100,72c15.464,0,28,12.536,28,28c0,15.464-12.536,28-28,28  c-15.464,0-28-12.536-28-28C72,84.536,84.536,72,100,72z M84,104h12v12h8v-12h12v-8h-12V84h-8v12H84V104z" style="fill-rule:evenodd;clip-rule:evenodd;fill:#010202;"/></svg>