<?xml version="1.0" encoding="UTF-8" standalone="no"?>
<svg
   xmlns:dc="http://purl.org/dc/elements/1.1/"
   xmlns:cc="http://creativecommons.org/ns#"
   xmlns:rdf="http://www.w3.org/1999/02/22-rdf-syntax-ns#"
   xmlns:svg="http://www.w3.org/2000/svg"
   xmlns="http://www.w3.org/2000/svg"
   xmlns:sodipodi="http://sodipodi.sourceforge.net/DTD/sodipodi-0.dtd"
   xmlns:inkscape="http://www.inkscape.org/namespaces/inkscape"
   stroke-miterlimit="10"
   font-weight="normal"
   font-style="normal"
   font-size="12"
   version="1.1"
   id="svg9"
   sodipodi:docname="service_mark.svg"
   width="27.119827"
   height="14.450212"
   style="font-style:normal;font-weight:normal;font-size:12px;font-family:Dialog;color-interpolation:auto;fill:#000000;fill-opacity:1;stroke:#000000;stroke-width:1;stroke-linecap:square;stroke-linejoin:miter;stroke-miterlimit:10;stroke-dasharray:none;stroke-dashoffset:0;stroke-opacity:1;color-rendering:auto;image-rendering:auto;shape-rendering:auto;text-rendering:auto"
   inkscape:version="0.92.1 r15371">
  <metadata
     id="metadata13">
    <rdf:RDF>
      <cc:Work
         rdf:about="">
        <dc:format>image/svg+xml</dc:format>
        <dc:type
           rdf:resource="http://purl.org/dc/dcmitype/StillImage" />
      </cc:Work>
    </rdf:RDF>
  </metadata>
  <sodipodi:namedview
     pagecolor="#ffffff"
     bordercolor="#666666"
     borderopacity="1"
     objecttolerance="10"
     gridtolerance="10"
     guidetolerance="10"
     inkscape:pageopacity="0"
     inkscape:pageshadow="2"
     inkscape:window-width="1920"
     inkscape:window-height="1051"
     id="namedview11"
     showgrid="false"
     inkscape:zoom="59.376294"
     inkscape:cx="13.559914"
     inkscape:cy="7.2251057"
     inkscape:window-x="-9"
     inkscape:window-y="-9"
     inkscape:window-maximized="1"
     inkscape:current-layer="svg9" />
  <!--Unicode Character 'SERVICE MARK' (U+2120)-->
  <defs
     id="genericDefs" />
  <g
     id="g7"
     transform="matrix(0.12175007,0,0,0.12175007,-3.2530158,-21.623957)"
     style="stroke-width:8.21354771">
    <g
       id="g5"
       style="stroke-width:8.21354771">
      <path
         d="m 99.1406,213.3281 q -0.7031,-10.9687 -6.8203,-15.1172 -6.1172,-4.1484 -18.6328,-4.1484 -10.9687,0 -17.0156,3.9375 -6.0469,3.9375 -6.0469,10.4062 0,7.0313 5.0625,10.6876 5.0625,3.6562 18.8437,6.6093 28.8282,6.4688 37.7579,14.5547 8.9297,8.086 8.9297,21.7266 0,15.6094 -11.6016,24.9609 -11.6016,9.3516 -32.4141,9.3516 -22.2187,0 -35.7187,-10.1953 -13.5,-10.1954 -14.7656,-28.6172 l 18.5624,-1.2656 q 1.8282,23.625 31.3594,23.625 11.9532,0 18.7735,-4.5704 6.8203,-4.5703 6.8203,-12.0234 0,-8.5781 -6.0469,-11.8125 -6.0469,-3.2344 -25.875,-7.875 -20.8125,-4.9219 -29.7422,-13.4297 -8.9297,-8.5078 -8.9297,-20.7422 0,-13.7812 11.1094,-22.7812 11.1094,-9 30.375,-9 19.6875,0 31.6406,9 11.9532,9 12.7969,25.5937 z m 150.3282,81 h -17.5782 v -96.1875 h -0.5625 L 202.5,294.3281 h -17.2969 l -30.2343,-97.7343 h -0.5626 v 97.7343 H 136.8281 V 179.7188 h 28.2657 L 193.5,271.2656 h 0.5625 l 27.7031,-91.5468 h 27.7032 z"
         id="path3"
         inkscape:connector-curvature="0"
         style="stroke:none;stroke-width:8.21354771" />
    </g>
  </g>
</svg>
