<svg xmlns="http://www.w3.org/2000/svg" xmlns:xlink="http://www.w3.org/1999/xlink" viewBox="0 0 101 76.5"><defs><style>.cls-1{fill:none;}</style><symbol id="box2" data-name="box2" viewBox="0 0 11 11"><circle cx="5.5" cy="5.5" r="5.5"/></symbol><symbol id="row-add3" data-name="row-add3" viewBox="0 0 22 14.21"><path d="M20.72,3.93h-.17V0H0V7.71H11.72v5.22A1.28,1.28,0,0,0,13,14.21h7.71A1.28,1.28,0,0,0,22,12.93V5.22A1.29,1.29,0,0,0,20.72,3.93ZM1.28,6.42V1.28h18V3.93H13a1.29,1.29,0,0,0-1.29,1.29v1.2ZM20.72,9.49H17.41v3.44h-1.1V9.49H13V8.38h3.3V5.22h1.1V8.38h3.31Z"/></symbol><symbol id="row-add2-2" data-name="row-add2" viewBox="0 0 24 24"><use width="22" height="14.21" transform="translate(1 3.88) scale(1 1.14)" xlink:href="#row-add3"/><rect class="cls-1" width="24" height="24"/></symbol></defs><title>sprite-sheet</title><g id="box"><use width="11" height="11" transform="translate(0 3)" xlink:href="#box2"/></g><g id="box2-3" data-name="box2"><use width="11" height="11" transform="translate(0 23)" xlink:href="#box2"/></g><g id="row-add2"><use width="24" height="24" transform="translate(58)" xlink:href="#row-add2-2"/></g><g id="row-add3-3" data-name="row-add3"><use width="22" height="14.21" transform="translate(46 39) scale(2.5 2.64)" xlink:href="#row-add3"/></g></svg>