<?xml version="1.0" encoding="UTF-8" standalone="no"?>
<!-- Generator: Adobe Illustrator 16.0.0, SVG Export Plug-In . SVG Version: 6.00 Build 0)  -->

<svg
   xmlns:dc="http://purl.org/dc/elements/1.1/"
   xmlns:cc="http://creativecommons.org/ns#"
   xmlns:rdf="http://www.w3.org/1999/02/22-rdf-syntax-ns#"
   xmlns:svg="http://www.w3.org/2000/svg"
   xmlns="http://www.w3.org/2000/svg"
   xmlns:sodipodi="http://sodipodi.sourceforge.net/DTD/sodipodi-0.dtd"
   xmlns:inkscape="http://www.inkscape.org/namespaces/inkscape"
   version="1.1"
   id="Capa_1"
   x="0px"
   y="0px"
   width="445.878px"
   height="445.878px"
   viewBox="0 0 445.878 445.878"
   style="enable-background:new 0 0 445.878 445.878;"
   xml:space="preserve"
   sodipodi:docname="square-x-white.svg"
   inkscape:version="0.92.1 r15371"><metadata
     id="metadata41"><rdf:RDF><cc:Work
         rdf:about=""><dc:format>image/svg+xml</dc:format><dc:type
           rdf:resource="http://purl.org/dc/dcmitype/StillImage" /><dc:title></dc:title></cc:Work></rdf:RDF></metadata><defs
     id="defs39" /><sodipodi:namedview
     pagecolor="#ffff27"
     bordercolor="#666666"
     borderopacity="1"
     objecttolerance="10"
     gridtolerance="10"
     guidetolerance="10"
     inkscape:pageopacity="0"
     inkscape:pageshadow="2"
     inkscape:window-width="1551"
     inkscape:window-height="811"
     id="namedview37"
     showgrid="false"
     inkscape:zoom="0.52929278"
     inkscape:cx="189.87601"
     inkscape:cy="222.939"
     inkscape:window-x="0"
     inkscape:window-y="0"
     inkscape:window-maximized="0"
     inkscape:current-layer="Capa_1" /><g
     id="g4"><path
       d="M426.024,86.447H209.705l-84.911,298.911c-2.568,7.967-9.854,13.482-18.22,13.771c-0.236,0-0.464,0.006-0.688,0.006   c-8.092,0-15.41-4.924-18.436-12.478l-34.714-86.782H19.851C8.884,299.876,0,290.986,0,280.022   c0-10.965,8.893-19.854,19.851-19.854H66.18c8.109,0,15.421,4.941,18.436,12.483l19.237,48.09l72.472-260.218   c2.639-8.213,10.279-13.781,18.903-13.781h230.798c10.97,0,19.854,8.89,19.854,19.851S436.988,86.447,426.024,86.447z    M436.723,353.227l-78.259-87.904l74.576-82.783c1.318-1.454,1.638-3.547,0.857-5.341c-0.804-1.791-2.577-2.946-4.54-2.946h-47.18   c-1.442,0-2.802,0.629-3.759,1.72l-50.059,58.047l-49.674-58.029c-0.939-1.103-2.317-1.738-3.771-1.738h-49.334   c-1.956,0-3.729,1.149-4.521,2.929c-0.81,1.785-0.479,3.875,0.824,5.332l73.743,82.81l-77.641,87.923   c-1.297,1.465-1.605,3.552-0.813,5.325c0.813,1.785,2.586,2.92,4.528,2.92h48.9c1.472,0,2.867-0.65,3.807-1.785l51.819-62.181   l53.05,62.229c0.951,1.11,2.328,1.743,3.782,1.743h49.97c1.962,0,3.735-1.141,4.527-2.926   C438.354,356.779,438.035,354.692,436.723,353.227z"
       id="path2" /></g><g
     id="g6" /><g
     id="g8" /><g
     id="g10" /><g
     id="g12" /><g
     id="g14" /><g
     id="g16" /><g
     id="g18" /><g
     id="g20" /><g
     id="g22" /><g
     id="g24" /><g
     id="g26" /><g
     id="g28" /><g
     id="g30" /><g
     id="g32" /><g
     id="g34" /><path
     style="fill:#ffffff;fill-opacity:1;stroke-width:1"
     d="M 94.450367,393.34026 C 90.314805,389.86041 84.887266,378.35147 71.360116,344.378 l -17.68388,-44.41307 -20.667885,-0.63224 c -20.635866,-0.63124 -20.676417,-0.64178 -26.1768572,-6.8023 -7.5292729,-8.43282 -7.52429696,-17.611 0.013634,-25.14892 l 5.5226092,-5.52262 h 31.151056 31.151058 l 4.604902,5.47263 c 2.532694,3.00992 8.268333,14.70005 12.74586,25.97806 9.192137,23.15314 11.319357,27.75328 12.354927,26.71771 0.39817,-0.39818 16.9039,-58.75728 36.67939,-129.6869 19.7755,-70.92963 36.81634,-130.571534 37.86853,-132.537576 5.2076,-9.730491 1.06953,-9.436348 132.75274,-9.436348 h 122.47087 l 4.56058,4.560573 c 8.81716,8.817162 8.08983,21.089586 -1.68238,28.387457 -5.09204,3.80273 -7.81813,3.915626 -116.82804,4.838241 l -111.61435,0.944656 -8.84715,31.173677 c -4.86593,17.14552 -24.04041,84.73571 -42.60995,150.20042 -29.12094,102.66239 -34.4695,119.74106 -38.90295,124.22237 -6.68441,6.75654 -16.20341,7.01538 -23.772463,0.64644 z"
     id="path3713"
     inkscape:connector-curvature="0" /><path
     style="fill:#ffffff;fill-opacity:1;stroke-width:1"
     d="m 218.9345,356.52785 c 0.33205,-1.96642 17.60755,-22.85908 38.39,-46.42813 20.78245,-23.56905 38.00832,-43.45597 38.2797,-44.19316 0.27139,-0.73719 -16.08993,-20.01606 -36.35848,-42.84194 -20.26854,-22.82587 -36.85677,-42.98943 -36.86271,-44.80789 -0.01,-2.99605 2.53818,-3.3063 27.15405,-3.3063 h 27.16486 l 25.02145,29.28436 c 13.7618,16.1064 25.72823,29.28436 26.59208,29.28436 0.86385,0 12.87548,-13.1585 26.69253,-29.24111 l 25.1219,-29.24111 26.29539,0.42908 c 17.34628,0.28305 26.53412,1.14774 26.99684,2.54074 0.38579,1.16142 -16.37421,21.02546 -37.24447,44.1423 -20.87025,23.11685 -37.68807,42.80415 -37.37294,43.74956 0.31514,0.9454 17.99509,21.32321 39.28878,45.28402 21.29369,23.96081 38.71581,44.55753 38.71581,45.77049 0,1.56497 -8.22946,2.32285 -28.33971,2.60993 l -28.3397,0.40454 -26.19569,-31.10589 c -14.40763,-17.10824 -26.82016,-31.10589 -27.58339,-31.10589 -0.76324,0 -13.05704,14.02815 -27.31956,31.17367 l -25.93185,31.17368 h -27.38431 c -25.81837,0 -27.34979,-0.20445 -26.78058,-3.57531 z"
     id="path3715"
     inkscape:connector-curvature="0" /></svg>