<?xml version="1.0" ?><!DOCTYPE svg  PUBLIC '-//W3C//DTD SVG 1.1//EN'  'http://www.w3.org/Graphics/SVG/1.1/DTD/svg11.dtd'><svg enable-background="new 0 0 100 100" height="100px" id="Layer_1" version="1.1" viewBox="0 0 100 100" width="100px" xml:space="preserve" xmlns="http://www.w3.org/2000/svg" xmlns:xlink="http://www.w3.org/1999/xlink"><path d="M26.094,29.376h29.063c1.554,0,2.813-1.26,2.813-2.813c0-1.555-1.26-2.813-2.813-2.813H26.094  c-1.554,0-2.813,1.258-2.813,2.813C23.281,28.116,24.54,29.376,26.094,29.376z"/><path d="M26.094,45.781h29.063c1.554,0,2.813-1.26,2.813-2.813c0-1.555-1.26-2.813-2.813-2.813H26.094  c-1.554,0-2.813,1.258-2.813,2.813C23.281,44.521,24.54,45.781,26.094,45.781z"/><path d="M41.094,56.563h-15c-1.554,0-2.813,1.258-2.813,2.813c0,1.553,1.259,2.813,2.813,2.813h15c1.554,0,2.813-1.26,2.813-2.813  C43.907,57.82,42.648,56.563,41.094,56.563z"/><path d="M71.676,60.379c-1.06-1.061-2.917-1.061-3.977,0l-8.713,8.712c-0.536,0.536-0.696,1.343-0.406,2.043  c0.29,0.701,0.975,1.157,1.732,1.157h4.219v7.876c0,1.34,1.097,2.437,2.438,2.437h5.438c1.341,0,2.438-1.097,2.438-2.437v-7.876  h4.219c0.758,0,1.441-0.456,1.731-1.157c0.29-0.7,0.129-1.507-0.407-2.043L71.676,60.379z"/><path d="M74.846,47.755V17.188C74.846,10.468,69.377,5,62.657,5H18.594c-6.72,0-12.188,5.468-12.188,12.187v56.25  c0,6.72,5.468,12.188,12.188,12.188h32.13C55.098,91.319,61.969,95,69.688,95c13.182,0,23.906-10.725,23.906-23.906  C93.594,59.685,85.556,50.121,74.846,47.755z M18.594,80.001c-3.619,0-6.563-2.944-6.563-6.563v-56.25  c0-3.619,2.945-6.563,6.563-6.563h44.063c3.618,0,6.563,2.945,6.563,6.563V47.2c-12.965,0.25-23.438,10.87-23.438,23.894  c0,3.147,0.617,6.152,1.728,8.907H18.594z M69.688,89.375c-10.08,0-18.28-8.201-18.28-18.281s8.2-18.281,18.28-18.281  s18.281,8.201,18.281,18.281S79.768,89.375,69.688,89.375z"/></svg>