<?xml version="1.0" encoding="UTF-8" standalone="no"?>
<svg
   xmlns:dc="http://purl.org/dc/elements/1.1/"
   xmlns:cc="http://creativecommons.org/ns#"
   xmlns:rdf="http://www.w3.org/1999/02/22-rdf-syntax-ns#"
   xmlns:svg="http://www.w3.org/2000/svg"
   xmlns="http://www.w3.org/2000/svg"
   xmlns:sodipodi="http://sodipodi.sourceforge.net/DTD/sodipodi-0.dtd"
   xmlns:inkscape="http://www.inkscape.org/namespaces/inkscape"
   enable-background="new 0 0 512 512"
   height="512px"
   id="Layer_1"
   version="1.1"
   viewBox="0 0 512 512"
   width="512px"
   xml:space="preserve"
   sodipodi:docname="table.svg"
   inkscape:version="0.92.1 r15371"><metadata
     id="metadata9"><rdf:RDF><cc:Work
         rdf:about=""><dc:format>image/svg+xml</dc:format><dc:type
           rdf:resource="http://purl.org/dc/dcmitype/StillImage" /><dc:title></dc:title></cc:Work></rdf:RDF></metadata><defs
     id="defs7" /><sodipodi:namedview
     pagecolor="#ffff11"
     bordercolor="#666666"
     borderopacity="1"
     objecttolerance="10"
     gridtolerance="10"
     guidetolerance="10"
     inkscape:pageopacity="0"
     inkscape:pageshadow="2"
     inkscape:window-width="892"
     inkscape:window-height="677"
     id="namedview5"
     showgrid="false"
     inkscape:zoom="1.3370166"
     inkscape:cx="256"
     inkscape:cy="255"
     inkscape:window-x="0"
     inkscape:window-y="0"
     inkscape:window-maximized="0"
     inkscape:current-layer="Layer_1" /><path
     d="M52,76v362h408V76H52z M195,368v-47h121v47H195z M316,379v48H195v-48H316z M63,145h121v48H63V145z M63,204  h121v47H63V204z M63,262h121v48H63V262z M195,262h121v48H195V262z M195,251v-47h121v47H195z M195,193v-48h121v48H195z M63,321h121  v47H63V321z M328,321h121v47H328V321z M328,310v-48h121v48H328z M328,251v-47h121v47H328z M328,193v-48h121v48H328z M63,379h121v48  H63V379z M328,427v-48h121v48H328z"
     fill="#3974B1"
     id="path2" /><path
     style="fill:#ffffff;fill-opacity:1;stroke-width:1"
     d="M 52.113223,257.22438 V 76.598347 H 255.92521 459.73719 V 257.22438 437.85041 H 255.92521 52.113223 Z M 184.49752,403.07149 V 378.76364 H 123.54091 62.584298 v 24.30785 24.30785 h 60.956612 60.95661 z m 131.63636,0 V 378.76364 H 255.55124 194.9686 v 24.30785 24.30785 h 60.58264 60.58264 z m 133.13224,0 V 378.76364 H 388.3095 327.35289 v 24.30785 24.30785 h 60.95661 60.95662 z M 184.49752,344.35868 V 320.42479 H 123.54091 62.584298 v 23.93389 23.93388 h 60.956612 60.95661 z m 131.63636,0 V 320.42479 H 255.55124 194.9686 v 23.93389 23.93388 h 60.58264 60.58264 z m 133.13224,-0.004 V 320.4164 l -60.76963,0.19138 -60.76963,0.19138 -0.19749,23.7469 -0.19749,23.7469 H 388.299 449.26612 Z M 184.3209,285.83285 184.12355,261.71198 H 123.54091 62.958264 l -0.197344,24.12087 -0.197345,24.12087 h 60.977335 60.97734 z m 131.81298,-0.18698 V 261.33802 H 255.55124 194.9686 v 24.30785 24.30785 h 60.58264 60.58264 z m 133.13224,-0.004 v -24.31225 l -60.76963,0.19138 -60.76963,0.19138 -0.19734,24.12087 -0.19735,24.12087 h 60.96698 60.96697 z M 184.32105,227.4945 184.51853,203.7476 H 123.55142 62.584298 v 23.93828 23.93828 l 60.769632,-0.19138 60.76962,-0.19138 z m 131.81283,0.18698 V 203.74711 H 255.55124 194.9686 v 23.93388 23.93389 h 60.58264 60.58264 z m 133.13224,0 V 203.74711 H 388.3095 327.35289 v 23.43526 c 0,12.8894 0.22438,23.65964 0.49863,23.93388 0.27424,0.27425 27.70471,0.49863 60.95661,0.49863 h 60.45799 z m -264.7686,-58.7133 V 144.66033 H 123.54091 62.584298 v 24.30785 24.30785 h 60.956612 60.95661 z m 131.63636,0 V 144.66033 H 255.55124 194.9686 v 24.30785 24.30785 h 60.58264 60.58264 z m 133.13224,0 V 144.66033 H 388.3095 327.35289 v 24.30785 24.30785 h 60.95661 60.95662 z"
     id="path3681"
     inkscape:connector-curvature="0" /></svg>