<?xml version="1.0" encoding="UTF-8" standalone="no"?>
<!-- Svg Vector Icons : http://www.onlinewebfonts.com/icon -->

<svg
   xmlns:dc="http://purl.org/dc/elements/1.1/"
   xmlns:cc="http://creativecommons.org/ns#"
   xmlns:rdf="http://www.w3.org/1999/02/22-rdf-syntax-ns#"
   xmlns:svg="http://www.w3.org/2000/svg"
   xmlns="http://www.w3.org/2000/svg"
   xmlns:sodipodi="http://sodipodi.sourceforge.net/DTD/sodipodi-0.dtd"
   xmlns:inkscape="http://www.inkscape.org/namespaces/inkscape"
   version="1.1"
   x="0px"
   y="0px"
   viewBox="0 0 1000 1000"
   enable-background="new 0 0 1000 1000"
   xml:space="preserve"
   id="svg8"
   sodipodi:docname="trash-white.svg"
   inkscape:version="0.92.1 r15371"><defs
     id="defs12" /><sodipodi:namedview
     pagecolor="#ffff5c"
     bordercolor="#666666"
     borderopacity="1"
     objecttolerance="10"
     gridtolerance="10"
     guidetolerance="10"
     inkscape:pageopacity="0"
     inkscape:pageshadow="2"
     inkscape:window-width="1412"
     inkscape:window-height="819"
     id="namedview10"
     showgrid="false"
     inkscape:zoom="0.63871034"
     inkscape:cx="500"
     inkscape:cy="499.95"
     inkscape:window-x="0"
     inkscape:window-y="0"
     inkscape:window-maximized="0"
     inkscape:current-layer="svg8" /><metadata
     id="metadata2"> Svg Vector Icons : http://www.onlinewebfonts.com/icon <rdf:RDF><cc:Work
     rdf:about=""><dc:format>image/svg+xml</dc:format><dc:type
       rdf:resource="http://purl.org/dc/dcmitype/StillImage" /><dc:title></dc:title></cc:Work></rdf:RDF></metadata><g
     id="g6"><path
       d="M108,162.1c0-28,21.9-50.7,49-50.7h245V60.7c0-28,21.9-50.7,49-50.7h98c27,0,49,22.7,49,50.7v50.7h245c27,0,49,22.7,49,50.7v50.7H108V162.1z M843,314.2v101.4v523.8c0,28-22,50.7-49,50.7H206c-27.1,0-49-22.7-49-50.7V415.5V314.2v-50.7h686V314.2z M353,415.5c0-28-22-50.7-49-50.7c-27.1,0-49,22.7-49,50.7V838c0,28,21.9,50.7,49,50.7c27,0,49-22.7,49-50.7V415.5z M549,415.5c0-28-22-50.7-49-50.7c-27.1,0-49,22.7-49,50.7V838c0,28,21.9,50.7,49,50.7c27,0,49-22.7,49-50.7V415.5z M745,415.5c0-28-22-50.7-49-50.7c-27.1,0-49,22.7-49,50.7V838c0,28,21.9,50.7,49,50.7c27,0,49-22.7,49-50.7V415.5z"
       id="path4" /></g><path
     style="fill:#ffffff;fill-opacity:1;stroke-width:1"
     d="m 109.49058,179.79528 c 0.49281,-31.71755 0.60359,-32.67283 4.67505,-40.31562 4.99815,-9.38231 13.62936,-17.90158 23.22868,-22.92741 l 7.04545,-3.68872 128.593,-0.42651 128.59301,-0.42651 0.75854,-30.88659 c 0.58844,-23.960702 1.36868,-32.566664 3.47953,-38.379031 3.71617,-10.232686 15.98161,-23.286565 26.23353,-27.91986 8.227,-3.718144 8.4255,-3.729071 67.74606,-3.729071 h 59.49489 l 8.71535,4.087461 c 10.90031,5.112199 19.48986,13.73718 24.775,24.877156 3.91385,8.249563 4.10765,9.942225 4.61594,40.315615 l 0.53059,31.70451 h 125.64722 c 102.93954,0 126.9581,0.39452 132.90059,2.18294 13.78401,4.14838 26.44563,16.45763 31.7997,30.91473 1.8682,5.04455 2.73623,14.69394 3.32528,36.96539 l 0.79712,30.13886 H 500.71546 108.98581 Z"
     id="path3684"
     inkscape:connector-curvature="0" /><path
     style="fill:#ffffff;fill-opacity:1;stroke-width:1"
     d="m 189.42623,986.24434 c -9.46226,-3.36013 -22.65533,-15.95687 -27.1665,-25.93858 l -3.72908,-8.25118 -0.40525,-344.05267 -0.40525,-344.05268 H 499.8434 841.96666 l -0.40522,344.83551 -0.40523,344.8355 -3.685,7.41529 c -4.6044,9.26539 -13.70768,18.76014 -22.47512,23.44161 l -6.71863,3.58751 -306.08554,0.27593 c -269.92343,0.24332 -306.87476,-0.005 -312.76569,-2.09624 z M 321.07078,886.15299 c 9.98422,-3.40195 21.86824,-14.48051 27.21669,-25.372 l 4.3844,-8.92832 V 626.39835 400.94404 l -3.87678,-7.82827 c -4.94731,-9.98996 -14.42228,-19.46643 -24.34584,-24.34969 -11.63153,-5.72373 -29.47394,-5.48403 -41.78476,0.56136 -10.99116,5.39735 -20.41071,15.77547 -24.68341,27.19527 -3.18123,8.50261 -3.20141,10.18428 -2.7921,232.73005 l 0.41228,224.16556 4.21895,7.99674 c 5.17493,9.80874 17.85746,21.4951 26.74122,24.64076 8.83004,3.12666 25.48069,3.17356 34.50935,0.0972 z m 195.70687,0 c 9.44571,-3.21847 22.0242,-14.58229 27.38213,-24.73793 l 4.21896,-7.99674 0.41228,-224.16556 c 0.40931,-222.54577 0.38913,-224.22744 -2.79211,-232.73005 -4.27269,-11.4198 -13.69225,-21.79792 -24.68339,-27.19527 -11.78052,-5.78498 -29.93256,-6.2119 -41.3502,-0.97251 -9.37313,4.30118 -19.81547,14.73527 -24.78041,24.76084 l -3.87678,7.82827 v 225.45431 225.45432 l 4.3844,8.92832 c 5.18249,10.55353 17.15339,21.93844 26.57577,25.27483 8.83004,3.12666 25.48069,3.17356 34.50935,0.0972 z m 201.14784,-1.98874 c 14.5252,-7.51599 24.48479,-22.144 27.02182,-39.6879 2.04339,-14.13025 1.89758,-423.63265 -0.15531,-436.28453 -2.91087,-17.93916 -12.53603,-31.38331 -27.854,-38.90566 -12.18401,-5.98333 -30.1098,-6.22397 -41.62051,-0.55874 -10.28963,5.06425 -19.10571,14.16601 -24.1567,24.93952 l -4.14579,8.84276 v 224.67148 224.67149 l 3.61134,7.25856 c 5.75215,11.56149 14.0833,20.11731 24.47963,25.13975 8.66771,4.18738 10.63114,4.53073 22.79282,3.98594 9.82292,-0.44002 15.06756,-1.50658 20.0267,-4.07267 z"
     id="path3686"
     inkscape:connector-curvature="0" /></svg>