<?xml version="1.0" encoding="utf-8"?>
<!-- Svg Vector Icons : http://www.onlinewebfonts.com/icon -->
<!DOCTYPE svg PUBLIC "-//W3C//DTD SVG 1.1//EN" "http://www.w3.org/Graphics/SVG/1.1/DTD/svg11.dtd">
<svg version="1.1" xmlns="http://www.w3.org/2000/svg" xmlns:xlink="http://www.w3.org/1999/xlink" x="0px" y="0px" viewBox="0 0 1000 1000" enable-background="new 0 0 1000 1000" xml:space="preserve">
<metadata> Svg Vector Icons : http://www.onlinewebfonts.com/icon </metadata>
<g><path d="M108,162.1c0-28,21.9-50.7,49-50.7h245V60.7c0-28,21.9-50.7,49-50.7h98c27,0,49,22.7,49,50.7v50.7h245c27,0,49,22.7,49,50.7v50.7H108V162.1z M843,314.2v101.4v523.8c0,28-22,50.7-49,50.7H206c-27.1,0-49-22.7-49-50.7V415.5V314.2v-50.7h686V314.2z M353,415.5c0-28-22-50.7-49-50.7c-27.1,0-49,22.7-49,50.7V838c0,28,21.9,50.7,49,50.7c27,0,49-22.7,49-50.7V415.5z M549,415.5c0-28-22-50.7-49-50.7c-27.1,0-49,22.7-49,50.7V838c0,28,21.9,50.7,49,50.7c27,0,49-22.7,49-50.7V415.5z M745,415.5c0-28-22-50.7-49-50.7c-27.1,0-49,22.7-49,50.7V838c0,28,21.9,50.7,49,50.7c27,0,49-22.7,49-50.7V415.5z"/></g>
</svg>