<?xml version="1.0" encoding="UTF-8" standalone="no"?>
<!-- Generator: Adobe Illustrator 21.1.0, SVG Export Plug-In . SVG Version: 6.00 Build 0)  -->

<svg
   xmlns:dc="http://purl.org/dc/elements/1.1/"
   xmlns:cc="http://creativecommons.org/ns#"
   xmlns:rdf="http://www.w3.org/1999/02/22-rdf-syntax-ns#"
   xmlns:svg="http://www.w3.org/2000/svg"
   xmlns="http://www.w3.org/2000/svg"
   xmlns:sodipodi="http://sodipodi.sourceforge.net/DTD/sodipodi-0.dtd"
   xmlns:inkscape="http://www.inkscape.org/namespaces/inkscape"
   version="1.1"
   id="Capa_1"
   x="0px"
   y="0px"
   viewBox="0 0 427.5 427.5"
   style="enable-background:new 0 0 427.5 427.5;"
   xml:space="preserve"
   sodipodi:docname="up-black.svg"
   inkscape:version="0.92.1 r15371"><metadata
     id="metadata11"><rdf:RDF><cc:Work
         rdf:about=""><dc:format>image/svg+xml</dc:format><dc:type
           rdf:resource="http://purl.org/dc/dcmitype/StillImage" /></cc:Work></rdf:RDF></metadata><defs
     id="defs9" /><sodipodi:namedview
     pagecolor="#ffffff"
     bordercolor="#666666"
     borderopacity="1"
     objecttolerance="10"
     gridtolerance="10"
     guidetolerance="10"
     inkscape:pageopacity="0"
     inkscape:pageshadow="2"
     inkscape:window-width="1456"
     inkscape:window-height="872"
     id="namedview7"
     showgrid="true"
     showguides="false"
     inkscape:zoom="1.5883041"
     inkscape:cx="213.75"
     inkscape:cy="213.75"
     inkscape:window-x="0"
     inkscape:window-y="0"
     inkscape:window-maximized="0"
     inkscape:current-layer="Capa_1"><inkscape:grid
       type="xygrid"
       id="grid3683" /></sodipodi:namedview><g
     id="g4"
     transform="translate(85.2)"><path
       d="m 238,143.9 c 0.7,-1 1.1,-2.2 1.1,-3.3 0,-1.2 -0.4,-2.4 -1.1,-3.4 L 134.1,2.1 C 133.1,0.7 131.4,0 129.7,0 128,0 126.4,0.8 125.3,2.1 L 21.5,137.2 c -1.5,2 -1.5,4.7 0,6.7 1.5,2 4.1,2.7 6.4,1.8 l 68.8,-27.2 v 287.9 c 0,3 2.5,5.5 5.5,5.5 h 55.1 c 3,0 5.5,-2.5 5.5,-5.5 V 118.6 l 68.8,27.2 c 2.3,0.8 4.9,0.1 6.4,-1.9 z"
       id="path2"
       inkscape:connector-curvature="0" /></g></svg>