<?xml version="1.0" encoding="UTF-8" standalone="no"?>
<!-- Generator: Adobe Illustrator 21.1.0, SVG Export Plug-In . SVG Version: 6.00 Build 0)  -->

<svg
   xmlns:dc="http://purl.org/dc/elements/1.1/"
   xmlns:cc="http://creativecommons.org/ns#"
   xmlns:rdf="http://www.w3.org/1999/02/22-rdf-syntax-ns#"
   xmlns:svg="http://www.w3.org/2000/svg"
   xmlns="http://www.w3.org/2000/svg"
   xmlns:sodipodi="http://sodipodi.sourceforge.net/DTD/sodipodi-0.dtd"
   xmlns:inkscape="http://www.inkscape.org/namespaces/inkscape"
   version="1.1"
   id="Capa_1"
   x="0px"
   y="0px"
   viewBox="0 0 427.5 427.5"
   style="enable-background:new 0 0 427.5 427.5;"
   xml:space="preserve"
   sodipodi:docname="up-gray.svg"
   inkscape:version="0.92.1 r15371"><metadata
     id="metadata11"><rdf:RDF><cc:Work
         rdf:about=""><dc:format>image/svg+xml</dc:format><dc:type
           rdf:resource="http://purl.org/dc/dcmitype/StillImage" /><dc:title></dc:title></cc:Work></rdf:RDF></metadata><defs
     id="defs9" /><sodipodi:namedview
     pagecolor="#ffffff"
     bordercolor="#666666"
     borderopacity="1"
     objecttolerance="10"
     gridtolerance="10"
     guidetolerance="10"
     inkscape:pageopacity="0"
     inkscape:pageshadow="2"
     inkscape:window-width="1456"
     inkscape:window-height="872"
     id="namedview7"
     showgrid="true"
     showguides="false"
     inkscape:zoom="1.5883041"
     inkscape:cx="202.73196"
     inkscape:cy="213.75"
     inkscape:window-x="0"
     inkscape:window-y="0"
     inkscape:window-maximized="0"
     inkscape:current-layer="Capa_1"><inkscape:grid
       type="xygrid"
       id="grid3683" /></sodipodi:namedview><g
     id="g4"
     transform="translate(85.2)"><path
       d="m 238,143.9 c 0.7,-1 1.1,-2.2 1.1,-3.3 0,-1.2 -0.4,-2.4 -1.1,-3.4 L 134.1,2.1 C 133.1,0.7 131.4,0 129.7,0 128,0 126.4,0.8 125.3,2.1 L 21.5,137.2 c -1.5,2 -1.5,4.7 0,6.7 1.5,2 4.1,2.7 6.4,1.8 l 68.8,-27.2 v 287.9 c 0,3 2.5,5.5 5.5,5.5 h 55.1 c 3,0 5.5,-2.5 5.5,-5.5 V 118.6 l 68.8,27.2 c 2.3,0.8 4.9,0.1 6.4,-1.9 z"
       id="path2"
       inkscape:connector-curvature="0" /></g><path
     style="fill:#b3b3b3;fill-opacity:1;stroke-width:0.99999994"
     d="m 184.48322,410.53222 c -0.54256,-0.43286 -1.29639,-1.35365 -1.6752,-2.04621 -0.49274,-0.90089 -0.69418,-42.33069 -0.70787,-145.59555 -0.0115,-86.56593 -0.2491,-144.33634 -0.59367,-144.33634 -0.31599,0 -15.96948,6.0902 -34.78553,13.53378 -18.81606,7.44357 -35.00302,13.53498 -35.97103,13.53645 -2.35872,0.004 -4.8508,-2.54485 -4.8508,-4.96049 0,-1.51541 10.03372,-14.93531 52.62635,-70.386687 28.9445,-37.682857 53.32822,-68.8869717 54.18604,-69.34247688 3.9166,-2.07971612 1.50429,-4.93010792 58.15956,68.72149388 47.39659,61.61536 52.86976,68.96346 52.8701,70.98167 4.4e-4,2.75964 -2.11253,4.98917 -4.72836,4.98917 -0.9979,0 -17.21278,-6.09141 -36.03306,-13.53646 -18.82029,-7.44504 -34.48902,-13.53645 -34.81941,-13.53645 -0.37945,0 -0.60069,53.30345 -0.60069,144.72364 v 144.72363 l -1.3049,1.65891 -1.30491,1.65892 h -29.74008 c -22.84621,0 -29.96874,-0.18243 -30.72654,-0.787 z"
     id="path3679"
     inkscape:connector-curvature="0" /></svg>