<svg xmlns="http://www.w3.org/2000/svg" viewBox="0 0 14 14"><defs><style>.cls-1{fill:none;}</style></defs><title>Asset 4</title><g id="Layer_2" data-name="Layer 2"><g id="Layer_1-2" data-name="Layer 1"><rect class="cls-1" width="14" height="14"/><path d="M7.95,7c.34-.54,1-1.49,1.89-1.49.73,0,1.12.43,1.12.79a.91.91,0,0,1-1,1c-.47,0-.4-.54-.62-.54s-.31.16-.59.63L8.06,8.7l.76,2.19c.11.3.2.86.51.86s.53-.08.86-1.08h.37c-.33,1.28-.89,2.3-1.85,2.3s-1.21-.7-1.43-1.28l-.45-1.19-.56,1a2.43,2.43,0,0,1-2,1.49C3.47,13,3,12.52,3,12A.87.87,0,0,1,4,11.09c.73,0,.48.71.76.71s.33-.24.76-.94l.95-1.54L5.93,7.89C5.6,7,5.29,6.45,4.69,6.45a2,2,0,0,0-.81.24l-.12-.38,2.38-.79A3,3,0,0,1,7.51,7.24l.09.3Z"/></g></g></svg>